<svg width="250" height="211" viewBox="0 0 250 211" fill="none" xmlns="http://www.w3.org/2000/svg">
    <path d="M168.694 27.6849C170.004 19.0407 171.313 10.3964 171.464 6.07426C171.615 1.75212 170.567 2.01407 168.98 2.01804C165.288 2.02727 152.66 1.75212 130.104 3.06583C118.027 4.11759 104.668 5.95123 97.2616 6.89583C89.8556 7.84043 88.8078 7.84043 87.7283 7.84043" stroke="black" stroke-width="4" stroke-linecap="round"/>
    <path d="M88.522 7.04663V25.3036" stroke="black" stroke-width="4" stroke-linecap="round"/>
    <path d="M132.18 34.0352C127.465 52.3715 124.774 62.6033 124.377 62.8772C124.242 60.5316 124.766 57.5946 125.429 56.3999C125.568 56.2531 125.306 57.0389 125.83 59.4361" stroke="black" stroke-width="4" stroke-linecap="round"/>
    <path d="M133.768 34.829C137.173 34.3051 140.578 33.7812 150.453 33.2494C160.328 32.7175 176.568 32.1937 186.899 31.5308C201.204 30.6131 204.422 29.0106 203.624 29.9234C192.923 42.1688 205.47 65.0006 205.343 63.548C205.18 61.6891 199.683 61.5556 183.395 62.7304C170.25 64.1672 147.198 67.3105 134.538 69.1918C121.877 71.073 120.305 71.5969 118.686 72.1367" stroke="black" stroke-width="4" stroke-linecap="round"/>
    <path d="M132.974 36.4165C113.59 34.8448 94.2056 33.2731 80.6835 32.5944C49.9569 31.0523 42.7606 34.0352 41.562 34.4281C43.2448 35.6068 45.65 37.4643 46.9716 40.6235C47.5074 42.735 47.7694 45.8784 48.0393 49.117" stroke="black" stroke-width="4" stroke-linecap="round"/>
    <path d="M19.4631 70.5492C31.5127 69.7633 43.5623 68.9775 61.0334 68.5727C78.5046 68.1678 101.032 68.1678 113.423 68.4298C125.814 68.6917 127.386 69.2156 129.005 69.7554" stroke="black" stroke-width="4" stroke-linecap="round"/>
    <path d="M71.059 67.374C70.2652 86.6708 70.5271 91.1795 71.4479 92.3702C73.9644 95.6243 81.8703 89.3459 109.033 89.9888C126.006 90.3906 137.181 92.775 142.329 92.644C147.229 92.5194 152.263 91.9812 156.625 88.8379C158.367 85.6945 159.153 79.4077 159.427 75.7762C159.7 72.1446 159.439 71.3588 158.375 70.5491" stroke="black" stroke-width="4" stroke-linecap="round"/>
    <path d="M66.2964 94.3626C63.923 93.3068 52.8974 92.775 42.2448 92.2471C40.6434 92.1678 39.5936 92.5051 38.6609 92.902C36.9424 93.8228 35.8708 103.531 35.7358 118.208C35.8628 123.717 36.3867 125.288 36.9265 126.908" stroke="black" stroke-width="4" stroke-linecap="round"/>
    <path d="M109.161 127.701C109.423 127.963 109.684 128.225 109.95 127.967C112.997 125.011 109.954 116.35 108.768 104.332C108.337 99.9703 109.946 97.2837 111.53 95.4342C114.915 91.4802 124.735 93.2989 148.981 92.259C159.361 91.8138 173.695 88.3298 182.165 86.9804C192.683 85.3046 197.77 86.1549 202.922 86.9486C205.182 87.2968 206.764 87.2185 206.919 90.2309C207.386 99.3296 204.414 110.452 204.545 118.386C204.594 121.346 204.938 122.129 197.477 122.665C190.015 123.201 174.822 123.463 161.364 124.645C147.905 125.828 136.641 127.924 125.036 130.083" stroke="black" stroke-width="4" stroke-linecap="round"/>
    <path d="M2 134.052C41.2922 131.694 80.5843 129.337 117.328 127.991C154.073 126.646 187.078 126.384 203.426 126.249C219.774 126.114 218.464 126.114 217.396 126.376C216.329 126.638 215.543 127.162 215.527 127.701" stroke="black" stroke-width="4" stroke-linecap="round"/>
    <path d="M222.671 92.775L213.146 163.422" stroke="black" stroke-width="4" stroke-linecap="round"/>
    <path d="M151.231 127.701C151.231 137.655 151.231 147.609 151.362 153.916C151.493 160.223 151.755 162.58 152.025 165.009" stroke="black" stroke-width="4" stroke-linecap="round"/>
    <path d="M75.8216 133.258C74.7738 134.829 74.496 142.188 75.0238 153.027C75.2898 157.317 75.5517 159.151 75.6866 160.619C75.8216 162.088 75.8216 163.136 75.8216 164.215" stroke="black" stroke-width="4" stroke-linecap="round"/>
    <path d="M51.2144 170.565C51.4763 170.565 51.7383 170.565 84.0928 168.47C116.447 166.374 180.886 162.183 247.278 157.865" stroke="black" stroke-width="4" stroke-linecap="round"/>
    <path d="M116.305 167.39C114.987 170.272 113.923 179.789 115.765 185.366C116.182 186.629 117.606 187.219 119.194 187.624C122.784 188.539 128.965 187.505 141.729 186.842C150.553 186.384 164.185 186.965 173.56 186.707C195.54 186.102 204.906 181.948 209.296 179.706C211.272 177.471 213.4 171.145 214.987 163.08C215.527 159.992 215.527 158.945 215.527 157.865" stroke="black" stroke-width="4" stroke-linecap="round"/>
    <path d="M119.48 188.029H87.7283" stroke="black" stroke-width="4" stroke-linecap="round"/>
    <path d="M117.098 165.803C116.574 177.591 116.051 189.378 115.781 196.629C115.511 203.881 115.511 206.238 115.511 208.667" stroke="black" stroke-width="4" stroke-linecap="round"/>
</svg>
