<svg width="191" height="123" viewBox="0 0 191 123" fill="none" xmlns="http://www.w3.org/2000/svg">
<path d="M76.9701 3.07696C76.9701 2.24191 76.9701 1.40685 76.8031 12.7509C76.6361 24.095 76.302 47.6435 75.9579 71.9057" stroke="black" stroke-width="4" stroke-linecap="round"/>
<path d="M81.0188 33.9486C80.6848 33.7816 80.3508 33.6146 84.02 33.6956C87.6891 33.7766 95.3716 34.1106 113.358 32.4455C131.345 30.7805 159.403 27.1062 173.94 25.5475C188.478 23.9887 188.645 24.6568 188.647 25.4184C188.653 27.0236 186.641 34.0549 184.027 44.0022C181.811 52.4342 183.417 58.5701 183.67 60.1693C183.756 60.9335 183.756 61.6016 165.635 63.8663C147.514 66.1311 111.273 69.9724 73.9335 73.93" stroke="black" stroke-width="4" stroke-linecap="round"/>
<path d="M115.433 120.491C117.103 113.81 118.131 107.363 118.467 102.307C119.027 93.892 118.136 82.726 117.04 78.7506C116.685 77.4623 116.111 76.4656 114.603 75.4559C109.261 71.8795 104.987 73.596 100.106 73.257C98.2483 73.1279 95.7461 72.7559 90.5308 72.5004C85.3155 72.2448 77.466 72.0778 64.9883 72.9938C52.5106 73.9098 35.6425 75.914 26.4518 76.9464C13.7117 78.3775 8.66771 79.8311 4.52786 81.5974C0.656239 83.2492 2.74641 91.6231 2.49084 95.6769C2.3628 97.7077 2.06825 101.234 2.31876 105.113C2.40877 106.507 3.07031 106.654 3.74595 106.907C4.42158 107.16 5.25664 107.494 14.8724 108.668C24.4882 109.842 42.8594 111.847 64.5151 111.292C86.1708 110.738 110.554 107.565 124.034 105.93C137.514 104.296 139.351 104.296 142.256 104.802" stroke="black" stroke-width="4" stroke-linecap="round"/>
</svg>
