<svg width="174" height="76" viewBox="0 0 174 76" fill="none" xmlns="http://www.w3.org/2000/svg">
<path d="M2.02742 32.485C1.86875 32.485 1.71008 32.485 22.8108 32.3263C43.9115 32.1677 86.2763 31.8503 129.925 31.5234" stroke="black" stroke-width="4" stroke-linecap="round"/>
<path d="M40.012 31.5234C40.012 21.2098 40.012 10.8963 42.8681 5.97994C45.7241 1.06358 51.4363 1.85693 57.6316 2.42429C63.8269 2.99166 70.3324 3.309 75.7464 3.15513C91.658 2.70294 96.7389 2.03002 98.2607 2.90751C98.9892 4.26102 99.1526 6.1891 99.47 10.728C99.7873 14.1562 100.422 19.8684 101.076 25.7536" stroke="black" stroke-width="4" stroke-linecap="round"/>
<path d="M70.3036 33.9275C70.3036 41.5917 70.4623 48.0251 71.0994 49.3834C71.4678 50.1688 72.3712 50.9004 73.5732 51.4677C74.7753 52.0351 76.362 52.3524 87.2549 52.7539C98.1478 53.1554 118.299 53.6314 131.456 53.6386C144.614 53.6458 150.168 53.1698 155.646 52.3693C161.125 51.5687 166.361 50.458 171.756 49.3137" stroke="black" stroke-width="4" stroke-linecap="round"/>
<path d="M130.406 31.5234C130.406 31.8407 130.564 32.9562 130.884 37.0961C131.045 40.2839 131.204 45.6787 131.365 49.0131C131.526 52.3476 131.685 53.4583 131.848 54.6026" stroke="black" stroke-width="4" stroke-linecap="round"/>
<path d="M17.8944 32.9659C18.0531 39.5002 18.5339 47.8616 19.0123 49.5421C19.2301 50.3072 19.8081 50.7465 20.3706 51.0711C21.4889 51.7163 27.1405 51.0831 37.3699 50.2008C48.234 50.1118 56.1771 50.5927 60.5742 51.0735C62.7499 51.237 64.8126 51.237 66.9378 51.237" stroke="black" stroke-width="4" stroke-linecap="round"/>
<path d="M39.0504 55.0835C40.9736 65.6278 41.4496 72.5516 42.5675 72.6334C43.2123 72.6805 44.0028 72.2391 50.9169 72.4723C57.8311 72.7055 70.842 73.4988 78.814 73.7488C92.7324 74.1854 94.8204 73.1959 95.7003 72.4795C96.7485 69.3542 97.0658 65.5269 97.5467 61.363C97.7101 59.7378 97.7101 59.1031 97.7101 58.4492" stroke="black" stroke-width="4" stroke-linecap="round"/>
</svg>
