<svg width="446" height="152" viewBox="0 0 446 152" fill="none" xmlns="http://www.w3.org/2000/svg">
<path d="M93.3454 100.531C83.6667 109.001 71.4461 113.944 61.9777 122.057C60.525 123.309 59.1328 124.603 57.9133 125.849C56.8355 126.905 55.1216 129.05 56.4015 127.752C57.4017 125.972 58.0157 127.608 58.9409 120.58C59.0327 118.72 58.8363 115.731 57.2397 112.461C55.68 109.18 52.8312 106.552 50.7162 105.314C49.7414 104.708 48.3724 104.1 47.6385 103.847C46.9278 103.611 47.0024 103.586 45.8335 103.308C43.2139 102.763 41.8625 102.908 41.0873 102.933C38.3716 103.182 39.584 103 39.9252 102.726C40.4545 102.446 41.1813 102.078 41.9375 101.689C48.2575 98.438 55.6314 94.4647 63.0174 91.6942C77.8654 86.0909 93.0439 80.4925 108.223 75.1369C123.424 69.7668 138.705 64.5763 154.063 59.5027C169.39 54.4422 184.831 49.4818 200.246 44.6039C210.774 41.2645 221.185 38.0111 231.734 34.6846C236.346 33.2321 240.905 31.799 245.525 30.3411C247.254 29.7959 248.972 29.2543 250.688 28.724C251.568 28.45 252.412 28.191 253.314 27.9297C253.773 27.8039 254.139 27.6763 254.851 27.5494C256.244 27.1416 257.262 28.9422 257.18 29.4049C257.252 30.1006 256.988 30.5946 256.603 30.961C256.212 31.3224 255.705 31.5146 255.183 31.5153C254.66 31.5166 254.155 31.3047 253.758 30.9894C253.366 30.6904 253.087 30.2458 253.024 30.2711C253.023 30.2943 252.914 30.4665 253.413 31.1167C253.828 31.8789 255.914 32.0987 255.874 31.9992C256.048 31.9992 255.486 32.2546 255.176 32.4472C254.441 32.8705 253.681 33.3253 252.901 33.7891C251.367 34.7067 249.812 35.6432 248.252 36.5813C244.788 38.6647 241.359 40.7336 237.892 42.8102C236.404 41.1302 235.008 39.9769 233.188 40.0115C232.301 40.0104 231.138 40.3684 230.475 41.1049C229.916 41.7496 229.631 42.5787 229.353 43.3712C229.056 44.2032 228.795 44.9833 228.227 45.4733C227.254 46.3097 226.538 47.6307 225.817 49.0041C225.549 49.5062 225.272 50.02 224.969 50.5252C221.694 52.4774 218.384 54.4389 215.027 56.415C213.614 56.7991 212.292 57.1897 211.255 57.751C210.357 58.24 209.687 59.0369 209.051 59.9392C208.538 60.2413 207.998 60.5552 207.5 60.8502C204.217 62.7836 200.85 64.7454 197.552 66.6713C194.561 67.3819 191.517 68.1341 187.699 69.5719C186.039 70.1984 184.362 70.608 182.713 71.0189C180.281 71.624 178.018 72.1821 176.291 73.2896C175.144 74.0262 173.721 74.329 172.295 74.6334C170.393 75.0375 168.497 75.439 167.252 76.8968C166.477 77.8099 165.825 78.7905 165.221 79.7C164.259 81.1472 163.418 82.4127 162.382 82.9348C160.435 83.9163 158.983 85.3041 157.707 86.5261C156.171 87.9962 154.882 89.2298 153.271 89.2337C153.026 89.2343 152.739 89.2183 152.416 89.1989C150.712 89.0961 147.979 88.9351 145.081 90.9761C144.046 91.7044 143.237 92.7621 142.449 93.7972C141.306 95.303 140.182 96.77 138.445 97.1083C138.185 97.1587 137.839 97.0415 137.524 96.934C137.123 96.7974 136.773 96.6781 136.714 96.9426C136.544 97.7176 136.137 98.671 135.701 99.7056C135.38 100.466 135.041 101.271 134.76 102.083C130.812 104.219 126.854 106.34 122.877 108.446C121.056 109.411 119.236 110.371 117.411 111.328C116.064 110.868 114.739 110.504 113.425 110.365C111.714 110.18 109.86 110.708 107.444 111.397C105.695 111.891 103.587 112.495 101.113 112.923C96.4452 113.754 92.2096 115.872 89.7123 117.607C89.1633 117.982 88.6221 118.364 88.0542 118.77C85.9287 120.296 83.2034 122.239 77.7835 125.392C72.6483 128.377 68.1404 130.475 64.6245 132.072C62.8565 132.876 61.3218 133.558 60.214 134.121C58.2398 135.113 55.8376 136.254 52.9635 137.44C51.7707 137.921 50.6126 138.395 48.7687 138.951C47.8152 139.22 46.7833 139.56 44.505 139.831C43.3277 139.936 42.0206 140.126 39.1439 139.727C36.0839 139.15 36.4835 139.299 33.5062 138.036C29.2697 136.5 23.0211 129.44 22.3206 123.748C21.3711 118.21 22.3625 115.549 22.8289 113.626C23.9477 109.97 24.7056 108.678 25.918 106.646C27.4783 104.17 28.4876 102.966 29.3696 101.794C31.7629 98.7003 33.7888 96.1919 36.9777 92.9953C40.2903 89.6918 42.6028 88.0682 45.1618 86.589C46.1886 86.0001 47.516 85.958 48.8681 85.9317C50.8231 85.8645 52.7981 85.8509 54.2279 84.1849C54.5522 83.8037 54.8313 83.3205 55.1318 82.8075C55.6926 81.8578 56.2613 80.8613 57.258 80.2715C57.5969 80.0729 58.0035 80.0255 58.4033 79.978C58.8432 79.9258 59.2756 79.8729 59.6075 79.6168C60.8243 78.6786 61.9579 77.6758 62.9586 76.7901C64.2572 75.6413 65.3408 74.6841 66.1509 74.2709C67.6031 73.5279 68.7591 72.1808 69.9297 70.8155C70.8183 69.7771 71.723 68.7207 72.7726 67.9213C75.7757 65.6339 79.4197 61.8959 82.9351 57.7582C84.2644 56.1937 85.9162 55.5015 88.0228 54.6245C89.338 54.075 90.8308 53.455 92.5377 52.5001C93.498 51.9647 93.9402 51.0202 94.334 50.1595C94.6941 49.3688 95.0476 48.621 95.752 48.3057C96.3745 48.0272 97.1788 48.3524 97.9463 48.6585C98.799 49.0003 99.6006 49.3221 100.042 48.7711C100.275 48.4801 100.39 47.8945 100.52 47.2053C100.571 46.9326 100.627 46.6431 100.693 46.3475C100.781 46.4747 100.866 46.5834 100.932 46.6644C101.399 47.2352 102.184 47.096 102.973 46.9431C103.286 46.8836 103.596 46.8243 103.88 46.8134C104.921 46.7777 106.221 45.8476 107.136 45.062C107.53 44.724 108.035 44.6067 108.618 44.4743C109.131 44.3616 109.736 44.2122 110.365 43.8981C110.725 43.7177 111.087 43.6984 111.394 43.677C111.619 43.6599 111.81 43.6463 111.94 43.5772C112.053 43.5173 111.997 43.29 111.933 43.0344C111.887 42.8504 111.837 42.651 111.843 42.4891C111.858 42.1021 112.056 41.8273 112.291 41.7552C112.398 41.723 112.52 41.7293 112.638 41.7386C112.776 41.7489 112.914 41.7603 113.04 41.6999C113.626 41.4191 113.907 40.8765 114.249 40.2713C114.615 39.6145 114.964 38.9576 115.725 38.6077C115.962 38.5003 116.263 38.4519 116.552 38.4075C116.851 38.3644 117.16 38.3055 117.358 38.1948C118.157 37.7481 118.485 36.7936 118.761 35.935C118.953 35.358 119.148 34.8022 119.44 34.4697C120.005 33.8355 119.928 33.0757 119.882 32.5052C119.861 32.2078 119.841 31.9656 119.913 31.8267C120.026 31.7553 120.142 31.6863 120.255 31.6215C120.377 31.5806 120.494 31.5454 120.579 31.4547C120.585 31.448 120.59 31.4401 120.596 31.4334C121.268 31.0721 121.958 30.778 122.622 30.5015C124.138 29.8614 125.678 29.1842 126.552 28.0395C126.749 27.7852 126.791 27.3939 126.782 27.0388C126.773 26.6063 126.764 26.1316 126.552 26.3908C126.479 26.4838 126.373 26.6051 126.034 27.0686C125.883 27.28 125.619 27.6394 125.253 28.2553C124.893 29.0469 124.063 29.5246 123.293 33.8554C122.93 35.8722 123.048 41.5547 126.907 45.8088C130.821 49.9573 133.702 50.1659 135.277 50.5638C138.661 51.095 139.346 50.6836 139.766 50.6625C140.402 50.5269 140.504 50.4784 141.002 50.3142C142.272 49.7929 141.585 49.7296 141.352 49.6179C140.287 49.3725 138.509 49.5589 137.59 50.8112C137.285 51.2249 137.048 51.7757 136.81 52.3327C136.686 52.6384 136.545 52.956 136.401 53.2448C136.286 52.9134 136.157 52.6137 136.04 52.3324C135.796 51.7536 135.59 51.2568 135.604 50.7341C135.624 49.5051 135.553 47.8723 134.985 46.9527C134.83 46.7035 134.694 46.4069 134.558 46.1075C134.218 45.3559 133.866 44.5902 133.18 44.5225C132.703 44.4841 131.547 44.435 131.26 45.3072C131.204 45.4935 131.259 45.7731 131.32 46.0839C131.432 46.6413 131.547 47.3102 131.092 47.7306C131.014 47.8021 130.926 47.8764 130.833 47.9517C130.459 48.2534 130.062 48.5796 130.096 49.06C130.143 49.609 130.468 50.0875 130.84 50.6488C131.326 51.3795 131.905 52.2461 132.101 53.5693C132.14 53.8311 132.024 53.9927 131.935 54.116C131.872 54.2029 131.824 54.2711 131.854 54.3398C131.888 54.4186 132.002 54.5588 132.147 54.7362C132.66 55.3599 133.525 56.4662 132.703 56.9932C132.479 57.1366 132.165 57.2369 131.903 57.3158C131.511 57.4358 131.174 57.5428 131.245 57.7633C131.272 57.8468 131.308 57.9342 131.346 58.0235C131.046 58.1617 130.76 58.2922 130.459 58.4318C129.95 58.4091 129.472 58.7076 128.841 59.1028C128.693 59.1956 128.535 59.2935 128.368 59.394C127.773 59.6698 127.192 59.9392 126.585 60.2229C126.072 60.3857 125.512 60.4929 124.848 60.5342C123.553 60.5965 122.185 60.2563 120.832 59.9338C120.271 59.7925 119.709 59.6551 119.156 59.5536C119.277 59.4309 119.379 59.3099 119.441 59.1889C119.863 58.3627 119.638 57.3531 119.434 56.4218C119.297 55.8028 119.168 55.2192 119.241 54.7518C119.373 53.897 118.934 53.2417 118.606 52.7593C118.436 52.5089 118.298 52.3031 118.289 52.1387C118.282 52.0067 118.374 51.8893 118.468 51.7683C118.55 51.6629 118.634 51.5537 118.657 51.4309C118.931 49.941 118.34 49.5105 117.481 48.8829C117.007 48.5371 116.449 48.1327 115.908 47.4581C115.358 46.7311 115.259 46.482 115.529 45.9088C114.956 45.7247 114.371 45.5472 113.802 45.3609C113.68 45.4654 113.716 45.7675 113.803 46.2542C113.955 47.1248 113.261 47.8795 112.711 48.4742C112.455 48.751 112.238 48.9882 112.152 49.1857C111.692 50.2374 112.399 50.9151 113.023 51.5099C113.367 51.8375 113.683 52.1414 113.766 52.4689C113.802 52.609 113.92 52.6991 114.041 52.7914C114.134 52.8628 114.229 52.9352 114.288 53.0323C114.715 53.7387 114.552 54.543 114.394 55.2942C114.303 55.7245 114.228 56.1308 114.261 56.4928C114.271 56.6029 114.291 56.7099 114.311 56.8133C114.34 56.9641 114.367 57.1085 114.36 57.25C114.344 57.5721 114.117 57.9156 113.872 58.2894C113.748 58.4796 113.618 58.6788 113.507 58.8887C113.363 59.1608 113.446 59.4903 113.532 59.835C113.593 60.0786 113.655 60.3301 113.64 60.5756C113.612 61.0207 113.256 61.3846 112.921 61.7245C112.776 61.8725 112.635 62.0173 112.528 62.1602C112.485 62.2184 112.485 62.2831 112.518 62.353C111.991 62.9622 111.513 63.5495 111.03 64.1333C108.646 67.0382 106.586 69.5569 102.232 71.178C101.406 71.4861 100.626 71.9815 99.877 72.566C97.1264 73.811 94.3642 75.0496 91.5972 76.2778C90.7077 75.9381 89.763 75.7688 88.7718 75.7824C86.91 75.8084 85.3739 76.4809 83.5592 77.2733C82.2188 77.8584 80.7215 78.5109 78.8338 79.0117C75.6589 79.8546 72.4718 80.8534 69.0953 82.3533C65.7398 83.8439 61.9501 85.6748 59.3204 87.0409C57.8901 87.7843 56.0802 88.0365 54.3992 88.2655C52.0377 88.5862 49.9186 88.8671 49.3961 90.4479C49.2297 90.9528 49.2083 91.6815 49.1796 92.3937C49.1597 92.9005 49.1383 93.3965 49.0698 93.7948C48.4367 94.031 47.7971 94.2714 47.1625 94.506C45.7524 94.4189 43.744 94.5946 42.5694 96.1891C41.915 96.4262 41.2517 96.6681 40.6166 96.8925C39.2263 97.3952 37.8675 97.8753 36.4944 98.359C36.0478 98.5149 35.5912 98.6759 35.1385 98.8341C35.1341 98.8355 35.1298 98.8369 35.1254 98.8382C34.2122 99.1577 33.2903 99.4797 32.383 99.7921C31.9953 99.9257 31.6061 100.06 31.2175 100.194C30.2315 100.533 29.2373 100.875 28.2577 101.207C27.7398 101.382 27.2167 101.561 26.6929 101.737C25.844 102.024 24.987 102.314 24.1339 102.6C22.7558 103.062 21.381 103.518 20.004 103.974C19.7786 104.048 19.5213 104.042 19.2863 103.951C19.0512 103.86 18.8571 103.693 18.7423 103.475C18.6272 103.257 18.5983 103.001 18.6558 102.756C18.7137 102.512 18.8548 102.298 19.0431 102.154C20.1976 101.277 21.3525 100.402 22.5114 99.5268C23.2286 98.9852 23.9488 98.4403 24.6627 97.9017C25.1034 97.5694 25.5439 97.2386 25.979 96.9096C26.8028 96.2881 27.6427 95.6575 28.4737 95.0332C28.8012 94.7871 29.129 94.5405 29.4553 94.2947C30.2209 93.7181 31.0018 93.1342 31.7738 92.5548C31.7784 92.5513 31.7831 92.5478 31.7878 92.5444C32.1667 92.2598 32.5499 91.9725 32.9227 91.6912C34.0817 90.822 35.2266 89.9605 36.4038 89.0818C37.0053 88.626 37.6422 88.1531 38.2659 87.6852C38.614 87.4242 38.9655 87.1608 39.3041 86.905C39.4904 86.7655 39.68 86.6244 39.8711 86.4823C44.2379 83.2054 48.5559 79.9493 52.911 76.6654C57.2453 73.3937 61.5845 70.1092 65.8949 66.8411C70.2309 63.5587 74.557 60.2881 78.9042 57.0241C92.7785 46.6642 106.219 36.3496 121.36 26.2897C123.296 25.0302 125.231 23.7819 127.66 22.4325C129.173 21.7013 129.203 21.2059 133.905 19.8461C134.736 19.6521 134.844 19.6085 136.149 19.431C136.989 19.3969 138.324 18.94 142.332 19.8842C144.546 20.5379 148.202 21.5969 151.736 26.4597C155.154 31.3709 154.83 36.5061 154.52 38.4343C153.698 42.8615 152.821 43.5742 152.299 44.6276C151.86 45.3724 151.429 45.9714 151.199 46.2845C150.656 47.0154 150.342 47.3778 150.032 47.7401C148.969 48.9622 148.504 49.424 147.956 50.0005C144.128 53.9518 141.27 56.6666 138.045 59.7693C131.719 65.8255 125.401 71.714 119.024 77.5652C115.389 80.9023 111.634 84.2978 107.964 87.5921C104.252 90.9212 100.603 94.1656 96.8524 97.4598C95.7158 98.4603 94.545 99.4846 93.3454 100.531Z" fill="#9747FF"/>
<path d="M262.276 56.6579C269.247 54.2623 277.116 56.0564 284.224 54.0353C293.05 51.5262 300.986 45.394 310.004 43.5059C318.972 41.6323 328.058 40.0225 337.184 38.6221C346.32 37.2181 355.508 36.021 364.751 34.9342C373.902 33.8733 383.227 32.8905 392.464 31.9279C398.698 31.2816 405.039 30.6182 411.247 29.8289C413.963 29.4791 416.663 29.1068 419.301 28.5918C420.282 28.4023 421.319 28.1638 422.379 27.9524C422.911 27.8474 423.453 27.7407 424.051 27.658C424.363 27.6173 424.662 27.5716 425.133 27.5741C425.406 27.2632 427.453 28.8895 426.908 29.5166C426.716 30.1305 426.326 30.2274 425.881 30.2448C425.429 30.2515 424.942 30.0765 424.491 29.8128C424.042 29.5463 423.66 29.1976 423.376 28.8957C423.088 28.642 422.921 28.2081 422.721 28.814C422.635 28.9636 422.503 30.6927 423.979 31.6341C425.222 32.3173 425.422 32.0573 425.583 32.1176C425.831 32.1367 425.673 32.2081 425.555 32.3071C425.29 32.5046 424.89 32.778 424.501 33.0564C423.707 33.6193 422.878 34.2329 421.964 34.8589C419.911 36.2597 417.846 37.5312 415.804 38.7593C414.72 36.8703 413.734 35.4967 412.589 35.1374C412.047 34.9393 411.301 35.0372 410.977 35.5697C410.672 36.0532 410.546 36.7706 410.419 37.4563C410.306 38.167 410.202 38.8397 409.867 39.178C409.278 39.759 408.973 40.8206 408.57 41.9622C408.418 42.3794 408.3 42.7921 408.148 43.1964C406.151 44.3151 404.205 45.3997 402.259 46.4727C401.378 46.5146 400.565 46.5795 399.974 46.8593C399.438 47.1119 399.034 47.7148 398.686 48.4153C398.391 48.5773 398.092 48.7403 397.788 48.9045C395.784 49.9772 393.848 51.0148 391.871 52.0568C390.025 52.0288 388.156 52.0226 385.897 52.4583C384.912 52.6494 383.836 52.6538 382.869 52.6379C381.42 52.6203 379.982 52.6255 378.996 53.2453C378.323 53.6641 377.452 53.6107 376.568 53.5614C375.397 53.491 374.283 53.4036 373.561 54.4819C373.116 55.1574 372.715 55.9364 372.401 56.6411C371.884 57.7681 371.419 58.757 370.797 59.0016C369.622 59.4627 368.777 60.4225 368.052 61.2627C367.171 62.2759 366.413 63.1312 365.403 62.7529C365.248 62.6959 365.072 62.6114 364.875 62.5144C363.835 62.0039 362.169 61.1882 360.421 62.4255C359.796 62.8672 359.369 63.6599 358.921 64.4464C358.274 65.5895 357.636 66.7019 356.563 66.6072C356.402 66.5929 356.182 66.4 355.981 66.2237C355.729 65.9986 355.513 65.8009 355.487 66.0359C355.412 66.7248 355.205 67.5229 354.978 68.392C354.812 69.0304 354.633 69.7076 354.49 70.4058C352.112 71.476 349.795 72.5112 347.395 73.5503C346.307 74.023 345.244 74.4843 344.152 74.9498C343.305 74.1941 342.469 73.5344 341.657 73.0878C340.588 72.5063 339.491 72.5528 338.034 72.623C336.969 72.6724 335.689 72.7403 334.187 72.5522C331.387 72.2097 328.851 73.2057 327.381 74.2526C327.067 74.4747 326.754 74.7056 326.419 74.9551C325.144 75.9025 323.565 77.0837 320.397 78.7972C317.383 80.4229 314.742 81.38 312.729 82.1065C311.711 82.4746 310.861 82.7794 310.229 83.0789C309.148 83.5908 307.788 84.1607 306.443 84.7259C304.331 85.612 302.188 86.5066 301.043 87.2084C300.634 87.4585 300.211 87.7442 299.754 88.051C298.489 88.9007 296.951 89.9287 294.718 90.906C292.372 91.9324 290.793 92.1391 289.081 92.0978C288.386 92.081 287.598 91.4555 286.786 90.8086C285.635 89.8907 284.434 88.9323 283.374 89.6212C283.126 89.7819 282.889 90.0517 282.642 90.3344C282.187 90.8537 281.696 91.4162 281.03 91.4194C280.798 91.4205 280.548 91.2608 280.303 91.1042C280.034 90.932 279.77 90.7637 279.54 90.8154C278.68 91.0088 277.872 91.2951 277.153 91.55C276.224 91.8797 275.445 92.1553 274.9 92.1078C273.929 92.0229 273.056 92.5916 272.173 93.1684C271.5 93.6086 270.814 94.0565 270.075 94.2178C267.962 94.6783 265.279 96.0471 262.601 97.8202C261.588 98.4909 260.526 98.2613 259.131 97.975C258.267 97.7959 257.286 97.5897 256.134 97.5596C255.482 97.5426 255.096 98.1202 254.739 98.6539C254.41 99.1456 254.107 99.5997 253.635 99.5228C253.22 99.4542 252.784 98.7863 252.369 98.1519C251.908 97.4459 251.475 96.7819 251.13 97.0313C250.946 97.164 250.8 97.5998 250.626 98.1175C250.557 98.3223 250.483 98.5393 250.401 98.7565C250.367 98.606 250.331 98.4727 250.303 98.3721C250.106 97.6611 249.61 97.3958 249.125 97.1358C248.931 97.0319 248.739 96.9297 248.568 96.7995C247.938 96.3204 247.046 96.4622 246.377 96.6787C246.095 96.7696 245.776 96.6208 245.405 96.447C245.074 96.2926 244.703 96.1182 244.279 96.0744C244.038 96.0494 243.813 95.8897 243.627 95.756C243.493 95.6592 243.378 95.5764 243.292 95.5703C243.217 95.5652 243.218 95.7843 243.22 96.0311C243.221 96.2087 243.223 96.4011 243.196 96.5344C243.131 96.853 242.972 96.9879 242.819 96.9336C242.748 96.9086 242.68 96.8422 242.611 96.7761C242.532 96.6991 242.453 96.6213 242.37 96.6094C241.989 96.555 241.725 96.8787 241.45 97.2149C241.149 97.584 240.82 97.972 240.321 97.8885C240.164 97.8623 239.974 97.7547 239.791 97.6502C239.599 97.5409 239.413 97.4356 239.278 97.431C238.731 97.4126 238.401 98.0514 238.097 98.6388C237.895 99.0294 237.705 99.397 237.472 99.5335C237.045 99.7832 236.967 100.462 236.91 100.963C236.88 101.222 236.856 101.435 236.792 101.516C236.713 101.519 236.633 101.519 236.554 101.518C236.474 101.491 236.389 101.465 236.327 101.498C236.322 101.5 236.318 101.504 236.313 101.507C235.853 101.474 235.385 101.378 234.92 101.28C233.876 101.062 232.851 100.843 231.981 101.364C231.793 101.476 231.656 101.785 231.516 102.099C231.345 102.484 231.174 102.876 230.891 102.929C230.223 103.053 229.452 102.817 228.696 102.583C227.56 102.231 226.458 101.885 225.783 102.779C225.562 103.074 225.375 103.516 225.191 103.959C225.089 104.207 224.986 104.456 224.875 104.679C224.818 104.336 224.751 104.017 224.688 103.72C224.558 103.107 224.448 102.583 224.482 102.102C224.563 100.967 224.587 99.428 224.257 98.4001C224.168 98.1211 224.092 97.8039 224.017 97.4843C223.828 96.6824 223.634 95.8636 223.196 95.5888C222.901 95.4037 222.163 94.9949 221.96 95.7029C221.915 95.8572 221.938 96.1329 221.963 96.4394C222.008 96.9899 222.06 97.6422 221.751 97.8814C221.699 97.9217 221.641 97.961 221.58 97.9993C221.34 98.1523 221.071 98.3219 221.076 98.7729C221.082 99.2924 221.26 99.8408 221.467 100.48C221.738 101.313 222.059 102.302 222.115 103.584C222.126 103.838 222.046 103.948 221.985 104.031C221.943 104.089 221.91 104.136 221.926 104.209C221.943 104.292 222.007 104.46 222.089 104.671C222.375 105.416 222.874 106.719 222.323 106.93C222.174 106.987 221.982 106.97 221.809 106.955C221.556 106.933 221.345 106.915 221.379 107.141C221.392 107.227 221.41 107.319 221.429 107.414C221.242 107.436 221.04 107.463 220.845 107.487C220.532 107.292 220.198 107.406 219.784 107.549C219.684 107.584 219.578 107.62 219.467 107.654C219.083 107.699 218.7 107.745 218.319 107.789C217.998 107.756 217.641 107.659 217.239 107.46C216.435 107.061 215.622 106.263 214.801 105.49C214.458 105.164 214.118 104.84 213.785 104.55C213.866 104.481 213.936 104.408 213.982 104.319C214.293 103.717 214.216 102.716 214.144 101.796C214.095 101.183 214.054 100.605 214.124 100.206C214.25 99.4747 214.016 98.7228 213.842 98.1668C213.752 97.8784 213.679 97.642 213.681 97.4894C213.683 97.3671 213.743 97.2935 213.805 97.2174C213.86 97.151 213.916 97.0818 213.935 96.9783C214.176 95.7201 213.839 95.1182 213.35 94.2421C213.08 93.7589 212.764 93.1915 212.472 92.3849C212.177 91.5272 212.128 91.2662 212.317 90.8421C211.98 90.4698 211.644 90.0973 211.309 89.7246C211.232 89.7755 211.234 90.0643 211.261 90.5381C211.307 91.3844 210.834 91.8253 210.468 92.1688C210.299 92.3279 210.152 92.4666 210.088 92.6154C209.748 93.4066 210.142 94.2758 210.488 95.0407C210.679 95.4617 210.856 95.8514 210.888 96.1789C210.901 96.3189 210.969 96.4435 211.037 96.5706C211.09 96.6688 211.144 96.7687 211.175 96.8781C211.395 97.6732 211.249 98.3466 211.114 98.9715C211.037 99.3294 210.964 99.6724 210.964 100.013C210.964 100.117 210.97 100.221 210.977 100.322C210.986 100.47 210.995 100.611 210.982 100.737C210.954 101.024 210.8 101.253 210.632 101.503C210.545 101.632 210.455 101.766 210.377 101.916C210.275 102.111 210.307 102.44 210.341 102.784C210.365 103.027 210.388 103.277 210.367 103.495C210.327 103.888 210.097 104.088 209.864 104.278C209.764 104.361 209.667 104.442 209.593 104.533C209.562 104.57 209.559 104.629 209.574 104.705C209.213 105.069 208.874 105.432 208.547 105.786C206.924 107.559 205.475 109.105 202.752 108.978C202.241 108.953 201.741 109.116 201.235 109.376C199.445 109.509 197.766 109.6 195.971 109.708C195.453 109.074 194.894 108.573 194.3 108.22C193.2 107.552 192.193 107.606 191.042 107.658C190.188 107.698 189.282 107.729 188.069 107.499C186.088 107.1 184.068 106.843 181.988 106.954C179.8 107.094 177.437 107.365 175.762 107.65C174.805 107.815 173.79 107.364 172.717 106.97C171.259 106.404 170 105.879 169.543 107.133C169.4 107.534 169.322 108.192 169.247 108.831C169.191 109.287 169.149 109.729 169.059 110.071C168.641 110.059 168.232 110.044 167.831 110.025C167.023 109.421 165.768 108.848 164.928 109.863C164.491 109.84 164.068 109.814 163.67 109.779C162.806 109.713 161.948 109.637 161.024 109.557C160.731 109.529 160.443 109.499 160.162 109.466C160.159 109.465 160.157 109.465 160.154 109.464C159.537 109.405 158.991 109.329 158.36 109.254C158.1 109.221 157.847 109.186 157.602 109.148C156.939 109.056 156.278 108.951 155.618 108.823C155.295 108.754 154.885 108.683 154.546 108.599C153.921 108.463 153.344 108.309 152.653 108.083C151.699 107.756 149.757 107.03 149.135 105.254C149.051 105.013 149.093 104.785 149.225 104.607C149.358 104.429 149.563 104.297 149.791 104.205C150.02 104.113 150.262 104.075 150.475 104.094C150.688 104.113 150.851 104.183 150.946 104.277C151.543 104.886 152.31 104.759 153.06 104.632C153.541 104.543 153.986 104.408 154.475 104.26C154.741 104.169 155.07 104.069 155.33 103.967C155.865 103.773 156.411 103.56 156.962 103.338C157.166 103.252 157.376 103.164 157.595 103.073C158.124 102.858 158.585 102.646 159.107 102.42C159.11 102.419 159.113 102.418 159.116 102.416C159.351 102.308 159.593 102.198 159.839 102.087C160.624 101.742 161.355 101.396 162.09 101.047C162.469 100.861 162.892 100.668 163.304 100.474C163.52 100.369 163.738 100.262 163.957 100.156C164.077 100.098 164.199 100.04 164.324 99.9818C167.125 98.6266 169.969 97.2238 172.741 95.8409C175.531 94.4534 178.337 93.062 181.158 91.6776C183.914 90.3093 186.808 88.9179 189.561 87.5772C207.466 78.9365 225.472 70.6415 243.84 63.4447C246.44 62.4206 249.162 61.3898 251.785 60.4125C254.453 59.4222 257.068 58.4726 259.761 57.5302C260.579 57.2421 261.418 56.9518 262.276 56.6579Z" fill="#9747FF"/>
<path d="M6.40762 54.0435C5.16975 62.7087 6.38887 78.3134 8.27382 89.3137C10.3073 101.181 4.53205 60.3455 11.6498 52.8432C16.8539 47.358 33.0032 50.2924 100.993 43.1746C168.982 36.0568 290.294 21.8212 354.026 14.1783C417.758 6.53532 420.234 5.91639 422.128 6.52595C425.923 7.74713 430.249 23.2842 435.876 51.324C442.621 84.9365 438.408 106.541 438.108 109.664C437.736 113.529 429.068 111.567 413.238 110.63C400.521 109.876 378.221 110.311 317.227 116.191C256.234 122.07 157.204 133.83 104.641 139.888C42.7508 147.021 30.2274 146.584 21.7498 143.461C18.28 134.731 19.5366 118.526 19.2272 103.23C18.9177 96.6002 18.2987 92.2677 13.9099 85.9282" stroke="black" stroke-width="11" stroke-linecap="round"/>
<path d="M52.784 93.4541C54.2395 91.5133 57.1727 86.1469 60.8447 77.1047C64.5251 68.0418 63.5684 58.9396 62.473 52.0919C61.9486 48.8134 60.1647 46.2145 58.5658 45.2037C56.9669 44.1929 55.2687 44.9207 54.1513 46.3873C51.7355 49.5581 51.5637 62.7182 51.0711 81.7986C51.0638 90.4474 51.549 96.9974 51.9202 100.978C52.2914 104.959 52.534 106.172 54.2542 107.422" stroke="black" stroke-width="5" stroke-linecap="round"/>
<path d="M68.9568 94.1892C67.7365 96.6225 66.7515 101.526 67.6005 103.731C68.0075 104.788 70.1478 104.481 71.5077 103.996C77.3 101.929 78.021 94.2039 78.0247 91.5133C78.0264 90.2554 77.058 89.3079 76.3192 88.6867C75.5804 88.0656 74.8526 87.823 73.6286 88.6684C70.7065 91.4545 68.4717 95.1522 67.8578 98.453C67.7292 100.056 67.9718 101.511 68.9568 103.746" stroke="black" stroke-width="5" stroke-linecap="round"/>
<path d="M80.719 93.4541C80.2338 92.9689 79.7486 92.4837 79.2561 92.5977C78.7635 92.7116 78.2783 93.4394 78.3923 94.5421C79.0398 100.808 85.1224 103.981 86.4677 105.088C87.4343 105.882 87.0999 100.835 88.3055 94.4575C88.8979 91.3244 92.4664 89.7858 95.2783 88.6831C96.5883 88.1693 97.8475 88.3082 98.8363 88.6721C99.825 89.036 100.553 89.7637 101.049 90.7451C101.545 91.7265 101.788 92.9395 101.913 94.656C102.038 96.3726 102.038 98.5559 102.038 100.805" stroke="black" stroke-width="5" stroke-linecap="round"/>
<path d="M119.681 86.8379C119.681 86.3527 119.681 85.8675 119.196 85.9815C114.886 86.9937 112.829 93.1894 111.231 98.4566C110.835 99.7603 111.345 101.026 112.076 101.893C114.02 103.246 119.152 102.29 125.76 99.5998C128.488 98.3648 129.943 97.3944 131.443 96.3946" stroke="black" stroke-width="5" stroke-linecap="round"/>
<path d="M134.384 89.7784C134.869 90.7488 136.817 91.0061 140.239 90.1534C143.896 89.2419 146.138 86.3601 146.513 84.6436C146.903 82.8585 142.235 85.3603 140.158 87.1908C135.568 91.2363 135.611 95.3948 135.729 98.8206C135.781 100.348 137.059 101.276 138.044 101.897C139.853 103.037 141.97 102.768 144.047 102.037C148.83 100.352 150.549 97.6223 151.652 96.8908C153.482 92.2558 159.349 84.412 166.211 81.2105C168.178 80.7143 170.361 80.4717 172.61 80.2217" stroke="black" stroke-width="5" stroke-linecap="round"/>
<path d="M198.34 80.9568C199.068 85.5661 199.796 90.1754 200.898 92.7925C202.001 95.4095 203.456 95.8947 204.57 96.0234C206.403 96.2351 208.375 94.6891 210.698 91.8846C213.862 88.0647 213.778 81.964 213.535 77.5569C213.293 75.8183 212.807 75.0905 212.436 75.0795C212.065 75.0684 211.822 75.7962 211.572 78.0163" stroke="black" stroke-width="5" stroke-linecap="round"/>
<path d="M222.599 88.3082C222.114 88.5507 221.629 88.7933 221.258 89.4035C220.886 90.0137 220.644 90.984 221.125 89.3006C222.853 83.2599 224.797 77.5385 226.264 75.7007C226.867 74.9443 227.73 75.0758 228.469 76.0462C229.208 77.0165 229.936 78.9573 230.311 82.1404C230.686 85.3235 230.686 89.6902 230.686 94.1892" stroke="black" stroke-width="5" stroke-linecap="round"/>
<path d="M243.183 78.0164C243.176 77.7664 246.594 78.7515 251.13 77.7774C253.486 77.2714 254.695 75.0832 255.066 73.6166C255.25 72.8919 254.225 72.15 253.122 72.2603C246.605 72.912 241.742 82.633 240.118 88.7787C239.789 90.0224 241.448 90.9841 242.918 91.484C244.389 91.9838 246.329 91.9838 249.149 91.2561C251.968 90.5283 255.607 89.0727 259.356 87.5731" stroke="black" stroke-width="5" stroke-linecap="round"/>
<path d="M278.469 76.5461C278.469 85.7867 278.712 101.041 279.322 101.783C282.729 105.929 281.41 81.0745 282.384 72.8814C282.488 72.0017 283.6 71.4148 284.824 71.0399C287.641 70.1771 290.224 70.9076 291.812 71.6391C293.808 72.5586 295.127 77.487 295.256 83.732C295.305 86.1216 293.686 86.8232 292.334 87.1981C289.526 87.573 286.328 87.3304 282.906 86.7203C281.182 86.3527 279.484 85.8675 277.734 85.3676" stroke="black" stroke-width="5" stroke-linecap="round"/>
<path d="M310.815 75.0758C310.33 76.5314 309.837 78.009 309.591 79.5969C309.308 81.4211 310.808 83.1549 312.395 84.2576C313.166 84.7928 314.226 84.6325 315.332 84.1473C317.84 83.0476 319.629 80.479 320.853 77.6708C321.521 76.1393 321.592 74.1348 320.747 72.7712C319.901 71.4075 317.96 70.6797 315.99 70.9113C312.079 72.3558 309.109 75.0611 307.76 77.873C307.382 79.2293 307.624 80.4423 309.345 83.1622" stroke="black" stroke-width="5" stroke-linecap="round"/>
<path d="M319.637 74.3407C320.607 76.524 321.577 78.7074 322.562 80.9238C323.547 83.1402 324.518 85.3236 325.503 86.6909C326.488 88.0582 327.458 88.5434 329.193 89.0433" stroke="black" stroke-width="5" stroke-linecap="round"/>
<path d="M332.134 72.1353C333.604 79.2293 333.847 82.4198 334.214 84.1289C334.422 85.0962 334.339 86.3233 335.431 84.4009C339.255 77.6674 342.168 70.9223 344.491 68.9632C345.601 68.217 346.572 67.9744 347.678 67.8495C348.785 67.7245 349.997 67.7245 351.247 67.7245" stroke="black" stroke-width="5" stroke-linecap="round"/>
<path d="M359.334 54.4921C358.841 57.8811 357.393 75.958 355.173 84.4928C354.886 85.594 354.923 86.5733 355.287 86.7093C358.584 82.9417 364.45 75.1052 368.144 72.9954C368.883 72.8704 369.611 72.8704 370.361 72.8704" stroke="black" stroke-width="5" stroke-linecap="round"/>
<path d="M381.388 75.8109L379.917 81.692" stroke="black" stroke-width="5" stroke-linecap="round"/>
<path d="M385.798 62.5786V64.0488" stroke="black" stroke-width="5" stroke-linecap="round"/>
<path d="M394.62 74.3407C399.472 72.3999 402.699 70.915 403.074 69.9372C403.291 69.3715 401.266 68.9595 399.788 69.0735C396.745 69.3081 393.9 72.1206 391.452 74.9325C390.348 76.2 389.974 77.5017 389.845 78.7331C389.717 79.9644 389.959 81.1774 390.691 82.0449C395.826 83.6548 402.434 81.9493 407.084 79.7476C409.065 78.7588 410.278 78.031 411.528 77.2812" stroke="black" stroke-width="5" stroke-linecap="round"/>
</svg>
