<svg width="154" height="134" viewBox="0 0 154 134" fill="none" xmlns="http://www.w3.org/2000/svg">
<path d="M58.8486 26.1312C59.1772 24.6305 59.5569 23.1694 60.8 20.5124C61.2353 19.7021 61.1918 19.369 63.0341 16.8473C63.6791 16.1568 63.713 15.3788 67.4574 12.7616C68.6231 12.0562 69.7624 11.2393 72.9203 10.4559C75.712 9.7252 80.9403 9.8178 84.9763 12.1504C92.3818 16.8009 92.3071 20.5591 93.0289 22.0073C94.4802 27.6595 93.7717 27.2433 93.8794 28.4542C93.7461 31.4657 93.5512 32.116 93.3674 33.4151C92.6186 37.9843 91.6759 41.6567 91.0393 44.4022C91.0165 44.5013 90.9938 44.6004 90.971 44.6995C90.6699 45.9804 90.438 47.1879 90.184 48.575C89.6668 51.6082 88.5049 57.0803 87.4999 64.1457C87.508 64.5612 87.5375 64.927 87.5444 64.9179C87.5432 64.8984 87.5502 64.8074 87.4498 64.3011C87.0827 63.5791 88.2441 63.6368 84.5406 58.5053C83.8282 57.4911 79.7776 53.7838 75.4422 53.1564C73.4138 52.7972 71.7966 53.0893 70.84 53.2276C70.5604 53.2645 70.1779 53.3094 69.6998 53.4137C67.4161 53.9297 65.8592 54.8378 65.1008 55.325C63.4994 56.3896 63.1055 56.9339 62.7943 57.2501C62.2599 57.8595 62.4136 57.7317 62.5388 57.5196C63.5581 55.9149 65.3017 52.3804 66.8607 48.9486C67.6764 47.1766 68.5145 45.3272 69.5222 43.2592C70.0393 42.2067 70.5562 41.1553 71.371 39.7172C71.8086 38.9695 72.1826 38.2568 73.2874 36.7634C74.0293 35.9184 74.0511 35.2317 77.5124 32.6956C78.2684 32.1842 79.9027 31.1692 82.1433 30.5415C84.5959 29.6896 90.4857 29.6372 94.2502 31.8996C101.813 37.1565 99.7498 38.1366 100.839 39.3553C102.911 44.8894 102.147 45.7594 102.309 46.8537C102.319 47.843 102.285 48.6195 102.247 49.3137C102.167 50.7059 102.052 51.8728 101.929 53.0092C101.684 55.2561 101.397 57.3325 101.101 59.3779C100.511 63.4466 99.8564 67.4071 99.2925 71.1076C99.0081 72.9948 98.7604 74.7339 98.5812 76.3183C98.3201 77.6576 98.6901 80.1051 98.0629 77.231C98.0123 77.1365 97.7313 76.043 96.7993 74.6297C95.6741 73.3934 94.5354 69.6789 86.1829 68.8942C85.4906 68.8259 81.9283 68.9139 80.0764 69.9784C77.8439 71.0761 76.6744 72.206 75.8738 72.9941C74.6624 74.259 74.5179 74.6211 74.2313 75.0382C73.7818 75.7602 73.727 75.9511 73.6774 76.0642C73.603 76.2664 73.7139 76.0662 73.8192 75.8281C74.2851 74.777 74.9319 72.9243 75.5172 71.1933C76.7117 67.6441 77.913 63.8487 79.1139 60.1054C79.6698 58.38 80.2156 56.5739 80.7737 54.6958C81.0568 53.7442 81.3309 52.8096 81.6669 51.6974C81.7548 51.4067 81.8421 51.1201 81.9629 50.7346C82.023 50.5448 82.0868 50.3407 82.1992 50.0041C82.2519 49.8483 82.3214 49.6409 82.4356 49.3334C82.6727 48.8679 82.1373 49.4063 83.861 46.4707C84.2102 45.9758 84.0521 46.0417 85.265 44.6685C86.0006 43.9002 87.0298 42.8227 89.2415 41.7272C91.3588 40.6378 95.4041 39.7998 99.0872 41.0453C105.576 43.4847 106.45 47.0191 107.269 48.5664C107.97 50.3048 108.009 50.9959 108.08 51.2875C108.328 52.6981 108.293 53.319 108.305 53.5955C108.311 54.2793 108.282 54.5998 108.268 54.8185C108.233 55.2939 108.212 55.4177 108.19 55.6036C108.145 55.9759 108.088 56.3767 108.037 56.7049C107.975 57.2536 107.926 57.6674 107.871 58.1166C106.819 66.3645 105.564 75.7099 104.559 81.3602C103.907 84.9304 103.45 87.9115 103.172 90.191C103.028 91.2957 102.961 92.3688 102.864 92.5815C102.851 92.6 102.818 92.4976 102.788 92.4334C102.66 91.996 103.152 93.955 102.382 91.0456C102.172 90.4638 101.678 88.7979 99.7413 86.878C98.0262 84.9799 93.6802 83.3009 91.0339 83.5854C86.6608 83.9798 85.7628 85.2452 84.9491 85.7113C83.5113 86.8218 83.4674 87.0828 83.2192 87.3631C82.6068 88.2342 82.9985 87.879 83.1372 87.7278C85.3685 84.2335 87.9829 78.0642 89.9737 72.6671C90.9638 69.9807 91.9133 67.0719 92.8586 64.107C93.3333 62.6184 93.8068 61.1105 94.3106 59.5448C94.5639 58.7582 94.8235 57.9606 95.1116 57.1124C95.2547 56.6922 95.4039 56.2613 95.5815 55.769C95.6729 55.5155 95.7771 55.2319 95.8745 54.9791C95.9235 54.8518 95.9764 54.7168 96.0237 54.5999C96.0465 54.5545 96.0511 54.4885 96.3817 53.7061C96.6725 53.2434 96.2289 53.215 98.3195 50.8197C99.3487 49.7516 101.552 48.0589 104.845 47.8843C108.238 47.6804 111.088 49.4277 112.342 50.6793C114.977 53.5567 114.259 53.3648 114.689 54.0777C114.915 54.6094 115.059 55.0896 115.117 55.2941C115.237 55.7205 115.301 56.0323 115.352 56.3027C115.436 56.7655 115.466 57.0347 115.494 57.286C115.541 57.7346 115.56 58.073 115.576 58.3887C115.602 58.9803 115.608 59.4961 115.609 59.9618C115.609 60.9234 115.587 61.7727 115.559 62.6496C115.5 64.3545 115.411 66.0128 115.306 67.6589C115.096 70.9501 114.823 74.192 114.508 77.4299C114.205 80.6645 113.764 83.9681 113.54 86.6987C113.423 88.0399 113.371 89.6238 113.389 90.0667C113.422 90.2797 113.239 89.4176 113.238 89.428C113.062 89.1975 113.686 89.1476 111.5 86.4446C110.35 85.0212 106.724 83.0086 103.329 83.7957C100.368 84.4721 99.4568 85.6807 98.94 86.13C96.3932 89.3334 97.9641 87.6158 97.8711 87.421C98.8284 84.7904 99.7939 80.7115 100.695 76.9494C101.289 74.7375 101.043 74.2648 102.727 69.6568C102.831 69.4318 102.905 69.2097 103.324 68.4713C103.546 68.2127 103.67 67.3252 105.951 65.5595C106.506 65.1285 109.355 63.3334 112.867 64.0699C116.59 64.9236 117.832 66.9495 118.473 67.808C119.762 69.7985 119.792 71.0119 119.871 71.2612C120.233 74.2576 119.961 73.6571 119.963 74.3434C119.885 75.1852 119.799 75.7531 119.713 76.3348C119.54 77.4738 119.359 78.5016 119.174 79.5262C118.835 81.4008 118.481 83.2288 118.126 85.0375C118.039 85.4829 117.947 85.9518 117.863 86.3783C117.817 86.6141 117.774 86.8308 117.735 87.0355C117.717 87.1294 117.698 87.2273 117.691 87.2672C117.685 87.2949 117.684 87.3065 117.684 87.3014C117.685 87.2978 117.687 87.2838 117.695 87.227C117.666 87.334 117.853 86.51 117.51 88.249C117.37 88.4287 117.802 88.851 115.895 91.5945C114.982 92.8972 112.001 95.1883 108.5 94.8883C104.718 94.3944 104.554 93.6128 103.499 92.9331C100.411 90.1144 100.836 89.0941 100.576 88.7375C100.403 88.2077 100.353 87.9546 100.304 87.7289C99.8434 84.4599 100.111 85.489 100.051 84.6272C100.045 84.0748 100.047 83.5516 100.053 83.0548C100.109 79.0743 100.316 75.4193 100.517 71.7233C100.515 67.4132 100.482 63.3459 100.475 59.552C100.465 54.2247 100.51 49.4683 100.789 45.5257C101.484 35.9685 103.273 25.1648 106.83 16.0344C107.471 14.4642 107.982 13.1781 109.231 11.0641C110.775 8.60189 111.541 7.74117 113.958 5.99708C114.298 5.77471 114.741 5.47629 115.609 5.07127C115.87 5.02625 118.221 3.48207 122.429 4.37522C132.683 7.78481 130.164 16.2883 130.546 14.505C130.522 14.2894 130.635 14.3025 130.324 12.7266C129.82 11.8566 131.221 10.9757 126.251 6.64655C125.122 5.7873 122.501 4.69248 120.207 4.79013C117.926 4.81445 116.037 5.69304 115.2 6.1986C113.82 7.02695 113.182 7.73727 112.715 8.25521C110.559 11.0694 111.349 10.4395 111.091 10.8101C110.954 11.1333 110.986 11.0558 110.995 11.005C111.073 10.694 111.258 9.95297 111.413 9.28062C111.493 8.93517 111.574 8.58033 111.658 8.20941C111.701 8.02079 111.743 7.83573 111.792 7.62587C111.818 7.51609 111.844 7.40492 111.868 7.30212C111.863 7.32414 111.893 7.14842 111.769 7.7014C111.751 7.7932 111.743 7.78938 111.669 8.25332C111.756 8.95638 110.837 8.26944 112.165 13.3249C112.568 14.3926 113.776 17.5347 117.811 19.3466C121.952 21.1646 125.891 19.6377 127.312 18.724C130.297 16.7308 130.231 15.9972 130.681 15.4707C131.345 14.3956 131.153 14.6462 131.249 14.4814C131.349 14.2808 131.407 14.1531 131.452 14.0513C131.63 13.6449 131.604 13.6897 131.636 13.6135C131.173 15.3009 130.131 19.0385 129.399 21.8525C129.18 22.2041 128.951 22.5763 128.722 22.9402C125.677 27.9629 124.522 32.2176 123.838 42.3667C123.506 46.7291 123.301 51.6598 122.954 57.7765C122.729 61.7072 122.058 63.7482 121.501 65.4083C121.336 65.8978 121.182 66.3599 121.05 66.831C120.599 68.4486 120.88 70.1166 121.198 72.1638C121.609 74.8021 122.094 77.9689 121.041 82.0782C120.207 85.3237 119.527 88.2325 119.129 90.428C118.933 91.5432 118.846 92.2132 118.841 92.9445C118.609 92.7425 119.853 94.3155 117.883 89.5542C117.524 88.4053 113.686 85.3338 110.743 85.9192C108.314 86.2177 107.335 87.1892 106.964 87.438C106.05 88.1873 105.963 88.4125 105.779 88.6259C105.297 89.2824 105.443 89.1234 105.439 89.0913C105.494 88.9548 105.631 88.6083 105.74 88.2853C106.689 85.4597 106.917 82.8285 107.066 80.75C107.156 79.508 107.227 78.3829 107.416 77.2773C108.043 74.0909 109.335 69.1826 111.084 65.1844C112.397 62.0958 113.48 55.6733 114.054 50.7285C114.27 48.8578 114.899 46.4147 115.647 43.5392C116.422 40.5629 117.326 37.124 118.039 33.3582C119.858 23.8184 120.893 18.7646 122.608 13.6937C123.197 12.1672 123.461 10.8227 125.551 7.86349C125.985 7.27937 126.563 6.59877 127.237 5.95241C127.602 5.60233 127.886 5.35912 128.033 5.22821C128.648 4.64296 130.636 3.46558 131.58 3.13991C135.995 1.59238 137.769 2.25546 139.233 2.37093C140.829 2.29568 147.174 5.0014 149.143 7.80912C153.003 12.6464 152.81 16.7556 152.853 19.021C152.8 21.3777 152.549 22.7862 152.372 24.0615C151.469 29.5707 151.198 33.638 150.921 37.8048C149.109 47.8846 147.375 58.2063 144.926 68.7695C143.696 74.1614 141.098 79.3986 138.244 82.3054C135.288 85.6006 132.681 85.6066 129.875 86.0204C126.998 86.3179 124.587 82.7934 123.529 78.7222C122.466 74.4016 122.355 69.6671 123.075 64.6039C124.555 54.475 125.433 43.926 126.629 33.2276C127.006 29.9412 127.304 26.7887 127.941 23.0124C128.23 21.2754 128.551 19.584 128.66 18.6177C129.078 17.644 127.21 17.7158 130.399 22.9653C131.54 24.4068 132.888 25.3887 134.927 25.9477C135.052 25.9767 135.261 26.0866 136.313 26.1379C136.848 26.1499 137.614 26.1661 138.903 25.8629C139.546 25.7064 140.331 25.4554 141.223 25.0021C142.272 24.4966 143.458 23.4972 143.202 23.7098C146.072 20.804 144.55 22.0561 144.36 23.0547C143.531 25.2971 142.622 28.3714 141.792 31.2737C139.4 39.7754 137.028 48.6128 134.647 57.3247C134.403 58.218 134.155 59.1245 133.912 60.0188C132.621 67.7742 131.745 74.0721 130.568 80.3919C129.053 86.4292 127.845 88.4845 126.476 91.4421C125.542 93.3655 124.785 94.9126 123.738 97.2782C123.576 97.6312 123.418 97.9839 123.106 98.5855C122.951 98.8794 122.772 99.2221 122.417 99.7882C122.203 100.119 122.049 100.379 121.529 101.042C120.65 101.724 122.059 102.164 115.944 105.134C114.25 105.735 111.592 106.519 107.707 105.365C103.929 104.183 101.779 101.583 100.894 100.218C98.8933 96.926 99.1023 95.8091 98.9027 94.9829C98.6909 93.2898 98.7878 93.1869 98.7678 92.9329C98.763 92.7179 98.7598 92.4764 98.7609 92.1962C98.7631 91.6209 98.7826 91.0034 98.8081 90.4721C99.4426 82.611 100.062 74.1281 101.217 64.6423C101.727 60.5941 102.48 55.7035 103.255 50.9444C104.348 44.1058 105.616 37.684 105.777 34.2457C105.891 28.2906 108.303 20.5211 110.176 15.4964C111.096 12.9219 111.963 10.5331 112.714 8.33258C112.812 8.04772 112.903 7.78037 113.007 7.47545C113.059 7.3255 113.116 7.15915 113.185 6.96534C113.232 6.83402 113.256 6.75724 113.384 6.43298C113.409 6.37519 113.482 6.17547 113.678 5.76997C113.802 5.5489 113.488 6.02698 114.208 4.83054C115.014 4.38573 113.314 2.72146 120.815 0.668086C125.302 -0.211786 129.994 4.34457 130.39 6.11261C131.006 7.62916 130.931 7.78773 131.047 8.35263C131.363 11.5951 130.987 11.1566 130.992 11.5791C130.895 12.064 130.866 12.1411 130.847 12.2195C130.694 12.8095 130.615 13.1628 130.507 13.647C130.302 14.5723 130.146 15.4258 130.018 16.2705C129.924 16.8117 129.9 17.1786 129.52 18.2864C129.367 18.6419 129.454 18.7395 128.582 20.1939C128.271 20.6095 128.199 21.0755 126.464 22.5627C125.814 22.9925 123.541 25.2709 118.674 24.5595C113.687 23.3871 112.829 21.1003 111.925 19.7864C110.076 15.8821 110.817 16.0769 110.634 15.4654C110.603 14.9955 110.607 14.9214 110.601 14.7518C110.593 15.1649 110.655 16.0061 110.793 16.6282C111.103 17.8202 111.622 20.6766 115.567 22.9422C119.563 25.0173 122.859 23.6584 123.531 23.4009C123.961 23.2447 124.666 22.86 124.802 22.7715C125.217 22.5179 125.341 22.4133 125.469 22.314C125.703 22.1238 125.811 22.0121 125.999 21.7693C127.186 19.8657 125.648 22.2393 125.174 23.4316C124.263 25.4692 123.215 28.4023 122.331 32.6731C121.319 37.6184 120.515 41.2654 119.828 44.3584C118.872 48.7545 118.197 52.121 118.4 57.2336C118.629 62.9149 118.644 68.8323 118.117 73.4301C117.878 75.5264 117.754 77.91 117.677 80.3436C117.629 81.918 117.592 83.6729 117.599 84.8771C117.598 84.9971 117.607 85.1682 117.594 85.0337C117.585 84.9691 117.596 84.9809 117.534 84.5635C117.508 84.4175 117.517 84.384 117.387 83.8382C117.144 83.3322 118.004 84.3118 116.092 80.9724C115.436 80.144 114.693 78.6778 111.43 77.5256C108.831 76.5583 104.884 77.6214 103.319 79.1466C101.643 80.6242 101.266 81.7141 100.958 82.3806C100.128 84.755 100.541 83.8226 100.414 84.2865C100.264 85.3258 100.399 84.3946 100.389 84.4774C100.439 84.2005 100.472 84.0567 100.5 83.9212C100.616 83.3807 100.699 83.0347 100.799 82.615C100.995 81.7992 101.199 81.0129 101.415 80.2424C102.123 77.7295 103.055 75.701 103.789 74.0777C104.015 73.6002 104.226 73.0633 104.36 72.9288C104.362 72.9099 104.355 72.9068 104.357 73.1272C104.361 73.2134 104.348 73.4742 104.452 74.0633C104.526 74.2349 104.461 75.2286 105.805 77.0138C106.176 77.6805 109.016 79.9408 111.758 79.5391C114.432 79.1919 115.166 78.1768 115.479 77.9887C117.977 75.4069 116.857 76.1457 117.092 75.9429C117.113 75.8905 117.032 76.0685 117.079 75.9716C117.14 75.8586 117.033 76.1763 116.917 76.659C116.693 77.5683 116.464 78.5852 116.235 79.6153C116.245 79.9582 116.256 80.3445 116.271 80.7265C116.332 82.6881 116.421 85.1126 115.954 88.174C115.386 90.8582 115.801 91.8002 113.043 96.901C112.799 97.2764 112.378 97.9313 111.58 98.7313C110.757 99.3848 108.778 102.085 103.309 101.299C98.3707 100.114 97.3375 97.0872 96.8918 96.4327C96.3779 95.4101 96.284 94.9634 96.1775 94.6166C95.818 93.4351 95.656 91.7134 95.6594 91.0344C95.6355 89.4201 95.7562 88.2431 95.8822 87.0303C96.2891 83.2908 96.968 79.9786 97.133 76.1987C97.2587 73.6013 97.2135 70.643 97.1067 67.7346C97.027 65.5831 96.9163 63.4407 96.8097 61.6078C96.759 60.7322 96.6899 59.7256 96.6605 59.5328C96.7477 59.7301 96.2749 58.7126 97.165 61.3777C97.5865 62.0352 96.6914 61.741 99.5251 64.6927C100.844 66.0115 104.475 67.5785 107.554 66.7713C110.58 66.0427 111.943 64.3745 112.604 63.5326C114.341 60.8543 113.688 61.3572 113.818 61.2395C113.791 61.3081 113.764 61.3766 113.739 61.4393C113.647 61.6703 113.549 61.9121 113.424 62.2208C113.061 63.1142 112.468 63.936 111.883 64.7482C111.88 64.7517 111.877 64.7551 111.874 64.7586C111.834 64.8139 111.795 64.8702 111.755 64.9266C110.046 72.0138 108.197 79.8493 105.588 87.3609C105.421 88.0348 105.245 88.7177 105.058 89.4065C104.145 92.7602 103.176 95.9281 102.219 98.7502C102.082 99.142 101.888 99.6212 101.544 100.267C101.351 100.619 101.133 101 100.747 101.544C100.11 102.202 100.684 102.537 96.9676 104.908C95.649 105.433 94.4754 106.928 88.9846 106.03C83.3996 104.777 81.2429 100.076 80.9752 99.1628C80.1602 96.4861 80.5074 97.4942 80.3599 96.9938C80.2187 96.4484 80.0924 95.7986 80.0114 95.374C79.8414 94.4666 79.729 93.6678 79.6355 92.8745C79.2744 89.7341 79.2141 86.6337 79.2337 83.4483C79.2626 79.2979 79.4846 75.1365 79.5661 71.7975C79.6132 69.8477 80.2087 68.0904 80.8273 66.3016C81.4042 64.6345 82.0033 62.9278 82.1973 61.0213C82.2951 60.0615 82.3027 59.0172 82.3075 57.9156C82.3112 56.949 82.3158 55.9193 82.3672 54.913C82.3887 54.4633 82.5372 53.5879 82.6482 53.1728C82.664 53.1113 82.6745 52.9976 82.6651 53.333C82.6912 53.658 82.5191 53.279 82.8134 55.6453C82.8958 56.0493 82.7996 55.9745 83.2639 57.5158C83.8211 58.7603 84.1889 61.8421 89.6049 64.7985C92.7457 66.5113 97.8222 66.1591 100.107 64.9484C102.562 63.7962 103.55 62.6493 104.258 61.8894C105.153 60.8449 105.201 60.673 105.483 60.2457C106.366 58.7474 106.256 58.7412 106.4 58.4314C106.857 57.1454 106.553 57.8558 106.521 57.9307C106.361 58.3178 106.14 58.9446 105.913 59.592C105.344 61.216 104.677 63.1821 103.973 65.2803C102.63 70.9857 101.489 76.069 99.8426 81.9968C99.7397 83.3341 99.7339 84.6037 99.7899 85.8959C99.8188 86.8336 99.9607 87.7222 99.666 89.2905C99.5523 89.8327 99.4198 90.4384 98.8773 91.5176C98.6255 92.0185 98.2362 92.7065 97.4988 93.6233C96.6503 94.6497 94.0112 97.4337 90.0361 98.6263C85.0149 99.6657 84.3461 99.0902 82.1695 98.8392C80.4664 98.5341 78.9731 98.0054 77.6965 97.398C75.1405 96.1703 73.4195 94.6839 72.1175 93.3253C68.1578 88.8587 67.8283 86.4987 67.386 84.0867C67.2742 83.1442 67.3376 82.5125 67.4037 81.9721C67.4836 81.3689 67.5765 80.884 67.5405 80.3583C67.5151 79.9843 67.3937 79.6255 67.2552 79.202C67.0348 78.5407 66.769 77.7324 66.7948 76.691C66.9039 72.9244 67.385 69.7227 67.8369 66.6863C68.3595 63.2467 68.8713 60.1685 69.1083 57.6935C69.3626 54.9989 70.2932 50.8489 70.8368 48.1036C70.9303 47.6866 70.9888 47.2527 71.0635 47.5647C71.1475 47.669 70.9514 48.4058 71.9625 51.3347C72.2645 52.1207 72.5771 52.5802 73.1601 53.6511C73.5143 54.2746 73.9239 55.1113 75.1299 56.4359C76.4525 57.9024 79.0182 59.7715 82.2084 60.5815C85.3418 61.4387 88.7165 61.0576 90.4585 60.5442C92.05 60.1012 93.1339 59.5641 94.0191 59.0579C95.5636 58.1493 96.2572 57.472 96.7308 57.0314C99.5779 53.9429 98.3189 54.8729 98.4108 54.8362C98.2699 54.9936 98.0345 55.3629 97.8118 55.7515C96.912 57.3275 96.1112 59.6723 95.3011 61.9885C94.3334 64.7744 93.1664 67.8373 91.5473 70.1682C91.2188 70.6417 90.4966 71.0944 89.5528 71.6827C88.8831 72.0986 88.0965 72.5984 87.1884 73.2826C86.5395 74.2756 85.8839 75.3242 84.4192 76.9493C83.6336 77.7707 82.777 78.7753 80.5191 80.1702C79.6254 80.7635 76.8507 81.9631 75.1421 82.1497C75.1004 82.1365 70.2954 83.1084 66.4576 80.8052C62.8213 78.7138 61.9081 77.0096 61.1157 75.9105C58.7321 71.8813 59.1062 71.0894 58.7779 69.9276C58.581 68.866 58.5073 68.1094 58.4502 67.437C58.3415 66.0831 58.3312 65.001 58.3385 63.9964C58.2809 63.85 58.223 63.7041 58.1643 63.5619C58.1629 63.5596 58.1615 63.5574 58.1602 63.5551C56.8385 60.3055 55.2918 56.1396 57.0556 51.0965C57.5052 49.8148 58.1396 49.0427 58.7066 48.3828C59.2662 47.72 59.7616 47.1786 59.9887 46.2821C60.248 45.2556 60.1786 43.9412 60.1028 42.5735C59.9978 40.6431 59.8944 38.5116 60.7016 36.5856C60.7568 36.4534 60.8169 36.3114 60.8779 36.1646C61.4556 34.7729 62.3153 32.7261 63.6011 30.8763C63.9206 29.4191 64.2415 27.8784 64.3672 27.2027C64.3818 27.1269 64.3762 27.2119 64.3787 27.4936C64.4413 27.8907 64.1325 27.6256 64.8206 30.5149C65.1034 31.2788 65.1219 32.4036 67.2738 35.1023C69.0098 38.0249 77.1592 40.4297 80.1102 38.9981C85.7799 36.8883 85.0683 35.9391 85.7804 35.4667C86.6121 34.4892 86.5864 34.3881 86.6785 34.2486C86.824 33.9279 86.3935 34.6276 86.1051 35.1525C84.8125 37.5026 83.3391 40.49 81.9245 43.2978C79.5429 48.0432 77.1684 52.8163 74.6585 57.6936C74.02 58.9331 73.3956 60.1312 72.6806 61.4593C72.3217 62.1227 71.9596 62.789 71.4736 63.6258C71.2075 64.0746 71.0057 64.4542 70.367 65.3916C70.196 65.6341 70.0199 65.8985 69.57 66.4414C69.3617 66.6876 69.0587 67.0448 68.5326 67.5345C67.8609 68.0126 67.4885 69.0652 63.5856 70.1729C61.3999 70.8361 56.8706 70.2201 54.4744 68.1002C51.9232 65.9005 51.6939 64.72 51.1838 63.6017C50.5672 61.9322 50.563 61.2056 50.494 60.6427C50.4095 59.5984 50.4548 59.2233 50.4736 58.8321C51.294 53.1061 52.006 52.0788 52.9507 48.9044C54.8015 43.2514 57.8656 39.0329 61.0583 36.211C62.6796 34.794 64.3048 33.8336 65.8952 33.3115C66.306 33.1596 66.6552 33.1265 67.1634 32.8769C67.226 32.8526 67.3103 32.7731 67.4906 32.6152C67.5541 32.85 67.6545 31.1453 70.1639 32.3759C71.2319 33.5307 70.7354 33.7996 70.7989 33.8828C70.7042 34.1937 70.5989 34.2093 70.5063 34.2706C70.3146 34.3853 70.137 34.405 69.9572 34.4365C69.2405 34.5421 68.5529 34.4595 67.8917 34.2758C67.2307 34.0893 66.6181 33.759 66.0126 33.4339C65.8592 33.3614 65.7093 33.2683 65.5368 33.2869C65.4527 33.3245 65.346 33.2375 65.2401 33.7906C65.3976 33.9419 64.3722 34.4738 66.6411 36.8344C68.5469 38.3975 71.0542 37.211 71.3645 36.8561C71.9487 36.3778 71.8627 36.4035 71.9725 36.3048C72.2711 35.9978 72.3473 35.9104 72.412 35.8862C72.8659 35.7288 73.0125 36.1406 73.248 36.4076C74.1164 37.6068 74.7231 39.3288 75.0798 41.3555C75.8238 45.4015 75.235 50.5048 74.4156 54.7416C74.0564 56.526 73.7356 58.4177 73.5615 60.0168C73.5362 60.2583 73.462 61.1875 73.5909 60.2056C73.5564 59.7695 73.9214 60.1467 73.3278 56.8684C72.9774 55.8924 73.2246 54.4212 70.001 50.8908C68.1939 48.9809 64.6677 47.2798 61.6212 47.2417C58.4129 47.1891 56.9919 47.9195 55.7998 48.4366C51.9297 50.5416 52.3064 51.0525 51.7619 51.4996C50.5602 52.9741 50.8823 52.6835 50.7887 52.7612C50.8056 52.6198 51.2615 51.5694 51.5796 50.7425C53.0018 47.118 54.4915 43.0903 55.9758 39.1464C56.1011 38.7177 56.2291 38.2873 56.3597 37.8598C57.3331 34.6753 57.8514 31.5579 58.4343 28.3468C58.5697 27.6065 58.6938 26.8933 58.8486 26.1312Z" fill="#ABE6D0"/>
<path d="M95.6471 48.487C95.2932 48.487 94.5801 45.479 93.8643 39.1519C93.0933 32.3375 95.2771 25.9938 98.127 20.7338C101.083 15.2786 107.583 10.2674 114.542 5.71242C119.277 2.61353 124.398 2.73388 130.363 3.3505C138.635 4.2056 144.247 9.32902 147.011 13.5998C150.759 19.3904 151.052 26.6533 151.231 32.4469C151.323 35.4079 151.057 38.4174 149.639 44.5675C148.221 50.7176 145.566 59.9186 142.518 67.5781C139.47 75.2376 136.108 81.0767 132.518 86.6504C128.928 92.2241 125.213 97.3554 121.883 101.503C118.553 105.65 115.722 108.658 112.805 111.758" stroke="black" stroke-width="4" stroke-linecap="round"/>
<path d="M93.5023 27.5756C83.9474 22.2673 75.8402 20.2405 70.3952 21.5783C66.8155 22.4578 63.6741 24.7016 59.6634 28.7043C54.3071 34.0498 52.5803 41.6667 51.4194 47.5487C50.2059 53.6977 51.8457 60.7819 54.961 68.2698C56.5793 72.1597 59.3148 75.7577 64.2183 80.4145C69.1218 85.0713 76.3764 90.5566 81.9716 94.3555C87.5667 98.1544 91.2825 100.101 96.5586 102.254C101.835 104.406 108.559 106.707 115.486 109.077" stroke="black" stroke-width="4" stroke-linecap="round"/>
<path d="M33.449 91.9185C32.1997 89.9668 31.8404 81.7845 32.9074 75.4923C33.6574 71.0695 37.1916 67.4468 40.8511 64.672C44.454 61.9401 49.5133 61.8918 52.2076 62.8704C54.4278 63.6767 55.7867 65.6344 57.3014 68.1358C59.7453 72.1714 60.9663 74.2135 61.9529 76.8033C63.828 81.7255 64.0119 86.1813 64.5454 89.3153C65.1138 92.6547 65.6204 101.141 65.1754 107.187C64.8789 111.214 64.548 115.125 64.103 118.184C63.8349 120.685 63.1218 123.543 62.406 127.026C62.2263 127.838 62.0494 128.369 61.8671 129.452" stroke="black" stroke-width="4" stroke-linecap="round"/>
<path d="M33.9851 92.9909C33.2774 91.5753 31.6742 89.6075 28.9128 87.5539C22.1398 82.5169 12.0228 86.3743 7.01475 89.1357C3.51478 91.0655 2.7145 94.7603 2.26142 97.9828C1.48922 103.475 2.52147 110.664 4.13004 114.069C6.52496 119.138 14.6394 124.24 21.8967 127.656C27.0968 130.103 33.4168 131.232 38.7921 131.685C45.2183 132.133 53.792 131.779 59.7035 131.508C60.7893 131.42 61.3201 131.243 61.867 131.06" stroke="black" stroke-width="4" stroke-linecap="round"/>
</svg>
