<svg width="135" height="102" viewBox="0 0 135 102" fill="none" xmlns="http://www.w3.org/2000/svg">
<path d="M34.1318 73.6552C35.1342 74.8856 34.7329 75.5123 34.4345 75.5625C34.4288 75.559 34.4229 75.5546 34.4168 75.5496C34.3248 75.4768 34.2939 75.3389 34.0408 74.7492C33.9607 74.5705 33.8696 74.3538 33.6016 73.8528C33.2049 73.1991 33.7875 73.9484 32.2992 71.9044C28.5938 67.6044 26.3272 67.5192 24.9967 67.1012C22.4791 66.6695 23.2038 67.2888 24.8841 67.5318C25.7073 67.4022 23.2654 67.6844 22.2028 68.3765C30.0959 61.4114 37.8617 56.0634 46.032 44.0538C46.1153 43.9018 46.2002 43.7464 46.2862 43.589C48.1012 40.3527 49.4148 37.5165 51.1847 35.1066C53.3472 32.2206 55.2368 29.9913 56.7184 28.4532C60.429 23.3825 63.1492 19.5301 68.5917 13.723C71.0352 11.3343 74.0732 8.96882 76.6718 7.3195C77.2808 6.92784 77.8778 6.53928 78.071 6.43066C78.1963 6.34288 77.8693 6.61638 78.6001 6.03508C78.6922 5.99179 78.774 5.77525 80.2306 5.00479C80.4354 4.90315 80.6826 4.78763 81.0132 4.65904C81.5289 4.56224 80.8585 4.28173 84.3112 4.03162C85.8669 3.98777 88.8359 4.57818 90.9892 6.84093C93.1503 9.08056 93.5781 11.7058 93.5925 13.1335C93.529 16.0613 92.9141 16.6676 92.6842 17.2956C92.3971 17.885 92.263 18.0784 92.1287 18.2945C91.6146 19.0716 91.6095 19.0189 91.4888 19.1786C91.2735 19.4412 91.2156 19.4992 91.1044 19.6242C90.757 20.0042 90.5181 20.2459 90.2565 20.5171C89.2542 21.5476 88.3469 22.4818 87.4468 23.4513C85.2381 25.8322 83.0163 28.4351 82.1006 30.1926C80.8458 32.4916 79.9192 34.8712 78.8668 37.9374C78.4674 39.8182 78.0634 41.8316 77.4387 43.9139C76.6274 46.5964 76.504 47.847 76.0656 49.2841C75.1663 52.2692 73.6566 56.3053 72.5482 59.3648C72.37 59.8615 72.2031 60.3375 72.0547 60.7758C71.665 63.3316 71.359 65.8592 71.1143 68.4614C70.9795 68.6056 70.8423 68.7389 70.701 68.8845C68.9779 70.5052 68.5811 73.354 68.8778 75.9156C69.084 77.1117 68.9706 77.1122 69.7199 78.4516C69.9636 78.8691 70.6121 80.0863 70.4675 80.2457C70.3337 80.3983 69.9115 80.306 69.724 80.4628C69.5936 80.5306 69.474 80.5994 69.3747 80.6553C69.0495 80.8551 69.1316 80.4773 69.2867 80.0451C69.5209 79.5003 69.9853 78.8708 72.1265 79.7454C72.818 82.4882 75.7836 79.2774 76.5838 77.7013C76.8978 77.1903 77.1875 76.7218 77.5544 76.3516C78.8452 75.0925 80.6414 74.7179 82.3371 74.4242C83.6805 74.217 85.6033 72.2473 86.9015 70.47C87.393 69.7999 88.2597 69.1659 89.299 68.4002C90.3582 67.6156 91.7204 66.6345 92.6464 65.5627C94.8556 62.941 96.2172 61.0781 97.4365 59.6382C97.7725 59.2299 98.0867 58.8519 98.4044 58.4672C99.3968 57.2614 100.674 55.8666 101.953 54.4618C103.486 52.7802 105.016 51.0845 106.063 49.695C109.587 46.9683 113.059 44.4038 115.242 42.3471C115.802 41.8288 116.448 41.5414 117.131 41.5625C117.472 41.5752 117.823 41.6645 118.178 41.8807C118.51 42.4795 118.995 40.8119 119.162 44.452C119.965 51.058 125.804 51.3226 126.337 50.7302C127.255 50.2135 127.512 49.459 127.376 48.8395C127.092 47.5822 126.226 46.4165 125.82 45.0774C125.406 43.7448 125.027 42.3941 125.406 40.9639C125.604 40.2615 126.179 39.4518 127.399 38.9601C128.285 38.4063 133.522 38.7042 134.307 44.5634C134.738 49.482 134.775 49.6597 134.439 51.7427C134.11 53.4857 133.467 54.9976 132.597 56.262C129.085 61.2863 125.57 64.8286 122.25 68.3513C118.086 72.6747 114.307 76.3865 109.657 80.5184C105.826 83.8389 102.494 85.9627 98.997 88.3604C98.634 88.6037 98.267 88.8467 97.8972 89.0901C95.5546 91.6131 91.6061 94.8532 89.6759 96.0544C87.9699 97.178 86.4021 97.5853 84.9441 97.9531C83.935 98.208 82.9855 98.4443 81.9795 98.903C81.4368 99.1476 80.677 99.5126 79.5099 99.9505C78.315 100.381 76.6609 100.979 73.9872 101.2C72.9055 101.344 70.0436 101.094 69.9318 101.056C69.7213 101.046 69.5539 101.041 69.0554 100.996C67.5365 100.841 60.885 100.405 56.0514 95.4617C55.1072 94.5212 53.999 93.0811 53.4656 92.1167C52.9402 91.16 53.1912 91.3214 52.8658 90.6313C52.3542 89.4629 51.4517 87.5333 50.9178 85.5999C49.3408 79.8541 50.3532 75.9247 50.0665 74.0873C49.6694 70.8325 50.4544 67.3979 51.2135 64.7685C51.9252 62.347 52.6105 60.2258 52.4096 58.9105C52.1717 57.3315 52.6691 56.1216 53.4403 54.3403C53.9753 53.1128 54.6426 51.5981 55.3445 49.4954C56.147 47.1073 57.1226 45.2656 58.0193 43.822C59.2763 41.7953 60.2403 40.4296 60.7429 37.8615C61.3113 35.1221 61.4086 33.4957 62.4054 31.4968C62.8347 30.6478 63.2138 29.5616 63.6605 28.3805C64.2476 26.8223 64.9672 25.1096 65.9457 23.7312C66.7837 22.5422 67.7015 21.9532 68.7663 21.1285C69.093 20.8828 69.4091 20.6561 69.697 20.4492C70.3452 19.4587 70.9643 18.5992 71.5904 17.7524C71.6234 17.5652 71.6551 17.3653 71.6901 17.1572C71.8624 16.1174 72.0925 14.8469 72.7381 13.5971C73.7554 11.6256 75.2346 10.4108 76.7224 9.22237C77.0057 8.99786 77.2987 8.76403 77.5606 8.55422C77.6863 8.45541 77.814 8.3507 77.8757 8.31739C77.8658 8.35968 78.0498 8.10455 77.6039 8.74681C77.5256 8.86477 77.4238 9.01617 77.2604 9.30511C77.0952 9.65382 77.4295 8.78143 76.7004 10.5222C76.6549 11.3436 74.5434 13.5587 78.2085 18.6668C82.87 23.427 87.2861 20.7351 86.8544 21.05C89.5432 19.9767 89.0322 19.8466 89.2526 19.7661C89.3916 19.6477 89.4126 19.6178 89.3736 19.6444C88.3889 20.3545 87.5509 20.8844 86.9225 21.4021C86.0516 22.1119 85.3695 22.9106 84.74 23.7464C83.8376 24.9494 82.8783 26.4149 82.2445 26.848C82.0609 26.9483 81.5541 27.0358 81.0699 27.1098C81.0674 27.1098 81.0648 27.1098 81.0622 27.1097C81.0295 27.1144 80.9971 27.1197 80.9643 27.1249C79.4614 29.5372 77.8964 32.4048 76.4867 35.1936C76.4158 35.4699 76.3437 35.7472 76.2723 36.0223C75.9238 37.3648 75.6127 38.6655 75.6935 39.6592C75.7651 40.7591 75.0431 42.7282 74.2849 45.0153C73.7816 46.5167 73.221 48.1917 72.8181 49.7014C72.584 50.582 71.8612 51.1894 71.1049 51.8114C70.4003 52.3896 69.6559 53.0019 69.2335 53.8889C69.0239 54.3295 68.9306 54.7689 68.8085 55.2786C68.7039 55.7222 68.5911 56.1947 68.4195 56.6551C68.2586 57.0845 67.5811 57.8442 66.7035 58.8248C66.1616 59.4301 65.5436 60.1197 64.9195 60.8687C63.7713 63.1551 62.5863 65.4469 61.2062 67.8466C61.1433 68.4915 61.1777 69.1477 61.3626 69.7807C61.4972 70.2322 61.7026 70.7056 61.9146 71.1844C62.1949 71.8471 62.4786 72.538 62.5445 73.2976C62.5892 73.9005 62.3727 74.4445 62.0004 74.6545C61.8245 74.7557 61.6217 74.7799 61.4382 74.8013C61.2297 74.8236 61.031 74.8593 60.9129 75.0105C60.8275 75.1202 60.8172 75.2994 60.7978 75.5228C60.7626 75.8842 60.7078 76.3584 60.3883 76.7318C59.5707 77.6974 58.677 78.5743 57.6745 79.5595C56.5749 80.6388 55.4347 81.7423 54.5704 82.7587C53.5883 83.9053 51.8346 85.1702 49.4646 86.712C47.7091 87.8652 46.3087 88.5425 45.3634 89.1133C44.4411 89.6623 43.9609 90.3051 43.8212 90.7058C43.8912 90.9292 43.5935 91.7599 41.1524 93.3908C40.6949 93.6786 39.873 93.7908 38.812 93.8771C38.0617 93.9365 37.1846 93.9846 36.239 94.0486C33.1262 95.8767 28.3005 96.648 26.7816 96.6312C26.7304 96.6925 26.6762 96.7549 26.6205 96.8186C26.6197 96.82 26.6188 96.8215 26.618 96.8229C25.1718 98.1513 24.1777 100.703 17.642 98.4573C15.8396 97.7712 14.3253 96.6758 12.8896 95.3553C11.6267 94.155 9.37071 92.0539 7.76851 89.3622C7.03822 88.0767 5.95693 86.3999 5.24341 85.2612C4.18819 83.5583 3.33907 81.8931 3.53696 80.2146C3.55071 80.1009 3.56681 79.9789 3.58307 79.8527C3.73431 78.6588 4.05976 76.9965 4.98979 75.4579C5.14072 70.8701 6.54833 66.3487 8.06259 63.0379C10.6488 57.3782 13.8229 53.0445 17.0752 48.9628C18.6692 46.983 21.0676 45.7399 23.7321 45.5244C26.4047 45.3037 29.0946 46.1256 31.3242 47.728C33.5494 49.3395 35.1739 51.6145 35.9905 54.0566C36.8059 56.4966 36.7592 58.8694 35.9342 60.7591C34.5874 63.8287 33.4636 66.8818 32.7992 69.5745C32.7963 69.7261 32.7915 69.8794 32.7859 70.0283C32.7457 71.1307 33.1849 72.2212 33.7384 73.09C33.8652 73.2906 33.9983 73.4791 34.1318 73.6552Z" fill="#B561EC"/>
<path d="M12.4752 84.1141C12.3334 84.1141 12.1915 84.1141 20.1318 83.7595C28.0721 83.4049 44.0987 82.6958 59.0208 82.8269C73.9429 82.958 87.2748 83.9508 93.5046 84.3204C99.7343 84.69 98.4578 84.4063 97.3038 84.1893C96.1499 83.9722 95.1571 83.8304 82.5902 84.041C70.0233 84.2516 45.9124 84.8189 33.7753 85.0403C21.6382 85.2616 22.2055 85.1198 36.8225 86.1813C51.4394 87.2429 80.0888 89.5122 94.3512 90.3975C108.614 91.2829 107.621 90.7156 106.598 90.1311" stroke="black" stroke-width="4" stroke-linecap="round"/>
<path d="M12.905 82.8247C11.4867 81.4065 10.1888 79.683 8.47822 76.1932C5.36816 69.848 3.31222 63.3641 2.38173 59.2167C1.65169 55.9627 2.01427 52.6152 3.08228 49.0416C4.19391 45.322 8.7275 43.2932 13.655 42.0038C19.1245 40.5727 25.6223 43.2674 31.2031 46.5553C33.5217 48.1412 34.7982 49.5594 35.8103 51.0701C36.8225 52.5808 37.5316 54.1409 38.2623 55.7483" stroke="black" stroke-width="4" stroke-linecap="round"/>
<path d="M38.6921 57.8973C38.6921 56.6208 38.6921 55.3443 39.4721 50.8574C40.2522 46.3704 41.8123 38.7117 43.1124 33.7735C44.9693 26.7202 48.5556 21.9673 53.1973 16.6057C57.8383 11.245 64.5909 8.05948 70.7368 5.05529C76.3475 2.31269 82.3581 1.88348 87.8615 2.02316C93.0335 2.15443 95.8491 4.02811 97.3447 5.37978C100.327 8.07539 102.579 12.7441 103.654 17.6759C104.616 22.0934 103.026 28.9126 100.529 38.3421C99.0252 43.233 97.0396 48.3389 95.0239 52.6002C93.0082 56.8615 91.0226 60.1235 88.9768 63.4844" stroke="black" stroke-width="4" stroke-linecap="round"/>
<path d="M88.1172 63.0547C93.7904 59.0835 98.9822 56.1867 103.697 54.6846C108.569 53.1325 113.737 53.1696 117.957 53.3824C120.966 53.534 123.914 55.7355 127.133 59.0169C128.836 60.7525 129.359 63.7165 129.514 66.3103C129.813 71.3232 126.106 76.9195 120.68 82.7818C114.119 87.7931 108.339 90.5566 104.193 91.1303C102.175 91.2786 100.332 91.1368 98.4321 90.9906" stroke="black" stroke-width="4" stroke-linecap="round"/>
</svg>
