<svg width="158" height="158" viewBox="0 0 158 158" fill="none" xmlns="http://www.w3.org/2000/svg">
<path d="M52.168 83.3225C51.3235 80.5218 50.8941 75.8356 52.4624 70.0517C54.1733 63.7626 57.8768 59.0893 60.6885 56.3831C60.7909 56.2829 60.8935 56.1837 60.9962 56.0856C62.3305 54.8252 63.5971 53.7346 65.0929 52.6146C68.5825 50.0378 73.8901 46.8091 83.1378 45.2202C83.4294 45.1389 83.6127 45.0839 83.5075 45.1125C83.7388 45.0367 82.3159 45.4967 84.1237 44.911C85.7146 44.3411 90.5426 43.2275 95.678 46.1833C104.682 52.5305 102.794 55.3334 103.603 56.6017C104.625 61.7894 104.054 61.7474 104.081 63.0586C103.934 65.0743 103.727 66.3267 103.52 67.6199C101.383 80.443 97.2555 91.2376 96.6526 99.249C96.4655 101.344 96.4212 103.172 96.5774 105.159C96.6899 106.269 96.8905 108.479 96.9738 109.836C97.0239 110.579 97.0705 111.331 97.1071 111.965C97.1247 112.276 97.1431 112.572 97.1396 112.673C97.123 112.64 97.188 113.049 97.0343 112.225C96.9301 111.842 97.092 111.873 96.3174 109.838C96.1139 109.346 95.8384 108.744 95.3893 107.998C94.8696 107.24 94.6721 106.49 92.2829 104.415C90.1284 102.536 85.8748 100.846 82.0903 101.255C78.0063 101.741 76.9261 102.704 75.489 103.556C70.5379 107.399 71.5548 107.823 70.8962 108.616C70.5134 109.356 70.4389 109.583 70.3333 109.841C69.5482 112.201 70.1892 110.463 70.2427 110.179C70.3924 109.641 70.5519 109.014 70.7135 108.36C71.0345 107.064 71.363 105.677 71.6964 104.282C72.3655 101.479 73.0498 98.6465 73.8227 95.6738C73.8775 95.3715 73.9332 95.0665 73.9895 94.7615C74.4764 91.7586 75.9208 86.651 77.4909 83.331C79.0449 79.9048 80.5325 77.3245 81.8732 75.3293C85.228 70.419 87.605 67.4007 89.5663 64.8799C94.4139 57.259 99.1259 49.8952 101.933 42.8726C102.615 41.1624 103.142 39.4774 103.37 38.3072C103.463 37.9093 103.537 37.127 103.547 36.467C103.674 36.0383 103.019 34.075 104.012 36.6912C104.494 37.1745 104.783 40.4846 111.265 41.4711C114.263 41.6271 116.006 40.5499 117.091 39.7721C117.579 39.4144 118.414 38.5774 118.759 38.0643C120.069 36.0006 119.571 36.3093 119.605 36.3803C119.48 36.7185 119.278 37.709 119.129 38.6465C118.819 40.5836 118.581 42.6968 118.368 44.9238C117.854 50.3588 117.509 56.0311 117.269 61.6392C117.051 66.8121 116.913 72.0056 116.876 77.1491C117.095 80.1435 117.397 82.9818 117.725 85.5263C118.182 89.1071 118.713 92.1097 119.109 93.9849C119.692 97.7227 122.336 102.623 125.266 108.044C125.708 108.872 126.178 109.767 126.6 110.596C129.267 114.878 131.603 119.254 133.596 124.16C133.615 124.535 133.627 124.913 133.635 125.297C133.65 125.905 133.684 126.524 133.737 127.176C133.764 127.502 133.8 127.853 133.841 128.227C133.863 128.418 133.88 128.588 133.899 128.769C133.908 128.858 133.916 128.943 133.923 129.025C133.932 129.104 133.895 128.901 134.087 129.805C134.084 130.263 135.257 133.592 131.835 137.825C128.203 141.655 124.961 141.062 123.897 141.072C122.555 140.953 122.062 140.752 121.626 140.621C120.734 140.319 120.409 140.128 120.077 139.956C119.467 139.624 119.169 139.407 118.886 139.205C118.348 138.811 118 138.509 117.659 138.213C116.992 137.628 116.432 137.098 115.849 136.543C114.885 135.661 112.637 133.367 111.486 131.509C110.221 129.586 109.261 127.687 108.371 125.73C106.829 122.315 105.511 118.67 104.117 114.487C103.217 111.781 103.307 110.307 103.369 109.187C103.382 108.842 103.391 108.513 103.373 108.189C103.309 107.076 102.508 106.179 101.546 105.129C100.296 103.763 98.7709 102.143 98.1347 99.2649C96.0891 90.2823 92.7663 85.6521 91.3673 81.0554C90.9416 79.7478 90.6572 78.5028 90.5307 77.4451C90.5433 72.1351 92.8387 69.6269 93.9198 68.0711C95.1759 66.4557 96.4252 65.2592 97.5556 64.2676C99.3565 62.7018 101.516 58.7198 102.78 55.548C103.21 54.4168 104.405 52.6343 104.86 51.7251C105.505 50.5227 106.033 49.0157 105.864 47.9976C105.816 47.7255 105.708 47.357 105.648 47.7336C105.567 48.2691 105.925 49.693 106.111 50.0861C106.322 50.6025 106.469 50.8511 106.564 51.0386C106.613 51.1321 106.652 51.2073 106.712 51.2936C106.726 51.325 106.838 51.4287 106.88 51.4745C106.973 51.4402 106.343 51.582 109.527 52.9316C111.122 53.5536 114.417 53.8291 117.05 52.7473C119.638 51.6931 120.632 50.5457 121.47 49.6081C124.064 46.1168 123.43 45.8187 123.718 45.1878C123.837 44.6888 123.866 44.4849 123.895 44.3421C123.945 44.0826 123.962 44.0934 123.986 44.1342C124.032 44.2331 124.081 44.5265 124.137 44.8141C124.248 45.4071 124.373 46.074 124.498 46.7031C124.64 47.4202 124.784 48.1306 124.936 48.8374C125.423 51.0919 125.954 53.9943 126.576 56.7514C127.348 59.9718 128.266 63.8379 129.071 66.543C129.994 73.8749 130.879 81.249 131.742 88.6803C132.185 92.5211 131.572 96.3844 129.948 99.5385C128.347 102.631 125.707 105.173 122.887 104.972C120.089 104.828 117.407 103.985 114.966 101.757C112.543 99.5275 110.699 96.1971 109.828 92.503C108.076 85.059 106.278 77.5592 104.608 70.0096C103.616 65.4403 102.509 60.6899 101.809 55.6568C101.45 53.2527 101.116 50.8398 100.866 48.1781C100.75 46.7861 100.608 45.6002 100.655 43.2958C100.691 42.6245 100.654 42.0817 100.983 40.3751C101.445 39.3515 100.276 38.7957 104.454 33.869C105.747 32.6013 107.946 30.8556 111.699 30.3494C115.346 29.9013 117.877 31.1081 118.829 31.6366C121.018 32.9914 120.191 32.5449 120.521 32.7556C121.888 33.77 122.776 34.608 123.795 35.7625C125.17 37.3465 126.537 39.3835 127.42 42.0975C128.373 45.0504 128.268 47.4967 128.198 48.9277C128.005 52.0347 127.348 54.6153 126.496 57.0267C124.781 61.8848 122.103 65.5378 120.281 68.2175C119.869 68.8139 119.464 69.3901 119.054 69.9687C116.546 74.896 112.602 81.2829 112.807 81.5892C112.866 81.517 113.007 81.2907 113.205 80.7057C113.409 80.312 113.728 77.9101 113.656 78.0408C113.629 78.5614 113.597 78.7189 113.552 78.9297C113.464 79.2989 113.335 79.5872 113.273 80.0342C113.186 80.6364 113.221 81.4018 113.537 82.1635C113.714 82.5915 113.956 83.0954 114.353 83.8801C116.077 87.3257 119.92 94.0851 122.175 101.551C123.294 105.23 123.709 108.384 124.343 111.695C125.17 116.344 126.079 120.089 126.914 120.883C127.271 121.266 127.568 121.501 127.475 121.39C127.741 121.634 128.611 122.395 129.031 122.758C129.099 122.884 130.051 123.352 128.347 122.523C127.977 122.386 127.726 122.17 126.106 121.875C125.247 121.824 123.813 121.217 120.346 122.733C116.18 124.344 114.404 130.908 114.839 132.118C115.261 135.052 115.11 133.515 115.124 133.734C115.115 133.685 115.107 133.638 115.099 133.592C115.067 133.413 115.046 133.281 115.01 133.098C114.861 132.349 114.657 131.505 114.435 130.685C113.577 127.528 112.444 124.649 111.251 123.358C109.793 121.769 109.287 120.383 108.054 117.766C107.229 115.97 106.077 113.723 104.303 110.268C102.252 106.25 101.294 102.561 100.964 99.3555C100.595 95.1781 100.853 92.3936 100.094 88.4896C99.282 84.1606 98.9108 79.7897 99.2142 76.3534C99.3535 74.7942 99.3761 73.0138 99.4065 71.1625C99.4466 68.7134 99.5016 66.1382 99.851 63.802C100.139 61.8761 100.75 60.3009 101.294 58.9097C101.463 58.4749 101.625 58.0607 101.77 57.6554C101.834 56.1195 101.899 54.5752 101.963 53.0364C101.889 52.781 101.806 52.5136 101.721 52.236C101.294 50.8312 100.772 49.106 100.599 46.9744C100.331 43.5849 100.839 40.6627 101.533 37.389C101.813 36.0933 102.095 34.804 102.527 33.0991C102.788 32.1963 102.857 31.4219 103.833 29.3459C104.585 28.2234 104.546 26.6788 108.871 24.674C110.965 23.6292 115.551 24.3932 117.151 25.9537C118.897 27.3903 119.314 28.4137 119.716 29.1565C121.305 32.9136 120.941 33.5539 121.238 35.1377C121.417 36.5754 121.53 38.0038 121.513 39.583C121.38 44.4072 120.428 47.9028 119.403 50.2524C119.011 51.1207 118.406 51.7464 117.804 52.3485C117.801 52.3509 117.797 52.3533 117.794 52.3558C117.753 52.3962 117.713 52.4371 117.672 52.4777C115.72 58.0767 113.332 63.3384 110.963 68.3082C110.811 68.7705 110.656 69.2346 110.502 69.6919C109.746 71.9342 109.009 74.0836 108.801 75.6336C108.579 77.3131 106.95 80.9434 105.329 84.6775C104.27 87.1183 103.219 89.6236 102.63 91.5718C102.278 92.7249 101.504 93.5275 100.777 94.2875C100.097 95.0002 99.4643 95.6635 99.2806 96.5204C99.1883 96.9515 99.1982 97.444 99.2142 98.0213C99.2237 98.5504 99.2646 99.0243 99.1941 99.7973C99.131 100.5 98.65 101.886 98.037 103.792C97.6591 104.963 97.235 106.312 96.8287 107.754C96.5789 109.722 96.3402 111.68 96.0393 113.805C95.8757 114.902 95.7678 115.843 95.3887 117.54C95.2275 118.114 95.3279 118.224 94.5304 120.158C94.4293 120.388 94.1983 120.888 93.8775 121.435C93.4686 122.005 93.4839 122.615 91.017 124.783C89.5877 125.753 88.6945 127.151 83.5425 127.541C78.6635 127.796 74.4313 124.157 73.5343 122.758C71.9065 120.556 71.7204 119.415 71.4741 118.678C71.0203 116.897 71.1497 117.196 71.064 116.804C70.8813 115.773 70.8177 115.327 70.7283 114.772C70.3238 113.929 69.8526 113.3 69.2798 112.813C68.8695 112.467 68.394 112.192 67.907 111.91C67.2467 111.546 66.5499 111.058 65.9863 110.63C65.5953 110.686 65.2948 109.751 65.384 109.185C65.4231 108.906 65.5399 108.686 65.6445 108.474C65.7664 108.247 65.8736 108.029 65.8426 107.793C65.8205 107.626 65.6956 107.46 65.5443 107.245C65.3053 106.922 64.9954 106.484 64.9289 105.77C64.6819 103.143 64.7265 100.237 64.9384 97.4952C65.1696 94.4468 65.5936 91.592 65.8537 89.3426C66.111 86.9162 67.3194 82.9565 68.3736 80.3651C69.108 78.4643 69.8232 76.6097 70.3192 74.957C70.8035 73.3451 70.9717 71.6214 71.1201 69.9542C71.2959 67.9649 71.4364 66.0864 72.0569 64.6745C72.1825 64.39 72.6708 64.0966 73.2744 63.7474C73.7033 63.4938 74.191 63.2095 74.6496 62.8709C74.7903 62.0336 74.9076 61.125 74.9221 60.9661C75.0817 61.2729 74.249 59.591 75.587 64.7362C76.021 65.7578 75.9349 66.3896 78.1592 69.1195C79.9774 71.6546 86.0578 74.3863 89.0587 73.7407C90.5228 73.5855 91.4465 73.2177 92.0606 73.0219C92.3141 72.9396 91.9867 73.0439 91.9517 73.0532C91.7832 73.1035 91.6413 73.1424 91.5223 73.1745C90.9762 73.3206 90.7781 73.3665 90.5409 73.4265C90.4888 73.5002 90.451 73.5713 90.405 73.646C90.4044 73.6476 90.4038 73.6492 90.4032 73.6508C89.3972 75.3313 88.6275 77.4949 86.6146 77.2454C86.1007 77.1848 85.6258 76.8552 85.1867 76.5677C84.7564 76.2857 84.3564 76.0463 84.0584 76.1362C83.7219 76.2373 83.5716 76.6899 83.5139 77.1309C83.4196 77.7614 83.5686 78.3044 83.1042 78.1715C83.0717 78.1634 83.0363 78.1543 83.0007 78.1457C82.5824 78.2363 82.5117 77.2388 81.2148 77.8053C80.8323 77.784 80.1813 80.9638 80.5771 84.3841C81.4048 90.6047 82.91 99.2681 84.2115 106.12C84.3705 106.938 84.4894 107.789 84.4687 108.311C84.5962 108.843 83.7994 107.49 84.0243 108.181C84.1068 108.583 84.17 108.974 84.2315 109.384C84.4749 111.021 84.5161 112.671 84.304 114.215C83.8893 117.333 82.4487 119.613 80.7829 121.8C79 123.958 75.2008 123.844 71.8665 122.484C70.1649 121.788 68.5428 120.77 67.0544 119.454C66.686 119.131 66.3063 118.755 65.9528 118.388C65.7485 118.393 64.4555 115.826 64.2916 115.525C63.6341 114.251 63.2252 113.334 62.8531 112.336C60.5544 106.056 58.6894 100.336 56.784 94.4216C56.653 94.1231 56.5222 93.8167 56.3965 93.5163C55.4897 91.4762 54.0131 88.3714 52.9053 85.4671C52.6463 84.7862 52.396 84.0581 52.168 83.3225Z" fill="#FB8CA1"/>
<path d="M72.608 71.2438C73.9779 69.0178 75.3478 66.7917 82.3893 55.0282C89.4308 43.2647 102.102 22.0313 108.801 11.521C115.5 1.01068 115.843 1.86687 116.276 3.42097C117.323 7.17482 118.095 12.2345 119.556 22.379C120.623 29.7912 122.557 41.7703 123.528 49.1439C124.498 58.9148 125.012 65.3232 125.961 71.9755C126.397 74.6893 126.74 76.0592 127.093 77.4706" stroke="black" stroke-width="4" stroke-linecap="round"/>
<path d="M74.1647 72.2816C62.1781 69.713 50.1915 67.1444 39.3076 65.8213C28.4237 64.4981 19.0056 64.4981 13.1265 64.7549C7.24736 65.0118 5.19251 65.5255 3.70586 66.047C2.21921 66.5685 1.36303 67.0822 7.25773 70.7716C13.1524 74.4609 25.824 81.3104 34.8347 85.6951C43.8454 90.0798 48.8113 91.7922 53.9276 93.5565" stroke="black" stroke-width="4" stroke-linecap="round"/>
<path d="M57.041 90.4431C52.5889 96.7789 48.1367 103.115 44.2164 109.889C40.2961 116.663 37.0426 123.684 35.2809 127.729C33.1772 132.559 33.1716 134.71 33.4285 136.869C33.5459 137.856 34.199 138.514 35.3199 138.953C36.4407 139.391 38.1531 139.562 47.3402 136.825C56.5273 134.088 73.1373 128.437 90.2506 122.615" stroke="black" stroke-width="4" stroke-linecap="round"/>
<path d="M89.2129 121.058C96.7473 131.675 103.197 140.226 108.202 145.838C112.475 150.63 117.555 153.049 122.044 154.431C125.739 155.57 128.981 154.963 131.656 153.759C135.566 147.034 135.743 138.379 134.113 129.952C132.655 123.923 129.915 114.333 127.093 104.453" stroke="black" stroke-width="4" stroke-linecap="round"/>
<path d="M126.574 70.725C139.759 73.9785 152.944 77.232 155.199 83.1033C157.453 88.9747 148.378 97.3653 143.274 101.945C138.171 106.524 137.315 107.038 136.433 107.567" stroke="black" stroke-width="4" stroke-linecap="round"/>
</svg>
