<svg width="362" height="469" viewBox="0 0 362 469" fill="none" xmlns="http://www.w3.org/2000/svg">
    <ellipse cx="181" cy="454.5" rx="96" ry="14.5" fill="black" fill-opacity="0.08"/>
    <circle cx="181" cy="275" r="76" fill="#93A8B1"/>
    <circle cx="53.5" cy="359.5" r="43.5" fill="#B0E0E6"/>
    <circle cx="309.5" cy="359.5" r="43.5" fill="#B0E0E6"/>
    <path d="M0 170.977C0 147.474 21.8884 130.097 44.7785 135.428L73 142V236L49.1617 244.817C25.3252 253.633 0 235.998 0 210.583V170.977Z" fill="#B0E0E6"/>
    <path d="M362 213.023C362 236.526 340.112 253.903 317.222 248.572L289 242L289 148L312.838 139.183C336.675 130.367 362 148.002 362 173.417L362 213.023Z" fill="#B0E0E6"/>
    <rect x="171" y="46" width="20" height="59" fill="#1C3255"/>
    <circle cx="181" cy="29" r="29" fill="#B0E0E6"/>
    <path d="M26 161.178C26 120.692 51.7855 86.4739 92.1141 82.9112C114.433 80.9395 143.296 79.5002 180 79.5002C216.847 79.5002 245.991 80.9507 268.619 82.9342C309.562 86.5231 336 121.32 336 162.42V218.979C336 261.348 307.817 295.58 265.5 297.684C243.939 298.756 216.27 299.5 181 299.5C145.73 299.5 118.061 298.756 96.5003 297.684C54.1834 295.58 26 261.348 26 218.979V161.178Z" fill="#B8D0DA"/>
    <path d="M62 160.724C62 133.89 79.0135 111.095 105.706 108.332C123.766 106.463 148.27 105 180.729 105C213.326 105 238.104 106.476 256.445 108.356C283.545 111.135 301 134.306 301 161.549V220.587C301 248.673 282.389 271.504 254.353 273.176C236.776 274.224 213.093 275 181.5 275C149.907 275 126.224 274.224 108.647 273.176C80.6112 271.504 62 248.673 62 220.587V160.724Z" fill="#1C3255"/>
    <mask id="mask0_160_122" style="mask-type:alpha" maskUnits="userSpaceOnUse" x="62" y="105" width="239" height="170">
        <path d="M62 160.724C62 133.89 79.0135 111.095 105.706 108.332C123.766 106.463 148.27 105 180.729 105C213.326 105 238.104 106.476 256.445 108.356C283.545 111.135 301 134.306 301 161.549V220.587C301 248.673 282.389 271.504 254.353 273.176C236.776 274.224 213.093 275 181.5 275C149.907 275 126.224 274.224 108.647 273.176C80.6112 271.504 62 248.673 62 220.587V160.724Z" fill="#1C3255"/>
    </mask>
    <g mask="url(#mask0_160_122)">
        <rect x="100" y="153" width="33" height="73" rx="10" fill="#B0E0E6"/>
        <rect x="230" y="153" width="33" height="73" rx="10" fill="#B0E0E6"/>
        <path d="M148 222.333C148 219.388 150.388 217 153.333 217H209.667C212.612 217 215 219.388 215 222.333V222.333C215 237.061 203.061 249 188.333 249H174.667C159.939 249 148 237.061 148 222.333V222.333Z" fill="#B0E0E6"/>
        <rect x="177.379" y="73.8604" width="58.8046" height="216.567" transform="rotate(31.6151 177.379 73.8604)" fill="url(#paint0_linear_160_122)"/>
        <rect x="266.291" y="90.9302" width="30.8997" height="216.567" transform="rotate(31.6151 266.291 90.9302)" fill="url(#paint1_linear_160_122)"/>
    </g>
    <defs>
        <linearGradient id="paint0_linear_160_122" x1="206.781" y1="73.8604" x2="206.781" y2="290.427" gradientUnits="userSpaceOnUse">
            <stop stop-color="#45679F"/>
            <stop offset="0.778846" stop-color="#1C3255" stop-opacity="0"/>
        </linearGradient>
        <linearGradient id="paint1_linear_160_122" x1="281.74" y1="90.9302" x2="281.74" y2="307.497" gradientUnits="userSpaceOnUse">
            <stop stop-color="#45679F"/>
            <stop offset="0.778846" stop-color="#1C3255" stop-opacity="0"/>
        </linearGradient>
    </defs>
</svg>
