<svg width="124" height="200" viewBox="0 0 124 200" fill="none" xmlns="http://www.w3.org/2000/svg">
<path d="M48.5 181.5C49.3 167.9 57.1666 165.167 61 165.5C75.8 167.9 74.8333 182.5 72.5 189.5C70.5 184.7 66.3333 183.167 64.5 183C61.7 183 59 191.333 58 195.5C54.4 192.3 48.1001 188.298 48.5 181.5Z" fill="#9E2040"/>
<path d="M49 163C49.8585 158.135 55.0616 166.615 60 166.5C65.3103 166.377 73.1268 157.261 74 162.5C74.5156 165.594 72.2241 168.073 69.1131 169.642C71.4443 173.091 70.8214 180.798 69.5 183C65 178 60.7071 176.293 60 177C58 179 56.5 181.5 57 183.5C50.8919 180.985 52.1262 173.978 53.8901 169.8C50.7959 168.36 48.4625 166.046 49 163Z" fill="#E8EAE7"/>
<path d="M12 147L30.5 117.5L43.5 156.5L23.5 171.5L7.5 200L1.5 196.5L12 147Z" fill="#FAB54B"/>
<path d="M101 171.5L79 155.5L93.5 117.5L112.5 148L122.5 197.5L117 199.5L101 171.5Z" fill="#FAB54B"/>
<mask id="mask0_21_44" style="mask-type:alpha" maskUnits="userSpaceOnUse" x="0" y="115" width="124" height="84">
<path d="M15.5 149L5.5 199H0L7 151L29.5 115L33.5 120.5L15.5 149Z" fill="#E8EAE7"/>
<path d="M118 199H124L114 147.5L93.5 115L92 124L108.5 150L118 199Z" fill="#E8EAE7"/>
</mask>
<g mask="url(#mask0_21_44)">
<path d="M12 147L30.5 117.5L43.5 156.5L23.5 171.5L7.5 200L1.5 196.5L12 147Z" fill="#E8EAE7"/>
<path d="M101 171.5L79 155.5L93.5 117.5L112.5 148L122.5 197.5L117 199.5L101 171.5Z" fill="#E8EAE7"/>
</g>
<path d="M29.2858 121.351C22.8435 66.3332 52.9412 1 61.4974 1C70.0536 1 101.861 66.2018 94.2123 121.351C85.6561 183.043 36.6282 184.054 29.2858 121.351Z" fill="#FAB54B"/>
<mask id="mask1_21_44" style="mask-type:alpha" maskUnits="userSpaceOnUse" x="28" y="1" width="68" height="166">
<path d="M29.5 120C23.1 65.6 53 1 61.5 1C70 1 101.598 65.4701 94 120C85.5 181 36.7941 182 29.5 120Z" fill="#FAB54B"/>
</mask>
<g mask="url(#mask1_21_44)">
<path d="M52 10.5L61.5 -2L71.5 10.5C73 12.5 66.5 16 61.5 16C55.4074 16 50.5 13 52 10.5Z" fill="#D9D9D9"/>
<path d="M40.5 102.5C36.1 97.3 43.3333 88 47 85C55.3333 85.5 67.6 92.1 60 102.5C50.5 115.5 46 109 40.5 102.5Z" fill="#D9D9D9"/>
</g>
<path fill-rule="evenodd" clip-rule="evenodd" d="M50.5 81C46.5 81 37 84.6 37 97C37 106.5 44 112 50.5 112C57 112 64.1 105.8 64.5 97C64.9 88.2 59 81 50.5 81ZM42 97C41.7396 91.7307 45.2243 86.5 50.5 86.5C55.7757 86.5 59.2604 91.7307 59 97C58.7543 101.972 55.4782 106.5 50.5 106.5C45.5218 106.5 42.2457 101.972 42 97Z" fill="#9E2040"/>
<path d="M61.4974 1C56.4882 1 44.0954 23.3935 35.9742 53M61 168C51.6247 167.942 42.3458 161.145 36.093 147.5M35.9742 53C35.9742 65.7083 60.0181 74.7842 75.5 67.4865M35.9742 53C31.3737 69.7718 28.144 88.8584 28.4039 107.5M28.4039 107.5C28.4689 112.159 28.7518 116.79 29.2858 121.351C30.5151 131.848 32.9126 140.56 36.093 147.5M28.4039 107.5C31.0252 120.985 57.7702 131.813 77.5 124.3M36.093 147.5C42.6508 155.443 56.6982 160.538 69.0719 158" stroke="black"/>
</svg>
