<svg width="184" height="168" viewBox="0 0 184 168" fill="none" xmlns="http://www.w3.org/2000/svg">
<path d="M66.1383 134.5L75.1383 128.5L79.6383 142.5L76.6383 147H71.1383L66.1383 134.5Z" fill="#FBCEA5"/>
<path d="M17.1383 25C21.805 22.8333 32.3383 18.6 37.1383 19C33.9717 16.6667 28.1383 9.6 30.1383 0C33.9717 1.83333 41.7383 7.9 42.1383 17.5C42.6383 15.5 44.1383 10.9 46.1383 8.5C45.4717 8 44.2383 6.4 44.6383 4C45.1383 1 54.6383 -0.5 53.1383 6.5C52.8169 8 52.6383 9.5 49.1383 9.5C48.6383 12 47.4383 17.1 46.6383 17.5H58.1383L59.1383 9.5C57.6383 7.16667 56.1383 2.5 62.1383 2.5C69.6383 2.5 65.1383 10.5 63.1383 10.5V18C65.6383 14.5 72.1383 8 78.1383 10C76.9717 13.1667 73.5383 19.8 69.1383 21C84.9717 19 121.238 20.4 139.638 42C162.638 69 162.138 130 137.138 146C144.305 155.833 160.038 168.8 165.638 142L170.138 146C169.805 158.667 161.838 179.2 132.638 160C125.972 163.667 108.138 168.5 90.1383 158.5C88.4717 158.167 84.9383 157.5 82.1383 159.5L75.1383 148C76.1443 146.743 77.3976 145.373 78.8586 144C73.2852 132.5 70.2383 107.3 102.638 98.5C103.028 98.4715 103.439 98.4284 103.869 98.3695C98.4097 90.7463 94.6053 76.2 123.064 79C123.113 78.3533 123.138 77.6868 123.138 77C123.138 57 107.638 29.1923 69.1383 44C62.6383 46.5 59.1383 57 55.1383 57C51.393 57 44.1383 51.6 42.1383 46L28.6383 50.5L17.1383 25Z" fill="#FBCEA5"/>
<mask id="mask0_17_21" style="mask-type:alpha" maskUnits="userSpaceOnUse" x="17" y="0" width="154" height="168">
<path d="M17.1383 25C21.805 22.8333 32.3383 18.6 37.1383 19C33.9717 16.6667 28.1383 9.6 30.1383 0C33.9717 1.83333 41.7383 7.9 42.1383 17.5C42.6383 15.5 44.1383 10.9 46.1383 8.5C45.4717 8 44.2383 6.4 44.6383 4C45.1383 1 54.6383 -0.5 53.1383 6.5C52.8169 8 52.6383 9.5 49.1383 9.5C48.6383 12 47.4383 17.1 46.6383 17.5H58.1383L59.1383 9.5C57.6383 7.16667 56.1383 2.5 62.1383 2.5C69.6383 2.5 65.1383 10.5 63.1383 10.5V18C65.6383 14.5 72.1383 8 78.1383 10C76.9717 13.1667 73.5383 19.8 69.1383 21C84.9717 19 121.238 20.4 139.638 42C162.638 69 162.138 130 137.138 146C144.305 155.833 160.038 168.8 165.638 142L170.138 146C169.805 158.667 161.838 179.2 132.638 160C125.972 163.667 108.138 168.5 90.1383 158.5C88.4717 158.167 84.9383 157.5 82.1383 159.5L75.1383 148C76.1443 146.743 77.3976 145.373 78.8586 144C73.2852 132.5 70.2383 107.3 102.638 98.5C103.028 98.4715 103.439 98.4284 103.869 98.3695C98.4097 90.7463 94.6053 76.2 123.064 79C123.113 78.3533 123.138 77.6868 123.138 77C123.138 57 107.638 29.1923 69.1383 44C62.6383 46.5 59.1383 57 55.1383 57C51.393 57 44.1383 51.6 42.1383 46L28.6383 50.5L17.1383 25Z" fill="#FBCEA5"/>
</mask>
<g mask="url(#mask0_17_21)">
<path d="M56.1383 35C55.7383 32.2 58.6383 30.1667 60.1383 29.5C61.6383 29 61.1383 30.5 62.6383 33C64.1383 35.5 61.6383 38.5 60.6383 39C59.6383 39.5 56.6383 38.5 56.1383 35Z" fill="#E29352"/>
<path d="M64.6383 23C62.2383 22.6 60.305 25.5 59.6383 27C59.2383 28.2 64.1383 26.8333 66.6383 26C66.9717 25.1667 67.0383 23.4 64.6383 23Z" fill="#E29352"/>
<path d="M69.6383 28.5C64.0383 29.3 66.305 39.5 68.1383 44.5L80.6383 40.5C79.305 36.1667 75.2383 27.7 69.6383 28.5Z" fill="#E29352"/>
<path d="M84.6383 31C77.4383 31.8 75.305 24.3333 75.1383 20.5H92.1383C92.6383 23.6667 91.8383 30.2 84.6383 31Z" fill="#E29352"/>
<path d="M98.6383 32C91.8383 29.2 86.805 36.5 85.1383 40.5L105.138 45.5C105.805 42.1667 105.438 34.8 98.6383 32Z" fill="#E29352"/>
<path d="M105.138 31C99.1383 31 98.6383 24.6667 99.1383 21.5C102.338 20.3 110.805 23.3333 114.638 25C113.972 27 111.138 31 105.138 31Z" fill="#E29352"/>
<path d="M112.138 36.5C112.138 32.5 117.138 31.1667 119.638 31C122.138 31 127.638 35 127.638 39.5C127.638 44 123.638 47.5 120.638 47.5C117.638 47.5 112.138 41.5 112.138 36.5Z" fill="#E29352"/>
<path d="M123.138 52C120.738 51.6 117.472 52.8333 116.138 53.5C114.638 60 117.138 69 121.638 73C124.805 70.6667 132.138 64.3 132.138 59.5C132.138 53.5 126.138 52.5 123.138 52Z" fill="#E29352"/>
<path d="M133.638 50C130.038 45.2 133.138 40 135.138 38C137.538 37.2 143.138 46.3333 145.638 51C143.138 52.6667 137.238 54.8 133.638 50Z" fill="#E29352"/>
<path d="M132.138 71.5C132.138 77.9 137.805 79.5 140.638 79.5C145.138 79.5 149.138 76 149.138 70C149.138 64 147.638 59.5 143.138 59.5C138.638 59.5 132.138 63.5 132.138 71.5Z" fill="#E29352"/>
<path d="M128.638 82C123.438 81.6 121.138 87.1667 120.638 90L121.638 92.5C126.038 91.3 131.472 95.3333 133.638 97.5C134.305 96.5 135.638 94.1 135.638 92.5C135.638 90.5 135.138 82.5 128.638 82Z" fill="#E29352"/>
<path d="M143.638 92.5C143.638 100.1 152.305 105.333 156.638 107C158.238 107 156.972 90 156.138 81.5C151.972 82 143.638 84.9 143.638 92.5Z" fill="#E29352"/>
<path d="M122.138 128C117.738 127.2 115.972 135.333 115.638 139.5C118.038 139.1 123.305 144 125.638 146.5C127.138 144.667 130.138 140.1 130.138 136.5C130.138 132 127.638 129 122.138 128Z" fill="#E29352"/>
<path d="M135.638 135C134.838 139.4 136.305 144.167 137.138 146C142.738 144.8 148.805 133.833 151.138 128.5C150.472 127.333 148.138 125.1 144.138 125.5C139.138 126 136.638 129.5 135.638 135Z" fill="#E29352"/>
</g>
<path d="M28.6383 50.5L17.1383 25C-1.86166 28 -2.29771 39.5 2.70229 51C6.70229 60.2 21.6383 55 28.6383 50.5Z" fill="#E29352"/>
<path d="M132.138 117.5C126.138 118.833 113.238 117.6 109.638 102M109.638 102C108.972 97.6667 108.938 88.7 114.138 87.5C115.395 87.7011 117.013 88.2542 118.638 89.28M109.638 102C102.438 100.4 100.754 93.5 100.138 89.28C98.5383 78.304 114.753 77.8533 122.638 79C122.638 83.8 119.69 87.8533 118.638 89.28M121.794 92C124.227 94.8179 126.036 99.1377 125.638 105.5L135.138 103C134.738 94.2 126.076 92 121.794 92ZM121.794 92C120.809 90.859 119.722 89.9643 118.638 89.28M115.638 139.5C110.598 134.302 96.506 128.568 78.7657 144.5M74.6383 149C75.6924 147.924 77.7352 145.425 78.7657 144.5M78.7657 144.5C75.3899 137.5 71.2383 120.9 81.6383 110.5M43.1384 23C40.9717 25 37.7053 29.0669 40.1384 31.5C41.6384 33 47.1384 29 49.6384 26M7.13836 34C8.63835 34 9.13835 35 9.13835 36C9.13835 38.1541 8.13833 38.5 7.13834 38.5C5.76821 38.5 5.23893 38.2602 5.13834 36.5C5.08165 35.5078 6.11939 34 7.13836 34Z" stroke="black"/>
<path d="M82.1383 159.5L69.1383 165L72.1383 157.5L65.1383 154.5C65.5383 152.1 72.305 148.833 75.6383 147.5L82.1383 159.5ZM71.6383 147L57.6383 151.5L60.6383 144.5L54.6383 139.5C55.4383 137.9 62.4717 135.5 66.1383 134.5L71.6383 147ZM135.638 111.5L130.138 109L124.638 113L125.138 105.5L135.638 103V111.5Z" fill="black"/>
<path d="M170.728 128C175.528 128 181.061 123 183.228 120.5L182.728 136.5C182.728 141 174.928 149.4 167.728 145C158.728 139.5 164.728 128 170.728 128Z" fill="#E29352"/>
</svg>
