<svg width="182" height="153" viewBox="0 0 182 153" fill="none" xmlns="http://www.w3.org/2000/svg">
<path d="M3.78896 5.01648C2.92787 8.8914 2.28043 17.2531 1.90168 22.541C1.70441 25.2952 1.52293 27.4502 1.20082 34.8456C0.949415 40.6179 0.985551 51.6256 1.03735 64.398C1.08914 77.1703 1.3028 91.3784 1.46627 99.125C1.64784 107.729 1.84665 110.209 1.90006 113.011C1.92294 114.211 2.0603 114.958 2.11533 119.456C2.17036 123.954 2.17036 132.18 2.22378 136.631C2.28235 141.512 2.60091 142.377 2.97643 143.238C3.84785 145.236 6.15211 145.724 7.66874 146.21C9.16333 146.688 13.1445 147.129 19.7289 147.935C25.4765 148.639 29.7869 148.207 31.6677 148.369C36.4632 148.782 39.4887 148.748 42.7826 149.017C48.756 149.504 53.9461 149.719 57.8355 149.988C61.7191 150.256 66.0273 150.367 73.5699 150.957C79.0372 151.386 82.6632 151.445 86.7307 151.66C90.2609 151.847 96.7806 151.875 100.618 151.877C105.419 151.879 108.117 151.661 111.668 151.555C115.445 151.441 119.337 151.014 122.678 150.961C126.694 150.896 129.703 150.477 132.94 150.313C134.668 150.226 138.641 150.043 144.189 149.936C148.361 149.856 151.713 149.395 155.743 149.182C165.061 148.688 166.717 147.563 169.252 147.293C173.258 146.866 174.706 146.268 176.056 146.105C176.436 146.059 176.862 145.945 177.189 145.729C178.417 144.921 179.128 141.115 179.782 136.952C180.043 135.294 180.423 132.51 180.483 124.136C180.543 115.761 180.223 101.873 180.004 94.3452C179.764 86.0665 179.569 84.4443 179.515 82.7755C179.389 78.8334 179.138 74.7327 178.976 69.9659C178.843 66.0557 178.921 59.11 178.868 55.1056C178.814 51.1012 178.708 50.2466 178.653 47.6698C178.506 40.8212 178.704 35.7763 178.866 33.6835C179.362 27.2667 179.245 25.3137 179.514 23.3147C179.838 20.8983 179.892 17.8811 180.161 15.1683C180.438 12.3675 180.54 7.21777 179.52 4.42569C179.228 3.62711 177.953 4.04532 171.699 3.40436C165.762 2.79589 154.228 1.48146 137.655 1.40863C121.082 1.33579 99.8236 2.51089 84.2252 3.27649C68.6267 4.04208 59.3327 4.36257 51.5004 4.47425C43.668 4.58593 37.5788 4.47911 34.0681 4.37066C30.5573 4.26221 29.8095 4.15539 25.6319 4.10035C21.4543 4.04532 13.8696 4.04532 9.80205 4.09874C5.41403 4.25898 4.76336 4.47587 4.17095 4.79797C3.89903 5.01324 3.68537 5.33372 3.46524 5.66392" stroke="black" stroke-width="2" stroke-linecap="round"/>
</svg>
