<svg width="171" height="173" viewBox="0 0 171 173" fill="none" xmlns="http://www.w3.org/2000/svg">
<path d="M28.0996 30.5C23.6996 91.7 96.2662 71.6667 133.1 54C134.7 108.4 57.0996 104.333 18.0996 95.5C-17.1004 62.7 10.0996 38.5 28.0996 30.5Z" fill="#D0991B"/>
<path d="M28.0996 30.5C23.6996 91.7 96.2662 71.6667 133.1 54C134.7 108.4 57.0996 104.333 18.0996 95.5C-17.1004 62.7 10.0996 38.5 28.0996 30.5Z" stroke="black"/>
<path d="M134.6 50C36.5996 99.5 35.0996 30 28.5996 30C20.6239 30 16.0645 60.3966 30.5995 74C69.5995 110.5 110.1 89 134.6 50Z" fill="#FFDB24"/>
<path d="M134.6 50C36.5996 99.5 35.0996 30 28.5996 30C20.6239 30 16.0645 60.3966 30.5995 74C69.5995 110.5 110.1 89 134.6 50Z" stroke="black"/>
<path d="M15.0996 98.5C17.0996 75.3 29.5996 63.8333 35.5996 61C56.5995 143 107.433 106.167 135.6 59.5H143.1C147.6 183.5 64.0996 145.5 54.0996 145.5C44.0996 145.5 12.5996 127.5 15.0996 98.5Z" fill="#D0991B"/>
<path d="M15.1009 98.5C17.1009 75.3 33.6008 59.5 35.6008 61C56.6008 143 107.434 106.167 135.601 59.5H143.101C147.601 183.5 83.6906 146.522 64.0995 147C43.5996 147.5 12.6009 127.5 15.1009 98.5Z" stroke="black"/>
<path d="M139.599 48.5C72.0995 134 43.0995 61 35.5995 61C32.0877 61 23.5995 109.5 66.5995 116.5C109.6 123.5 134.1 98.5 139.599 48.5Z" fill="#FFDB24"/>
<path d="M139.599 48.5C72.0995 134 43.0995 61 35.5995 61C32.0877 61 23.5995 109.5 66.5995 116.5C109.6 123.5 134.1 98.5 139.599 48.5Z" stroke="black"/>
<path d="M56.0995 114.5C56.0995 100.5 63.0995 98.8333 66.5995 100C56.5995 111.5 95.5995 159 128.6 138.5C155 122.1 157.1 86.5 155.6 70L160.1 54.5C166.1 59.3 169.6 93 169.6 108.5C169.6 160.969 124.6 175.5 95.5995 172C66.5995 168.5 56.0995 132 56.0995 114.5Z" fill="#D0991B"/>
<path d="M56.0995 114.5C56.0995 100.5 63.0995 98.8333 66.5995 100C56.5995 111.5 95.5995 159 128.6 138.5C155 122.1 157.1 86.5 155.6 70L160.1 54.5C166.1 59.3 169.6 93 169.6 108.5C169.6 160.969 124.6 175.5 95.5995 172C66.5995 168.5 56.0995 132 56.0995 114.5Z" stroke="black"/>
<path d="M148.1 46.5C123.6 170.5 70.648 95.9304 66.0995 100C56.5995 108.5 78.5995 144.5 111.6 144.5C159.282 144.5 166.1 59.5 148.1 46.5Z" fill="#FFDB24"/>
<path d="M148.1 46.5C123.6 170.5 70.648 95.9304 66.0995 100C56.5995 108.5 78.5995 144.5 111.6 144.5C159.282 144.5 166.1 59.5 148.1 46.5Z" stroke="black"/>
<path d="M168.182 12.8711C146.182 -11.6289 112.043 7.78767 114.182 17.8711C117.682 34.3711 121.682 38.8711 114.182 50.3711C110.122 56.5971 118.682 58.8711 120.182 57.3711C122.682 54.8711 123.806 55.8181 124.182 56.8711C126.682 63.8711 136.682 63.6711 140.182 60.8711C142.182 59.2711 144.016 60.2044 144.682 60.8711C161.482 74.8711 168.182 58.8711 166.182 53.3711C164.644 49.142 154.494 44.3248 158.182 37.8711C160.182 34.3711 172.672 17.8711 168.182 12.8711Z" fill="#5F932D"/>
<path d="M168.182 12.8711C146.182 -11.6289 112.043 7.78767 114.182 17.8711C117.682 34.3711 121.682 38.8711 114.182 50.3711C110.122 56.5971 118.682 58.8711 120.182 57.3711C122.682 54.8711 123.806 55.8181 124.182 56.8711C126.682 63.8711 136.682 63.6711 140.182 60.8711C142.182 59.2711 144.016 60.2044 144.682 60.8711C161.482 74.8711 168.182 58.8711 166.182 53.3711C164.644 49.142 154.494 44.3248 158.182 37.8711C160.182 34.3711 172.672 17.8711 168.182 12.8711Z" stroke="black"/>
</svg>
