<svg width="421" height="422" viewBox="0 0 421 422" fill="none" xmlns="http://www.w3.org/2000/svg">
<path d="M4.29833 242.494C-10.1317 166.454 26.5483 107.634 32.2783 98.7636C76.8583 29.7336 163.928 -7.46643 247.238 9.72357C357.158 32.4036 397.818 136.814 401.148 145.824C408.038 164.464 436.098 248.454 387.158 325.164C341.758 396.324 256.078 420.494 187.458 411.654C97.8283 400.114 20.9383 330.174 4.29833 242.484V242.494Z" fill="#FCDB00"/>
<path d="M3.55825 242.633C1.07825 229.343 -0.111754 215.824 0.0082462 202.294C0.0882462 195.524 0.508248 188.763 1.17825 182.013C1.87825 175.273 2.92825 168.563 4.25825 161.893C6.93825 148.573 10.7782 135.443 15.8282 122.723C18.3782 116.373 21.1982 110.123 24.3782 104.013C25.9782 100.973 27.6482 97.9035 29.4882 94.9935L32.2182 90.6035C33.1182 89.1335 34.1383 87.7435 35.0983 86.3135C42.8883 74.9235 51.9382 64.3534 62.0182 54.8334C72.0983 45.3134 83.2482 36.9235 95.0882 29.6735C106.998 22.5435 119.558 16.4334 132.668 11.8434L137.588 10.1335L142.558 8.59345L145.048 7.82355L147.568 7.15351L152.598 5.82355C159.358 4.25355 166.148 2.81354 173.028 1.93354C176.448 1.37354 179.908 1.11348 183.358 0.753484C185.078 0.593484 186.818 0.523508 188.538 0.403508C190.268 0.303508 191.988 0.153499 193.718 0.143499C197.178 0.0534986 200.638 -0.0564868 204.098 0.0335132C205.828 0.0735132 207.558 0.0334986 209.278 0.143499L214.458 0.433538C216.188 0.503538 217.898 0.703469 219.618 0.863469C221.338 1.03347 223.058 1.16348 224.768 1.37348L229.898 2.06354C230.748 2.18354 231.608 2.28353 232.458 2.42353L235.008 2.86347L240.098 3.75348L245.148 4.84345C248.528 5.49345 251.828 6.50345 255.158 7.34345C281.688 14.5934 306.538 27.2835 327.928 44.1335C349.428 60.8935 367.668 81.4934 382.588 104.213C386.338 109.893 389.808 115.743 393.088 121.703C396.398 127.653 399.468 133.743 402.238 140.013C402.918 141.593 403.598 143.164 404.238 144.794C404.858 146.384 405.458 147.983 406.048 149.593C407.228 152.803 408.328 156.044 409.368 159.304C411.438 165.824 413.238 172.423 414.758 179.103C417.808 192.453 419.708 206.103 420.438 219.863C420.748 226.753 420.758 233.664 420.458 240.574C420.088 247.484 419.328 254.383 418.298 261.253C413.958 288.703 403.148 315.333 386.878 338.093C370.788 361.053 349.078 379.923 324.708 393.633L320.108 396.154C318.578 396.993 316.988 397.734 315.438 398.534C312.338 400.154 309.118 401.523 305.938 402.983C299.498 405.693 292.978 408.233 286.328 410.353C279.678 412.483 272.948 414.344 266.138 415.814C259.328 417.314 252.468 418.573 245.548 419.393C242.098 419.874 238.628 420.143 235.158 420.493C231.678 420.713 228.208 421.003 224.728 421.083C221.248 421.243 217.768 421.243 214.278 421.243C210.798 421.143 207.308 421.103 203.838 420.853C196.878 420.463 189.928 419.753 183.048 418.633L177.878 417.804L172.758 416.753C169.328 416.103 165.968 415.203 162.588 414.373C149.098 410.893 136.058 405.863 123.618 399.784C120.478 398.314 117.468 396.603 114.408 394.983C112.868 394.193 111.408 393.263 109.908 392.393C108.428 391.503 106.928 390.643 105.458 389.733C99.6282 386.023 93.8783 382.203 88.4183 378.003C77.4382 369.693 67.2682 360.393 58.0682 350.263L54.6283 346.453L51.3282 342.534C49.0982 339.954 47.0482 337.214 44.9582 334.523C43.8982 333.194 42.9183 331.794 41.9183 330.414L38.9382 326.273L36.1082 322.023C35.1682 320.613 34.2082 319.203 33.3382 317.743C26.1482 306.203 19.8782 294.124 14.8982 281.534C13.7382 278.354 12.4082 275.243 11.3782 272.013L9.74825 267.213L8.31825 262.353C7.30825 259.123 6.52825 255.834 5.68825 252.564C5.23825 250.934 4.92825 249.273 4.58825 247.613L3.55825 242.654V242.633ZM5.02825 242.353C6.40825 248.913 7.90825 255.453 9.94825 261.843L11.4782 266.633L13.1982 271.353C14.2782 274.523 15.6582 277.584 16.9282 280.674C17.5582 282.224 18.3282 283.713 19.0182 285.243C19.7382 286.753 20.4082 288.284 21.1682 289.773L23.4882 294.223L24.6582 296.444L25.9182 298.613L28.4282 302.953C29.2782 304.393 30.1982 305.784 31.0882 307.194C32.8382 310.034 34.7782 312.753 36.6882 315.483C44.3782 326.393 53.3283 336.334 62.9482 345.444C72.5583 354.584 83.0782 362.683 94.1382 369.833C99.6282 373.473 105.358 376.713 111.128 379.833C114.058 381.313 116.968 382.813 119.928 384.213C122.908 385.563 125.848 387.013 128.888 388.213L133.408 390.103L137.988 391.833C141.018 393.043 144.138 394.004 147.228 395.054C148.758 395.604 150.338 396.033 151.898 396.503L156.578 397.893C159.738 398.663 162.868 399.543 166.048 400.243C169.228 400.923 172.388 401.684 175.598 402.184L180.388 403.023L185.208 403.694C191.628 404.614 198.098 405.143 204.588 405.383C211.078 405.643 217.578 405.613 224.068 405.284C227.318 405.184 230.548 404.863 233.788 404.633C237.018 404.273 240.258 403.993 243.468 403.503C256.348 401.803 269.058 398.923 281.418 395.013C287.608 393.083 293.668 390.774 299.648 388.304C305.578 385.714 311.458 383.014 317.138 379.914C322.798 376.794 328.378 373.514 333.668 369.814C336.378 368.044 338.908 366.053 341.528 364.154L345.308 361.133L347.198 359.623L349.028 358.034L352.678 354.853L356.198 351.534L357.958 349.873L359.648 348.143L363.028 344.674L366.258 341.064L367.878 339.263L369.418 337.393L372.498 333.654L375.408 329.784C390.898 309.034 401.378 284.714 406.458 259.154C407.678 252.754 408.648 246.283 409.258 239.773C409.858 233.253 410.188 226.703 410.218 220.123C410.188 206.973 409.018 193.773 406.718 180.733C405.568 174.213 404.128 167.743 402.438 161.333C401.588 158.133 400.678 154.944 399.678 151.784C399.178 150.204 398.648 148.634 398.108 147.074C397.578 145.544 396.988 144.003 396.388 142.463C393.958 136.323 391.198 130.253 388.178 124.333C385.118 118.423 381.858 112.613 378.318 106.963C371.288 95.6334 363.298 84.8935 354.378 74.9835L352.718 73.1135L350.998 71.3035L347.558 67.6835L343.988 64.1936C342.798 63.0336 341.618 61.8535 340.358 60.7535L336.658 57.4035C335.438 56.2635 334.118 55.2535 332.848 54.1835C331.558 53.1335 330.298 52.0435 328.988 51.0235L325.018 47.9935C303.818 31.8735 278.998 20.8635 253.228 15.3935C249.988 14.7735 246.788 13.9935 243.518 13.5635L238.638 12.8135L233.738 12.2535L231.288 11.9735C230.468 11.8835 229.648 11.8435 228.828 11.7735L223.918 11.4035C222.278 11.2935 220.638 11.2734 218.998 11.2034C217.358 11.1534 215.718 11.0534 214.078 11.0834C200.968 10.9734 187.858 11.9834 175.008 14.3334C173.398 14.6234 171.788 14.8934 170.188 15.2134L165.408 16.2535L163.018 16.7735L160.648 17.3635L155.898 18.5535L151.198 19.9135L148.848 20.5935L146.518 21.3435L141.868 22.8435L137.268 24.5035L134.968 25.3334L132.698 26.2435L128.158 28.0535L123.678 30.0135C122.188 30.6635 120.688 31.3135 119.238 32.0435L114.838 34.1635C113.378 34.8835 111.948 35.6635 110.498 36.4035C107.578 37.8535 104.788 39.5435 101.938 41.1335C79.4983 54.3435 59.1082 71.3635 42.8282 92.0235C41.8282 93.3235 40.7682 94.5835 39.8083 95.9135L36.8982 99.8935C34.9382 102.534 33.1782 105.264 31.4282 108.064C27.9582 113.654 24.7782 119.474 21.8682 125.434C16.0682 137.364 11.3482 149.884 7.98825 162.794C4.56825 175.694 2.61825 189.003 2.05825 202.383C1.77825 209.073 1.98825 215.783 2.42825 222.473C2.92825 229.163 3.89825 235.803 5.05825 242.404L5.02825 242.353Z" fill="#0E2980"/>
<path d="M129.178 138.734C126.608 146.064 125.068 153.754 124.648 161.514C117.948 151.824 110.858 141.764 100.448 136.234C90.0485 130.704 75.3185 131.364 68.3985 140.894C57.5885 155.764 67.6985 175.534 77.5485 187.944C87.1585 200.044 100.038 209.463 114.528 214.843C118.828 216.443 122.728 216.814 126.318 216.234C135.098 214.814 142.168 206.543 148.048 200.473C168.888 178.953 185.748 146.353 177.488 115.703C174.268 103.743 162.298 100.804 151.988 106.544C146.558 109.564 142.358 114.394 138.858 119.534C134.808 125.474 131.558 131.954 129.178 138.734Z" fill="#FF55AB"/>
<path d="M129.788 138.944C129.158 140.764 128.598 142.614 128.108 144.474C127.648 146.344 127.248 148.224 126.938 150.124C126.658 152.024 126.408 153.934 126.288 155.844C126.168 157.764 126.108 159.673 126.168 161.583C126.198 162.403 125.558 163.084 124.738 163.114C124.258 163.134 123.828 162.914 123.548 162.574L123.388 162.374C120.938 159.344 118.418 156.394 115.758 153.644C113.118 150.884 110.368 148.304 107.448 146.114C104.548 143.904 101.518 142.084 98.3981 140.734C95.4281 139.434 92.2281 138.754 89.0581 138.504C82.7081 138.114 76.5381 139.863 73.1981 143.953C71.3181 146.213 69.8581 148.914 69.1181 151.924C68.3481 154.944 68.2181 158.314 68.6381 161.774C69.5081 168.724 72.3981 175.864 76.3681 182.254C80.3481 188.684 85.4681 194.453 91.3881 199.214C97.2881 203.993 103.968 207.804 111.038 210.394C112.768 211.054 114.638 211.664 116.338 212.134C118.028 212.564 119.708 212.814 121.348 212.844C122.978 212.854 124.588 212.663 126.058 212.214C127.498 211.803 128.888 211.144 130.248 210.274C135.678 206.794 140.318 200.664 145.468 194.864C150.338 189.254 154.758 183.254 158.518 176.914C166.008 164.254 171.288 150.404 172.558 136.414C172.658 134.664 172.888 132.914 172.818 131.174C172.808 129.434 172.888 127.674 172.658 125.944C172.478 124.214 172.438 122.454 172.068 120.754C171.758 119.084 171.528 117.124 171.188 115.994C170.438 113.444 169.158 111.394 167.068 109.974C166.018 109.274 164.778 108.714 163.378 108.384C161.968 108.104 160.448 108.024 158.868 108.134C155.718 108.464 152.418 109.644 149.418 111.624C146.388 113.554 143.628 116.154 141.178 119.064C136.238 124.884 132.348 131.703 129.778 138.964L129.788 138.944ZM128.558 138.514C131.138 131.114 134.418 123.954 138.538 117.134C140.618 113.734 142.958 110.364 145.958 107.364C148.928 104.374 152.678 101.814 157.088 100.304C159.308 99.5936 161.688 99.1936 164.158 99.1636C166.638 99.2036 169.198 99.6535 171.658 100.624C174.118 101.604 176.368 103.204 178.238 105.124C180.158 107.044 181.498 109.344 182.558 111.694C183.608 114.204 183.998 116.104 184.558 118.214C185.168 120.284 185.438 122.414 185.748 124.534C186.128 126.654 186.178 128.794 186.308 130.934C186.498 133.084 186.358 135.204 186.268 137.344C185.828 145.864 183.888 154.184 180.898 161.964C177.918 169.754 173.938 177.034 169.348 183.804C164.738 190.564 159.558 196.874 153.818 202.634C153.118 203.344 152.368 204.104 151.688 204.754L149.598 206.754C148.178 208.114 146.678 209.483 145.118 210.833C142.018 213.543 138.518 216.184 134.338 218.074C132.268 219.024 129.968 219.734 127.588 220.034C125.248 220.364 122.928 220.274 120.688 219.914C118.458 219.564 116.328 218.924 114.338 218.104C113.318 217.684 112.458 217.254 111.528 216.824C110.608 216.414 109.718 215.944 108.808 215.504C101.648 211.824 94.9881 207.364 88.8981 202.254C82.8081 197.134 77.2881 191.364 72.3681 185.054C69.9281 181.884 67.5981 178.574 65.5581 175.024C63.5081 171.474 61.6981 167.694 60.4781 163.544C59.2581 159.424 58.5981 154.894 59.1181 150.224C59.6381 145.554 61.3881 140.924 64.2581 137.024C65.7381 134.924 67.6581 133.174 69.7081 131.694C71.8081 130.304 74.0481 129.124 76.3781 128.424C76.9581 128.214 77.5381 128.044 78.1181 127.914C78.6981 127.774 79.2881 127.624 79.8781 127.504C81.0581 127.354 82.2381 127.114 83.4081 127.074C85.7581 126.844 88.0781 127.053 90.3581 127.333C94.8981 128.033 99.2781 129.624 103.138 132.054C106.838 134.444 110.068 137.354 112.768 140.524C118.248 146.854 121.978 153.894 125.928 160.614L123.148 161.404C123.418 159.434 123.708 157.484 124.078 155.544C124.448 153.604 124.828 151.674 125.308 149.774C125.758 147.864 126.248 145.964 126.818 144.094C127.348 142.214 127.938 140.344 128.598 138.504L128.558 138.514Z" fill="#0E2980"/>
<path d="M287.178 138.734C289.748 146.064 291.288 153.754 291.708 161.514C298.408 151.824 305.498 141.764 315.908 136.234C326.308 130.704 341.038 131.364 347.958 140.894C358.768 155.764 348.658 175.534 338.808 187.944C329.198 200.044 316.318 209.463 301.828 214.843C297.528 216.443 293.628 216.814 290.038 216.234C281.258 214.814 274.188 206.543 268.308 200.473C247.468 178.953 230.608 146.353 238.868 115.703C242.088 103.743 254.058 100.804 264.368 106.544C269.798 109.564 273.998 114.394 277.498 119.534C281.548 125.474 284.798 131.954 287.178 138.734Z" fill="#FF55AB"/>
<path d="M287.788 138.514C288.458 140.354 289.068 142.214 289.608 144.094C290.188 145.964 290.688 147.864 291.148 149.774C291.638 151.684 292.018 153.614 292.398 155.544C292.778 157.484 293.068 159.444 293.338 161.414L290.368 160.574C294.298 153.844 298.038 146.794 303.498 140.424C306.198 137.234 309.428 134.314 313.118 131.844C316.978 129.354 321.378 127.684 325.968 126.904C328.278 126.584 330.628 126.334 333.018 126.514C334.208 126.524 335.418 126.744 336.618 126.884C337.218 126.994 337.818 127.134 338.418 127.264C339.018 127.384 339.618 127.544 340.218 127.744L342.008 128.324L343.768 129.083C344.058 129.213 344.358 129.334 344.638 129.484L345.488 129.953C346.048 130.273 346.628 130.584 347.178 130.934C349.358 132.404 351.418 134.164 353.058 136.304C353.518 136.824 353.838 137.323 354.198 137.833C354.558 138.333 354.898 138.854 355.208 139.404C355.868 140.464 356.438 141.584 356.958 142.734C358.008 145.024 358.708 147.474 359.118 149.914C359.968 154.824 359.578 159.684 358.568 164.124C356.468 173.054 352.158 180.574 347.238 187.314C342.258 194.034 336.398 200.064 329.828 205.124C326.538 207.654 323.058 209.914 319.438 211.884C315.828 213.884 312.058 215.574 308.208 216.974C307.238 217.314 306.288 217.684 305.308 217.974C304.308 218.284 303.408 218.584 302.308 218.884C300.178 219.454 297.948 219.834 295.688 219.904C293.428 219.984 291.148 219.794 288.948 219.214C286.708 218.654 284.638 217.734 282.778 216.644C279.048 214.424 276.048 211.594 273.268 208.734C271.868 207.314 270.538 205.844 269.228 204.404L265.268 200.083C259.948 194.253 254.978 188.124 250.358 181.664C245.768 175.194 241.458 168.394 238.048 160.994C234.608 153.624 232.108 145.614 231.288 137.244C231.108 135.154 230.868 133.054 230.978 130.934C231.008 128.814 230.998 126.704 231.328 124.594C231.578 122.484 231.798 120.374 232.358 118.314C232.868 116.214 233.218 114.303 234.218 111.833C235.218 109.523 236.518 107.243 238.378 105.333C240.188 103.423 242.398 101.834 244.818 100.844C247.228 99.8635 249.758 99.3835 252.218 99.3335C254.668 99.3535 257.028 99.7436 259.238 100.444C263.618 101.924 267.358 104.454 270.328 107.434C273.318 110.414 275.648 113.774 277.738 117.164C281.858 123.974 285.158 131.104 287.798 138.484L287.788 138.514ZM286.558 138.944C284.038 131.654 280.178 124.814 275.238 118.984C272.798 116.074 270.028 113.464 266.998 111.514C263.988 109.524 260.688 108.314 257.508 107.964C255.908 107.844 254.368 107.904 252.938 108.184C251.518 108.504 250.248 109.034 249.148 109.724C246.968 111.134 245.568 113.214 244.718 115.824C244.328 116.994 244.058 118.954 243.698 120.634C243.278 122.344 243.198 124.114 242.948 125.864C242.658 127.604 242.698 129.384 242.578 131.154C242.428 132.924 242.568 134.704 242.578 136.494C243.088 150.734 246.928 165.744 254.478 179.044C258.228 185.694 262.868 191.864 268.148 197.404C269.428 198.794 270.848 200.184 272.198 201.564C273.568 202.934 274.948 204.264 276.348 205.534C279.158 208.064 282.168 210.284 285.338 211.694C286.908 212.424 288.528 212.874 290.118 213.024C291.718 213.224 293.378 213.124 294.978 212.844C296.588 212.544 298.178 212.024 299.718 211.354C300.458 211.034 301.348 210.584 302.168 210.194C303.008 209.814 303.818 209.354 304.638 208.934C307.898 207.194 311.018 205.244 314.028 203.164C317.018 201.044 319.868 198.764 322.578 196.354C328.008 191.534 332.798 186.034 336.718 180.004C338.668 176.994 340.428 173.883 341.838 170.714C343.278 167.563 344.368 164.333 345.008 161.203C345.648 158.063 345.778 155.024 345.338 152.254C345.128 150.864 344.708 149.554 344.198 148.284C343.928 147.654 343.648 147.024 343.298 146.424C343.138 146.114 342.958 145.814 342.758 145.524C342.568 145.234 342.378 144.903 342.188 144.703C341.998 144.473 341.818 144.234 341.638 143.994C341.458 143.754 341.208 143.574 341.008 143.344C340.628 142.864 340.088 142.534 339.628 142.114C339.368 141.934 339.088 141.774 338.818 141.594L338.418 141.324C338.278 141.244 338.118 141.174 337.968 141.104L337.078 140.644L336.108 140.274C333.518 139.254 330.428 138.924 327.318 138.994C324.198 139.164 321.018 139.774 318.058 141.004C314.928 142.274 311.898 144.074 308.998 146.274C306.078 148.444 303.318 151.014 300.668 153.764C298.008 156.504 295.488 159.454 293.028 162.484L292.858 162.694C292.308 163.374 291.318 163.474 290.638 162.924C290.238 162.604 290.038 162.114 290.058 161.644C290.128 159.734 290.058 157.824 289.948 155.904C289.838 153.994 289.598 152.084 289.328 150.184C289.028 148.284 288.638 146.404 288.188 144.524C287.708 142.664 287.158 140.814 286.548 138.984L286.558 138.944Z" fill="#0E2980"/>
<path d="M322.978 233.404C325.038 293.534 280.288 345.704 221.088 352.824C161.048 360.054 104.588 318.744 93.3081 258.764C120.038 264.544 159.408 269.904 206.558 265.174C257.338 260.084 297.238 245.284 322.978 233.394V233.404Z" fill="#0E2980"/>
<path d="M323.318 232.854C323.598 234.544 324.048 236.644 324.228 238.804C324.358 240.694 324.428 242.483 324.508 244.333C324.538 246.173 324.508 248.014 324.508 249.864C324.448 251.704 324.288 253.544 324.178 255.394C323.568 262.774 322.198 270.134 320.038 277.284C315.768 291.614 308.508 305.164 298.878 316.814C294.058 322.634 288.688 328.034 282.808 332.814C276.938 337.604 270.598 341.864 263.848 345.324C257.108 348.804 249.998 351.574 242.678 353.474C239.018 354.434 235.328 355.224 231.608 355.814C227.888 356.384 224.148 356.764 220.408 356.984C212.928 357.414 205.448 357.084 198.088 356.174C190.738 355.204 183.488 353.684 176.448 351.554C162.338 347.374 148.978 340.884 136.928 332.404C124.868 323.944 114.098 313.414 105.528 301.114C96.9284 288.844 90.7484 274.704 87.6284 259.854C86.9784 256.774 88.9584 253.744 92.0384 253.094C92.7884 252.934 93.5384 252.934 94.2584 253.064L94.5384 253.124C113.478 256.754 132.668 258.944 151.878 259.634C156.678 259.824 161.488 259.954 166.288 259.974C168.688 259.974 171.088 260.024 173.498 259.994L180.708 259.884L187.908 259.664C190.308 259.584 192.708 259.414 195.108 259.304C197.508 259.224 199.908 259.014 202.308 258.864L205.908 258.614L209.498 258.274C211.888 258.034 214.298 257.904 216.688 257.614L223.868 256.814C228.638 256.184 233.418 255.534 238.178 254.754L241.758 254.203L245.328 253.583C247.708 253.173 250.088 252.764 252.458 252.274C254.828 251.784 257.208 251.364 259.558 250.824C261.918 250.314 264.298 249.854 266.658 249.294C269.018 248.734 271.378 248.204 273.728 247.624L280.778 245.824L287.818 243.934C290.148 243.254 292.498 242.604 294.828 241.894C299.508 240.524 304.158 239.064 308.798 237.534C311.128 236.794 313.438 236.003 315.758 235.203L317.498 234.624C318.168 234.384 318.858 234.144 319.528 233.934C320.888 233.504 322.178 233.184 323.328 232.844L323.318 232.854ZM322.638 233.964C321.558 234.634 320.618 235.324 319.738 235.904C319.298 236.194 318.868 236.464 318.418 236.734L316.788 237.614C314.618 238.784 312.428 239.924 310.218 241.034C305.818 243.284 301.328 245.334 296.818 247.374C294.558 248.374 292.268 249.304 289.988 250.274L283.088 253.034C280.778 253.934 278.438 254.744 276.108 255.604C273.768 256.434 271.418 257.204 269.068 258.004C266.718 258.804 264.338 259.514 261.968 260.264C259.598 261.014 257.188 261.624 254.798 262.314C252.408 263.004 249.998 263.604 247.588 264.214L243.968 265.134L240.328 265.974C230.618 268.164 220.798 269.934 210.908 271.254L207.198 271.744L203.478 272.144C200.998 272.394 198.518 272.704 196.028 272.884C193.538 273.064 191.048 273.284 188.558 273.424L181.078 273.804L173.588 273.953C171.088 273.983 168.598 273.953 166.098 273.953C161.108 273.853 156.118 273.694 151.138 273.374C141.178 272.694 131.248 271.654 121.388 270.164C111.538 268.654 101.748 266.744 92.0584 264.444L98.9684 257.714C101.208 271.264 105.738 284.504 112.538 296.694C119.348 308.864 128.538 319.894 139.658 328.694C150.768 337.484 163.788 343.974 177.538 347.484C191.308 350.984 205.728 351.294 219.478 348.924C222.918 348.334 226.318 347.604 229.678 346.694C233.028 345.804 236.348 344.804 239.588 343.624C246.078 341.264 252.358 338.444 258.368 335.134C264.368 331.804 270.138 328.073 275.548 323.833C280.938 319.573 285.998 314.884 290.608 309.764C299.848 299.524 307.358 287.654 312.728 274.744C315.398 268.284 317.578 261.574 319.168 254.664L320.238 249.453C320.528 247.703 320.858 245.944 321.128 244.184L321.808 238.884C321.948 237.434 322.368 235.914 322.608 234.004L322.638 233.964Z" fill="#0E2980"/>
<path d="M198.498 318.674C183.898 323.674 171.668 330.433 161.708 337.343C181.608 346.673 204.248 350.473 227.288 346.963C251.308 343.313 272.548 332.213 289.078 316.373C266.618 310.383 233.938 306.514 198.498 318.664V318.674Z" fill="#FF55AB"/>
</svg>
