<svg width="429" height="416" viewBox="0 0 429 416" fill="none" xmlns="http://www.w3.org/2000/svg">
<path d="M7.8299 211.91C8.7399 191.44 12.8599 98.4499 90.5099 42.7399C153.64 -2.55006 224.12 6.38989 248.23 10.9399C260.29 13.2099 358.15 33.4299 402.14 127.96C407.18 138.79 445.97 225.95 398.32 309.85C348.58 397.43 247.08 406.75 217.7 407.79C207.07 408.16 84.8199 410.61 30.7199 321.3C4.86985 278.61 6.7899 235.14 7.8299 211.91Z" fill="#FCDB00"/>
<path d="M7.07996 211.88C7.33996 205.14 7.80992 198.39 8.53992 191.68C9.21992 184.96 10.1899 178.27 11.3499 171.6C12.5099 164.94 13.95 158.32 15.57 151.74C17.23 145.17 19.17 138.66 21.33 132.22C25.69 119.35 31.1699 106.8 37.8599 94.83C44.6399 82.93 52.59 71.5801 61.84 61.2801C71.14 51.0401 81.5899 41.7801 92.9699 33.7801C98.7099 29.8501 104.64 26.18 110.78 22.88C116.96 19.65 123.27 16.67 129.76 14.11C155.76 3.88001 183.89 -0.239967 211.52 0.880033C218.44 1.14003 225.33 1.77997 232.17 2.68997C235.59 3.13997 239.01 3.68007 242.41 4.29007C245.81 4.90007 249.18 5.58006 252.6 6.41006C266.08 9.75006 279.04 14.36 291.56 19.96C316.57 31.15 339.75 46.31 359.48 65.14C369.33 74.56 378.38 84.83 386.22 95.98L389.12 100.19C389.6 100.9 390.1 101.59 390.56 102.3L391.91 104.47C393.72 107.36 395.57 110.22 397.19 113.22L399.7 117.67C400.52 119.17 401.24 120.71 402.03 122.22L404.35 126.78C405.1 128.32 405.81 129.88 406.5 131.45C409.25 137.71 411.65 144.09 413.78 150.57C415.95 157.03 417.85 163.59 419.46 170.23C421.06 176.87 422.43 183.57 423.5 190.33C424.54 197.1 425.31 203.92 425.76 210.77C426.58 224.48 426.21 238.34 424.18 252.05C423.26 258.92 421.78 265.7 420.11 272.45C418.23 279.14 416.2 285.81 413.58 292.26C408.53 305.25 401.84 317.59 393.93 329.11C385.95 340.6 376.53 351.1 366.13 360.47C355.74 369.88 344.19 377.93 332.06 384.86C330.56 385.76 329 386.54 327.46 387.37C325.91 388.17 324.39 389.04 322.82 389.79C319.68 391.32 316.56 392.87 313.36 394.25C310.19 395.71 306.95 396.98 303.73 398.3C302.11 398.94 300.47 399.52 298.85 400.14L296.4 401.05L293.93 401.89C280.78 406.45 267.27 409.79 253.6 412.15C246.77 413.34 239.89 414.21 232.98 414.87C229.52 415.18 226.06 415.45 222.59 415.63C220.84 415.73 219.13 415.79 217.35 415.86C215.55 415.91 213.8 415.91 212.05 415.9C198.1 415.75 184.33 414.57 170.66 412.36C157 410.21 143.48 407.03 130.28 402.77C117.11 398.41 104.24 393.01 92.1099 386.16C79.9899 379.32 68.6299 371.1 58.4399 361.66C48.2299 352.23 39.3999 341.38 32.1099 329.69C24.8099 317.99 19.15 305.39 15.03 292.39C10.85 279.39 8.53995 265.91 7.31995 252.43C6.21995 238.92 6.39995 225.37 7.12995 211.91L7.07996 211.88ZM8.57996 211.95C8.31996 218.68 8.07995 225.4 8.18995 232.11C8.32995 238.82 8.71997 245.52 9.45997 252.18C9.93997 255.5 10.2899 258.83 10.9299 262.11C11.2299 263.75 11.48 265.41 11.84 267.04L12.9399 271.93C13.2799 273.57 13.7399 275.17 14.1799 276.78C14.6299 278.39 15.04 280 15.53 281.6L17.1099 286.34L17.9 288.71L18.7999 291.04L20.6199 295.68C21.2199 297.23 21.9899 298.71 22.6599 300.22C23.3699 301.72 24.02 303.24 24.77 304.72L27.1099 309.11C30.2499 314.94 33.8699 320.49 37.7399 325.82C45.5099 336.47 54.6899 345.98 64.9199 354.11C75.1099 362.3 86.2899 369.13 97.9699 374.91C99.4099 375.66 100.93 376.28 102.4 376.98C103.89 377.65 105.34 378.37 106.85 379L111.37 380.87L113.63 381.8L115.93 382.65L120.51 384.37L125.15 385.94C128.22 387.03 131.39 387.88 134.5 388.86C140.79 390.66 147.12 392.29 153.54 393.62C156.73 394.35 159.97 394.9 163.18 395.52C166.42 396.05 169.64 396.61 172.89 397.04C185.86 398.83 199.02 399.89 212.01 399.86C218.36 399.83 224.93 399.43 231.42 398.82C237.93 398.21 244.41 397.31 250.86 396.26C257.31 395.21 263.72 393.88 270.06 392.33C276.4 390.77 282.71 389.07 288.89 387.01C313.65 378.94 337.09 366.71 356.71 349.81C366.52 341.37 375.36 331.83 383.05 321.4C390.71 310.93 397.14 299.54 402.4 287.65C412.92 263.83 417.87 237.51 417.5 211.09C417.25 197.88 415.9 184.63 413.2 171.61C411.88 165.1 410.28 158.63 408.39 152.25C406.47 145.88 404.27 139.58 401.76 133.44C396.58 121.24 390.13 109.47 382.47 98.59C374.87 87.65 365.93 77.6701 356.13 68.6701C336.53 50.6001 313.1 37.01 288.35 27.6C275.97 22.91 263.19 19.2001 250.34 16.7901C237.49 14.5101 224.28 13.41 211.19 13.38C184.98 13.26 158.84 17.41 134.48 26.52C128.4 28.81 122.43 31.39 116.59 34.27C110.74 37.12 105.1 40.3701 99.5399 43.7801C88.5499 50.8001 78.0999 58.7701 68.6799 67.9101C59.2499 77.0401 50.7899 87.25 43.4099 98.26C39.7899 103.81 36.3499 109.5 33.2499 115.39C32.4299 116.84 31.7499 118.36 30.9999 119.85C30.2599 121.34 29.51 122.83 28.84 124.36L26.77 128.92L24.8499 133.55C14.7999 158.34 9.54993 185.11 8.54993 211.96L8.57996 211.95Z" fill="#0E2980"/>
<path d="M199.98 124.09C199.98 171.37 160.12 209.7 110.94 209.7C61.7599 209.7 21.8999 171.37 21.8999 124.09H199.97H199.98Z" fill="#0E2980"/>
<path d="M200.44 123.63C200.67 125.01 200.95 126.68 201.07 128.41C201.15 129.91 201.18 131.34 201.22 132.82L201.11 137.23C201 138.7 200.84 140.16 200.7 141.64C200.02 147.52 198.62 153.36 196.55 158.99C192.42 170.26 185.65 180.64 177.02 189.19C168.39 197.72 157.96 204.55 146.55 208.78C140.84 210.87 134.91 212.32 128.92 213.11C122.93 213.89 116.89 214 110.94 213.6L106.49 213.18C105.01 213 103.54 212.77 102.08 212.56C100.62 212.34 99.16 212.04 97.71 211.79C96.26 211.53 94.83 211.14 93.39 210.82C87.67 209.4 82.0899 207.57 76.6799 205.34C65.8799 200.86 55.7999 194.74 46.9299 187.01C38.0499 179.32 30.3499 169.97 24.8599 159.22C19.3199 148.5 16.2299 136.36 15.9799 124.11C15.9099 120.91 18.4599 118.26 21.6599 118.19H21.9099L44.76 117.64C52.39 117.52 60.0599 117.36 67.7199 117.31C83.0399 117.22 98.3299 117.58 113.41 118.15C128.49 118.72 143.38 119.53 157.95 120.44C172.52 121.35 186.81 122.38 200.43 123.65L200.44 123.63ZM199.52 124.55C183.47 125.82 168.08 126.85 152.97 127.76C137.86 128.68 123.07 129.48 108.48 130.05C93.8799 130.62 79.4899 130.98 65.1299 130.89C57.9499 130.84 50.7799 130.68 43.57 130.56L21.9 130.01L27.83 124.08C27.57 134.71 29.26 145.41 32.95 155.63C36.67 165.81 42.5299 175.44 50.2999 183.41C58.0699 191.37 67.6799 197.64 78.1799 201.48C88.6699 205.36 99.9999 206.65 110.94 205.8C116.42 205.39 121.82 204.44 127.06 203.12C132.31 201.8 137.42 200.1 142.35 198.03C147.3 195.98 152.07 193.55 156.64 190.78C161.19 187.97 165.52 184.79 169.51 181.21C177.52 174.08 184.32 165.5 189.4 155.83C191.93 150.99 194.05 145.89 195.71 140.58L196.84 136.55L197.84 132.46C198.1 131.09 198.37 129.67 198.65 128.32C198.85 127.2 199.21 126.01 199.51 124.53L199.52 124.55Z" fill="#0E2980"/>
<path d="M229.14 124.09C229.14 171.37 269 209.7 318.18 209.7C367.36 209.7 407.22 171.37 407.22 124.09H229.15H229.14Z" fill="#0E2980"/>
<path d="M229.6 124.55C229.9 126.03 230.26 127.22 230.46 128.34C230.74 129.69 231.01 131.11 231.27 132.48L232.27 136.57L233.4 140.6C235.06 145.91 237.18 151.01 239.71 155.85C244.8 165.52 251.59 174.1 259.6 181.23C263.6 184.81 267.93 187.98 272.47 190.8C277.04 193.57 281.81 196 286.76 198.05C291.69 200.12 296.81 201.82 302.05 203.14C307.29 204.46 312.69 205.4 318.17 205.82C329.12 206.67 340.44 205.38 350.93 201.5C361.43 197.66 371.04 191.38 378.81 183.43C386.58 175.45 392.44 165.83 396.16 155.65C399.84 145.44 401.54 134.73 401.28 124.1L407.21 130.03L385.54 130.58C378.34 130.7 371.16 130.86 363.98 130.91C349.63 131 335.23 130.64 320.63 130.07C306.04 129.5 291.24 128.69 276.14 127.78C261.03 126.87 245.64 125.84 229.59 124.57L229.6 124.55ZM228.68 123.63C242.31 122.36 256.59 121.33 271.16 120.42C285.73 119.5 300.62 118.7 315.7 118.13C330.78 117.56 346.07 117.2 361.39 117.29C369.05 117.34 376.72 117.5 384.35 117.62L407.2 118.17H407.47C410.67 118.25 413.21 120.89 413.13 124.1C412.88 136.34 409.79 148.49 404.25 159.21C398.76 169.97 391.05 179.31 382.18 187C373.32 194.73 363.23 200.86 352.43 205.33C347.03 207.56 341.45 209.4 335.72 210.81C334.28 211.13 332.85 211.52 331.4 211.78C329.95 212.04 328.49 212.34 327.03 212.55C325.56 212.76 324.09 212.99 322.62 213.17L318.17 213.59C312.22 213.98 306.18 213.88 300.19 213.1C294.2 212.32 288.27 210.86 282.56 208.77C271.15 204.54 260.72 197.71 252.09 189.18C243.46 180.64 236.69 170.25 232.56 158.98C230.49 153.35 229.09 147.51 228.41 141.63C228.27 140.15 228.11 138.69 228 137.22L227.89 132.81C227.93 131.33 227.95 129.9 228.04 128.4C228.16 126.66 228.45 124.99 228.67 123.62L228.68 123.63Z" fill="#0E2980"/>
<path d="M192.93 133.41C194.33 133.31 195.45 133.38 196.5 133.47C197.54 133.56 198.46 133.73 199.33 133.93C200.2 134.12 200.99 134.38 201.75 134.67C202.52 134.95 203.21 135.34 203.83 135.97C205.04 137.21 206.24 139.36 207.99 140.01C209.71 140.7 211.66 140.29 213.35 139.25C214.2 138.75 214.99 138.13 215.76 137.72C216.14 137.47 216.52 137.26 216.9 137.09C217.09 137 217.28 136.92 217.46 136.84L218.01 136.55L219.1 135.98C219.46 135.78 219.8 135.56 220.16 135.38C220.88 135.04 221.57 134.65 222.35 134.44C223.88 133.95 225.54 133.64 227.4 133.38C229.27 133.13 231.27 132.93 233.86 132.97H233.89C234.28 132.97 234.59 133.3 234.59 133.69C234.59 133.71 234.59 133.72 234.59 133.74C234.37 136.41 233.3 138.55 231.95 140.39C231.26 141.3 230.5 142.16 229.63 142.88C228.79 143.65 227.84 144.27 226.85 144.81C224.83 145.84 222.53 146.23 220.24 146.29C219.11 146.39 217.95 146.33 216.82 146.16C216.25 146.06 215.68 145.86 215.12 145.67C214.56 145.48 214.02 145.3 213.48 145.03C211.33 144.04 209.43 143.34 207.37 143.34C205.34 143.29 202.84 144.34 200.49 144.13C199.33 144.05 198.28 143.61 197.35 143C196.41 142.39 195.55 141.67 194.81 140.81C194.06 139.96 193.43 138.99 192.97 137.89C192.51 136.79 192.19 135.58 192.2 134.16C192.2 133.76 192.52 133.43 192.91 133.4H192.93V133.41Z" fill="#0E2980"/>
<path d="M21.2499 130.14C19.5799 129.62 18.3599 128.93 17.2599 128.2C16.1699 127.46 15.3 126.64 14.53 125.79C13.78 124.93 13.1699 124.01 12.6699 123.05C12.1599 122.1 11.8499 121.07 11.9099 119.9C12.0099 117.57 13.3699 114.77 13.0099 112.61C12.7099 110.43 11.2799 108.67 9.26995 107.14C8.28995 106.36 7.26994 105.6 6.44994 104.76C5.60994 103.93 5.01995 103 4.39995 102.09C3.13995 100.27 1.85994 98.4601 1.32994 96.3701C0.779944 94.2801 0.669952 92.0401 0.899952 89.6601C1.14995 87.2701 1.6899 84.78 3.1599 81.94C3.4099 81.46 3.9799 81.26 4.4699 81.45C7.4499 82.62 9.48993 84.1501 11.2499 85.7801C12.9799 87.4201 14.37 89.1901 15.34 91.1201C16.31 93.0501 16.5399 95.25 16.7899 97.45C16.9199 98.55 17.0899 99.6301 16.9999 100.81C16.9399 101.98 16.6699 103.23 16.4399 104.46C15.9299 106.94 16.0099 109.2 17.2199 111.04C18.3699 112.9 21.23 114.12 22.84 115.81C23.66 116.65 24.1 117.63 24.34 118.68C24.6 119.73 24.7399 120.82 24.7399 121.97C24.7299 123.12 24.5999 124.31 24.2699 125.58C23.9299 126.85 23.4599 128.18 22.5399 129.67C22.2599 130.12 21.7199 130.31 21.2299 130.16L21.2499 130.14Z" fill="#0E2980"/>
<path d="M406.56 129.65C405.65 128.16 405.17 126.84 404.83 125.56C404.5 124.29 404.38 123.1 404.36 121.95C404.36 120.8 404.5 119.71 404.76 118.66C405 117.6 405.44 116.62 406.26 115.79C407.87 114.1 410.73 112.88 411.88 111.02C413.09 109.18 413.17 106.92 412.66 104.44C412.44 103.21 412.17 101.96 412.1 100.79C412.01 99.6101 412.18 98.5301 412.31 97.4301C412.56 95.2301 412.79 93.03 413.76 91.1C414.72 89.17 416.11 87.4001 417.85 85.7601C419.61 84.1301 421.65 82.6001 424.63 81.4301C425.13 81.2301 425.7 81.4501 425.94 81.9201C427.41 84.7601 427.95 87.2601 428.2 89.6401C428.43 92.0201 428.31 94.26 427.77 96.35C427.24 98.44 425.96 100.25 424.7 102.07C424.08 102.98 423.49 103.91 422.65 104.74C421.83 105.58 420.81 106.34 419.83 107.12C417.82 108.66 416.39 110.41 416.09 112.59C415.73 114.75 417.09 117.55 417.19 119.88C417.25 121.05 416.95 122.08 416.43 123.03C415.93 123.99 415.32 124.91 414.57 125.77C413.8 126.63 412.93 127.45 411.84 128.18C410.75 128.92 409.52 129.6 407.85 130.12C407.34 130.28 406.81 130.06 406.54 129.63L406.56 129.65Z" fill="#0E2980"/>
<path d="M329.36 224.39C331.42 284.52 286.67 336.69 227.47 343.81C167.43 351.04 110.97 309.73 99.6899 249.75C126.42 255.53 165.79 260.89 212.94 256.16C263.72 251.07 303.62 236.27 329.36 224.38V224.39Z" fill="white"/>
<path d="M329.7 223.84C329.98 225.53 330.43 227.63 330.61 229.79C330.74 231.68 330.81 233.47 330.89 235.32C330.92 237.16 330.89 239 330.89 240.85C330.83 242.69 330.67 244.53 330.56 246.38C329.95 253.76 328.58 261.12 326.42 268.27C322.15 282.6 314.89 296.15 305.26 307.8C300.44 313.62 295.07 319.02 289.19 323.8C283.32 328.59 276.98 332.85 270.23 336.31C263.49 339.79 256.38 342.56 249.06 344.46C245.4 345.42 241.71 346.21 237.99 346.8C234.27 347.37 230.53 347.75 226.79 347.97C219.31 348.4 211.83 348.07 204.47 347.16C197.12 346.19 189.87 344.67 182.83 342.54C168.72 338.36 155.36 331.87 143.31 323.39C131.25 314.93 120.48 304.4 111.91 292.1C103.31 279.83 97.13 265.69 94.01 250.84C93.36 247.76 95.34 244.73 98.42 244.08C99.17 243.92 99.92 243.92 100.64 244.05L100.92 244.11C119.86 247.74 139.05 249.93 158.26 250.62C163.06 250.81 167.87 250.94 172.67 250.96C175.07 250.96 177.47 251.01 179.88 250.98L187.09 250.87L194.29 250.65C196.69 250.57 199.09 250.4 201.49 250.29C203.89 250.21 206.29 250 208.69 249.85L212.29 249.6L215.88 249.26C218.27 249.02 220.68 248.89 223.07 248.6L230.25 247.8C235.02 247.17 239.8 246.52 244.56 245.74L248.14 245.19L251.71 244.57C254.09 244.16 256.47 243.75 258.84 243.26C261.21 242.77 263.59 242.35 265.94 241.81C268.3 241.3 270.68 240.84 273.04 240.28C275.4 239.72 277.76 239.19 280.11 238.61L287.16 236.81L294.2 234.92C296.53 234.24 298.88 233.59 301.21 232.88C305.89 231.51 310.54 230.05 315.18 228.52C317.51 227.78 319.82 226.99 322.14 226.19L323.88 225.61C324.55 225.37 325.24 225.13 325.91 224.92C327.27 224.49 328.56 224.17 329.71 223.83L329.7 223.84ZM329.02 224.95C327.94 225.62 327 226.31 326.12 226.89C325.68 227.18 325.25 227.45 324.8 227.72L323.17 228.6C321 229.77 318.81 230.91 316.6 232.02C312.2 234.27 307.71 236.32 303.2 238.36C300.94 239.36 298.65 240.29 296.37 241.26L289.47 244.02C287.16 244.92 284.82 245.73 282.49 246.59C280.15 247.42 277.8 248.19 275.45 248.99C273.1 249.79 270.72 250.5 268.35 251.25C265.98 252 263.57 252.61 261.18 253.3C258.79 253.99 256.38 254.59 253.97 255.2L250.35 256.12L246.71 256.96C237 259.15 227.18 260.92 217.29 262.24L213.58 262.73L209.86 263.13C207.38 263.38 204.9 263.69 202.41 263.87C199.92 264.05 197.43 264.27 194.94 264.41L187.46 264.79L179.97 264.94C177.47 264.97 174.98 264.94 172.48 264.94C167.49 264.84 162.5 264.68 157.52 264.36C147.56 263.68 137.63 262.64 127.77 261.15C117.92 259.64 108.13 257.73 98.44 255.43L105.35 248.7C107.59 262.25 112.12 275.49 118.92 287.68C125.73 299.85 134.92 310.88 146.04 319.68C157.15 328.47 170.17 334.96 183.92 338.47C197.69 341.97 212.11 342.28 225.86 339.91C229.3 339.32 232.7 338.59 236.06 337.68C239.41 336.79 242.73 335.79 245.97 334.61C252.46 332.25 258.74 329.43 264.75 326.12C270.75 322.79 276.52 319.06 281.93 314.82C287.32 310.56 292.38 305.87 296.99 300.75C306.23 290.51 313.74 278.64 319.11 265.73C321.78 259.27 323.96 252.56 325.55 245.65L326.62 240.44C326.91 238.69 327.24 236.93 327.51 235.17L328.19 229.87C328.33 228.42 328.75 226.9 328.99 224.99L329.02 224.95Z" fill="#0E2980"/>
<path d="M146.24 256.67C147.76 259.44 148.47 262.21 148.96 264.98C149.19 266.36 149.34 267.75 149.4 269.13C149.51 270.51 149.44 271.9 149.18 273.28C148.66 276.05 147.37 278.82 147.13 281.59C146.86 284.36 147.26 287.13 148.03 289.9C148.4 291.28 148.79 292.67 149.06 294.05C149.34 295.43 149.47 296.82 149.62 298.2C149.93 300.97 150.24 303.74 150.11 306.51C149.96 309.28 149.6 312.05 149 314.82C148.38 317.59 147.6 320.36 146.24 323.13C146.13 323.35 145.86 323.44 145.64 323.33C145.55 323.28 145.48 323.21 145.44 323.13C144.08 320.36 143.29 317.59 142.68 314.82C142.08 312.05 141.71 309.28 141.57 306.51C141.45 303.74 141.76 300.97 142.06 298.2C142.21 296.82 142.34 295.43 142.62 294.05C142.89 292.67 143.28 291.28 143.65 289.9C144.42 287.13 144.82 284.36 144.55 281.59C144.32 278.82 143.02 276.05 142.5 273.28C142.24 271.9 142.17 270.51 142.28 269.13C142.34 267.75 142.49 266.36 142.72 264.98C143.2 262.21 143.91 259.44 145.44 256.67C145.56 256.45 145.84 256.37 146.06 256.49C146.14 256.53 146.2 256.6 146.24 256.67Z" fill="#0E2980"/>
<path d="M185.67 256.67C187.19 260.2 187.9 263.73 188.39 267.27C188.62 269.04 188.77 270.8 188.83 272.57C188.93 274.34 188.86 276.1 188.61 277.87C188.09 281.4 186.8 284.93 186.56 288.47C186.29 292 186.69 295.53 187.46 299.07C187.83 300.84 188.22 302.6 188.49 304.37C188.77 306.14 188.9 307.9 189.05 309.67C189.36 313.2 189.67 316.73 189.54 320.27C189.4 323.8 189.03 327.33 188.43 330.87C187.81 334.4 187.03 337.93 185.67 341.47C185.59 341.69 185.34 341.8 185.12 341.72C185 341.67 184.92 341.58 184.87 341.47C183.51 337.94 182.72 334.41 182.11 330.87C181.51 327.34 181.14 323.81 181 320.27C180.87 316.74 181.19 313.21 181.49 309.67C181.64 307.9 181.77 306.14 182.05 304.37C182.32 302.6 182.71 300.84 183.08 299.07C183.85 295.54 184.25 292.01 183.98 288.47C183.75 284.94 182.45 281.41 181.93 277.87C181.67 276.1 181.61 274.34 181.71 272.57C181.77 270.8 181.92 269.04 182.15 267.27C182.63 263.74 183.34 260.21 184.87 256.67C184.97 256.45 185.22 256.35 185.44 256.44C185.55 256.49 185.62 256.57 185.67 256.67Z" fill="#0E2980"/>
<path d="M227.56 256.67C229.08 260.3 229.79 263.93 230.28 267.56C230.51 269.38 230.66 271.19 230.72 273.01C230.82 274.83 230.76 276.64 230.5 278.46C229.98 282.09 228.69 285.72 228.45 289.35C228.18 292.98 228.58 296.61 229.35 300.24C229.72 302.06 230.11 303.87 230.38 305.69C230.66 307.51 230.79 309.32 230.94 311.14C231.25 314.77 231.56 318.4 231.43 322.03C231.29 325.66 230.92 329.29 230.32 332.92C229.7 336.55 228.92 340.18 227.56 343.81C227.48 344.03 227.23 344.14 227.01 344.06C226.89 344.02 226.8 343.92 226.76 343.81C225.4 340.18 224.61 336.55 224 332.92C223.4 329.29 223.03 325.66 222.89 322.03C222.76 318.4 223.08 314.77 223.38 311.14C223.53 309.32 223.66 307.51 223.94 305.69C224.21 303.87 224.6 302.06 224.97 300.24C225.74 296.61 226.14 292.98 225.87 289.35C225.64 285.72 224.34 282.09 223.82 278.46C223.56 276.64 223.5 274.83 223.6 273.01C223.66 271.19 223.81 269.38 224.04 267.56C224.52 263.93 225.23 260.3 226.76 256.67C226.85 256.45 227.11 256.35 227.33 256.44C227.44 256.49 227.52 256.57 227.56 256.67Z" fill="#0E2980"/>
<path d="M267 246.68C268.52 250.22 269.23 253.76 269.72 257.31C269.95 259.08 270.1 260.85 270.16 262.62C270.26 264.39 270.2 266.16 269.94 267.93C269.42 271.47 268.13 275.01 267.89 278.56C267.62 282.1 268.02 285.64 268.79 289.19C269.16 290.96 269.55 292.73 269.82 294.5C270.1 296.27 270.23 298.04 270.38 299.81C270.69 303.35 271 306.89 270.87 310.44C270.73 313.98 270.36 317.52 269.76 321.07C269.14 324.61 268.36 328.15 267 331.7C266.92 331.92 266.67 332.03 266.45 331.95C266.33 331.9 266.25 331.81 266.2 331.7C264.84 328.16 264.05 324.62 263.44 321.07C262.84 317.53 262.47 313.99 262.33 310.44C262.2 306.9 262.52 303.36 262.82 299.81C262.97 298.04 263.1 296.27 263.38 294.5C263.65 292.73 264.04 290.96 264.41 289.19C265.18 285.65 265.58 282.11 265.31 278.56C265.08 275.02 263.78 271.48 263.26 267.93C263 266.16 262.94 264.39 263.04 262.62C263.1 260.85 263.25 259.08 263.48 257.31C263.96 253.77 264.67 250.23 266.2 246.68C266.3 246.46 266.55 246.36 266.77 246.45C266.88 246.5 266.96 246.58 267 246.68Z" fill="#0E2980"/>
<path d="M303.32 236.42C304.84 239.19 305.55 241.96 306.04 244.73C306.27 246.11 306.42 247.5 306.48 248.88C306.59 250.26 306.52 251.65 306.26 253.03C305.74 255.8 304.45 258.57 304.21 261.34C303.94 264.11 304.34 266.88 305.11 269.65C305.48 271.03 305.87 272.42 306.14 273.8C306.42 275.18 306.55 276.57 306.7 277.95C307.01 280.72 307.32 283.49 307.19 286.26C307.04 289.03 306.68 291.8 306.08 294.57C305.46 297.34 304.68 300.11 303.32 302.88C303.21 303.1 302.94 303.19 302.72 303.08C302.63 303.03 302.56 302.96 302.52 302.88C301.16 300.11 300.37 297.34 299.76 294.57C299.16 291.8 298.79 289.03 298.65 286.26C298.53 283.49 298.84 280.72 299.14 277.95C299.29 276.57 299.42 275.18 299.7 273.8C299.97 272.42 300.36 271.03 300.73 269.65C301.5 266.88 301.9 264.11 301.63 261.34C301.4 258.57 300.1 255.8 299.58 253.03C299.32 251.65 299.25 250.26 299.36 248.88C299.42 247.5 299.57 246.11 299.8 244.73C300.28 241.96 300.99 239.19 302.52 236.42C302.64 236.2 302.92 236.12 303.14 236.24C303.22 236.28 303.28 236.35 303.32 236.42Z" fill="#0E2980"/>
</svg>
