<svg width="167" height="59" viewBox="0 0 167 59" fill="none" xmlns="http://www.w3.org/2000/svg">
<path d="M35.91 45.059L33.98 37.0889C33.8882 36.7158 33.9217 36.3232 34.0755 35.9723C34.2293 35.6213 34.4946 35.3318 34.8301 35.1489L38.9501 32.8689C44.4567 31.1556 49.5967 29.5189 54.37 27.9589C55.41 27.6189 56.69 26.449 58.15 27.089C58.4434 27.2156 58.7234 27.1889 58.99 27.0089C59.3967 26.7423 59.7534 26.5689 60.0601 26.4889C63.8401 25.5289 67.3401 24.4289 71.3601 23.8289C74.8734 23.3089 78.3367 22.5456 81.75 21.5389C83.47 21.0389 85.82 21.1389 87.76 19.7089C88.0467 19.4956 88.2834 19.5423 88.47 19.8489L88.69 20.1989C88.87 20.4989 89.1367 20.6256 89.4901 20.5789C91.7434 20.2656 93.9734 19.8456 96.1801 19.3189C101.15 18.1489 106.01 17.6389 110.92 16.3789C113.09 15.8189 115.33 16.0489 117.61 15.5289C118.47 15.3356 119.557 15.2089 120.87 15.1489C123.01 15.0589 124.4 13.819 126.54 14.339C126.867 14.419 127.197 14.419 127.53 14.339C129.797 13.8256 132.073 13.5556 134.36 13.5289C134.4 13.5289 134.42 13.5089 134.42 13.4689L134.41 13.2189C134.41 13.0389 134.32 12.9489 134.14 12.9489C126.527 12.8556 121.473 12.7056 118.98 12.4989C115.38 12.2056 110.13 12.1589 103.23 12.3589C95.8834 12.5723 88.5401 12.7989 81.2001 13.0389C71.3334 13.3656 58.51 14.8356 42.73 17.4489C28.53 19.1089 14.81 20.6389 0.56005 18.4889C0.24005 18.4423 0.0767111 18.2556 0.0700445 17.9289L5.24057e-05 12.6989C-0.00281895 12.3954 0.112402 12.1026 0.321387 11.8824C0.530373 11.6622 0.816755 11.5319 1.12005 11.5189C3.36005 11.4123 5.58672 11.1723 7.80006 10.7989C9.58006 10.4989 11.4434 9.88227 13.3901 8.94894C15.5767 7.8956 18.1567 7.34227 21.13 7.28893C24.25 7.24227 27.3567 6.99561 30.45 6.54894C35.7234 5.78228 41.0367 4.86227 46.3901 3.78893C47.7367 3.66893 49.1 3.45227 50.48 3.13894C53.51 2.44894 55.78 2.38895 58.65 2.39895C58.99 2.39895 59.3067 2.32227 59.6 2.16894C61.6 1.14894 63.44 1.90892 65.1 1.77892C71.3 1.28559 77.51 1.01228 83.73 0.958947C83.9634 0.958947 84.1334 1.04559 84.2401 1.21893C84.3801 1.44559 84.58 1.53561 84.84 1.48895C85.9734 1.30895 87.1067 1.14228 88.2401 0.988945C89.3601 0.842279 90.1534 1.03894 90.6201 1.57894C90.8334 1.83228 91.0934 1.89561 91.4001 1.76894C91.6334 1.67561 91.7667 1.49895 91.8001 1.23895C91.8401 0.878945 92.0434 0.72559 92.41 0.778924C93.3834 0.912257 94.3734 0.905601 95.38 0.758934C95.7 0.712268 95.99 0.785602 96.25 0.978936C96.81 1.39894 97.3901 1.48227 97.9901 1.22894C98.2901 1.10227 98.6034 1.04893 98.9301 1.06893C102.837 1.28893 106.743 1.54228 110.65 1.82894C112.7 1.98894 115.94 1.85893 118.02 1.40893C124.393 0.00892842 130.823 -0.347715 137.31 0.338952C139.17 0.538952 140.87 0.00893325 142.69 0.288933C146.317 0.8356 149.937 1.33226 153.55 1.77892C157.61 2.26892 161.45 3.48895 165.49 4.33895C165.817 4.41228 165.993 4.61226 166.02 4.93893C166.16 6.76893 166.08 8.27893 166.45 10.2189C166.81 12.1523 166.71 14.0823 166.15 16.0089C166.057 16.3289 165.843 16.5123 165.51 16.559C161.377 17.1056 157.38 17.4823 153.52 17.6889C148.02 17.9823 144.033 18.2689 141.56 18.5489C122.32 20.7489 104.48 23.6823 88.04 27.3489C85.9667 27.8089 85.9901 28.1256 88.1101 28.2989C90.7234 28.5189 93.4567 28.4156 96.31 27.9889C97.71 27.7889 100.11 29.1189 101.61 28.1689C101.883 27.9956 102.183 27.9189 102.51 27.9389C106.57 28.2389 109.88 28.1189 112.51 30.3989C112.77 30.6189 112.933 30.8956 113 31.2289C113.56 33.8823 113.933 36.4856 114.12 39.0389C114.293 41.4789 113.417 43.1689 111.49 44.1089C106.323 46.6356 100.863 49.3923 95.1101 52.379C92.4501 53.759 89.7334 55.6023 86.9601 57.9089C86.8669 57.9883 86.7552 58.0425 86.6353 58.0667C86.5153 58.0909 86.3909 58.0843 86.2734 58.0475C86.156 58.0106 86.0492 57.9448 85.963 57.8559C85.8768 57.7671 85.8139 57.6581 85.78 57.5389C84.74 53.8189 83.0601 49.939 84.7101 45.879C85.6901 43.449 87.8501 42.289 90.0201 40.999C90.0745 40.968 90.1199 40.9234 90.1518 40.8695C90.1837 40.8156 90.2011 40.7544 90.2021 40.6918C90.2031 40.6292 90.1877 40.5674 90.1576 40.5126C90.1274 40.4577 90.0834 40.4116 90.03 40.379C89.9167 40.3123 89.7334 40.2956 89.48 40.3289C81.13 41.4489 72.98 42.529 64.54 44.129C55.13 45.919 47.47 46.049 38.85 46.629C37.38 46.729 36.81 46.059 35.91 45.059ZM77.0298 2.60293C77.0316 2.50747 76.8469 2.41236 76.5163 2.33849C76.1857 2.26462 75.7363 2.21805 75.2669 2.20904C74.7976 2.20003 74.3468 2.22931 74.0136 2.29043C73.6805 2.35155 73.4923 2.43949 73.4904 2.53494C73.4885 2.6304 73.6732 2.72553 74.0038 2.7994C74.3344 2.87327 74.7838 2.91982 75.2532 2.92883C75.7225 2.93784 76.1733 2.90858 76.5064 2.84747C76.8396 2.78635 77.0279 2.69838 77.0298 2.60293ZM80.3601 5.28893C80.2801 5.28893 80.1967 5.28893 80.1101 5.28893C80.1034 5.28893 80.1 5.28893 80.1 5.28893C80.1 5.28227 80.1034 5.27892 80.1101 5.27892C81.0301 5.33226 81.7667 5.35228 82.32 5.33895C83.0267 5.31228 83.0367 5.20892 82.35 5.02892C81.7567 4.88226 81.1734 4.94894 80.6 5.22894C80.5134 5.26894 80.4334 5.28893 80.3601 5.28893ZM54.6401 8.41894C55.2667 8.13894 55.2401 8.00561 54.5601 8.01894L52.5801 8.05895C52.4807 8.06116 52.3857 8.10027 52.3136 8.16866C52.2415 8.23706 52.1975 8.32985 52.1901 8.42895L52.1701 8.70895C52.1673 8.73947 52.1709 8.77023 52.1807 8.79928C52.1905 8.82832 52.2063 8.85499 52.227 8.87759C52.2477 8.90018 52.2729 8.91822 52.301 8.9305C52.3291 8.94279 52.3594 8.94906 52.3901 8.94894C53.1234 8.92894 53.8734 8.75227 54.6401 8.41894ZM100.64 31.7989C103.65 31.7389 106.59 32.2789 109.38 31.9789C109.547 31.9656 109.623 31.8756 109.61 31.7089L109.59 31.439C109.583 31.359 109.543 31.3222 109.47 31.3289C106.463 31.4356 103.533 31.6222 100.68 31.8889C100.633 31.8956 100.61 31.8789 100.61 31.8389C100.61 31.8323 100.61 31.8289 100.61 31.8289C100.603 31.8089 100.613 31.7989 100.64 31.7989Z" fill="#0FAC71"/>
</svg>
