<svg width="568" height="77" viewBox="0 0 568 77" fill="none" xmlns="http://www.w3.org/2000/svg">
    <rect x="534" y="77" width="30" height="77" transform="rotate(180 534 77)" fill="#9C9C9C"/>
    <path d="M-3.40949e-06 38L86 1.74846e-06L87 1.66103e-06C87 14.5 106 19.25 106 19.25C106 19.25 87 28.6559 87 39.5C87 49.5 106 57.75 106 57.75C105.996 57.7523 87 67.5011 87 77L86 77L-3.40949e-06 38Z" fill="#FAD8B9"/>
    <path d="M21.5 28.5L-8.52372e-07 38L21.5 47.75L21.5 28.5Z" fill="black"/>
    <path d="M568 67C568 72.5228 563.523 77 558 77L538 77L538 2.62268e-06L558 8.74228e-07C563.523 3.91405e-07 568 4.47715 568 10L568 67Z" fill="#E16D94"/>
    <path d="M91 77C91 67.504 109.984 57.7581 110 57.75C110 57.75 91 49.5 91 39.5C91 28.6602 109.985 19.2575 110 19.25C110 19.25 91 14.5 91 3.55811e-05L498 0L498 77L91 77Z" fill="#F9CD50"/>
</svg>
