<svg width="201" height="138" viewBox="0 0 201 138" fill="none" xmlns="http://www.w3.org/2000/svg">
<path d="M141.776 0.00862291C145.376 0.81529 148.866 1.36194 152.246 1.64861C153.546 1.76861 155.316 2.5786 156.396 3.5486C161.243 7.8886 164.22 13.7553 165.326 21.1486L164.926 27.7286C164.526 28.7353 164.386 29.6986 164.506 30.6186C164.53 30.7984 164.59 30.9714 164.684 31.1263C164.778 31.2813 164.904 31.4149 165.053 31.5184C165.201 31.622 165.37 31.6934 165.548 31.7278C165.726 31.7623 165.91 31.7592 166.086 31.7186C171.226 30.5186 176.273 29.4453 181.226 28.4986C185.306 27.7119 190.376 27.9686 196.436 29.2686C196.616 29.3062 196.786 29.3806 196.935 29.4873C197.085 29.594 197.211 29.7306 197.306 29.8886C198.236 31.4586 199.996 32.5286 200.496 34.2486C201.223 36.7419 200.143 38.6353 197.256 39.9286C193.03 41.8153 190 42.9953 188.166 43.4686C184.566 44.3819 180.91 45.3453 177.196 46.3586C173.35 47.4053 169.673 48.2819 166.166 48.9886C162.046 49.8219 157.896 50.5886 153.716 51.2886C152.103 51.5553 150.43 51.8186 148.696 52.0786C146.963 52.3319 145.383 53.3686 143.956 55.1886C143.908 55.2467 143.879 55.3185 143.874 55.3938C143.869 55.469 143.888 55.544 143.928 55.6081C143.967 55.6722 144.026 55.7222 144.096 55.751C144.166 55.7798 144.243 55.7859 144.316 55.7686C145.743 55.4819 147.08 55.5419 148.326 55.9486C148.693 56.0686 149.043 56.0253 149.376 55.8186L150.816 54.9386C151.116 54.7519 151.433 54.7286 151.766 54.8686C153.016 55.3886 153.936 55.8586 155.376 55.9986C156.863 56.1453 158.253 56.5886 159.546 57.3286C159.84 57.4953 160.153 57.5853 160.486 57.5986C161.616 57.6386 162.416 57.5386 163.396 58.2286C166.363 60.2953 169.14 62.5953 171.726 65.1286C174.446 67.7819 175.15 70.8653 173.836 74.3786C173.805 74.4599 173.798 74.5487 173.818 74.6337C173.837 74.7186 173.881 74.796 173.944 74.856C174.007 74.916 174.087 74.9558 174.173 74.9705C174.258 74.9852 174.347 74.9741 174.426 74.9386C177.976 73.4486 181.206 74.9486 184.906 74.4386C191.606 73.4986 195.306 81.7286 195.246 87.0286C195.244 87.1598 195.205 87.2878 195.135 87.3987C195.065 87.5096 194.966 87.5992 194.848 87.6579C194.731 87.7166 194.6 87.7421 194.469 87.7316C194.338 87.7212 194.213 87.6752 194.106 87.5986C193.286 87.0186 192.463 87.0119 191.636 87.5786C191.363 87.7653 191.063 87.8553 190.736 87.8486C189.156 87.842 187.753 88.3086 186.526 89.2486C186.26 89.4553 185.966 89.5053 185.646 89.3986C185.406 89.3253 185.196 89.1953 185.016 89.0086C184.79 88.7753 184.526 88.7053 184.226 88.7986C181.753 89.5319 179.33 90.4886 176.956 91.6686C175.363 92.4553 173.953 93.2719 172.726 94.1186C172.393 94.3519 172.01 94.4686 171.576 94.4686C171.25 94.475 170.934 94.5758 170.666 94.7586C168.186 96.4586 165.303 97.5386 162.016 97.9986C160.276 98.2486 158.996 99.2686 157.736 100.469C157.143 101.029 156.49 101.445 155.776 101.719C151.963 103.185 148.196 104.649 144.476 106.109C143.886 106.342 143.39 106.768 143.066 107.319L142.846 107.679C142.44 108.372 142.626 108.612 143.406 108.399C144.886 107.992 146.35 108.099 147.796 108.719C148.103 108.852 148.423 108.902 148.756 108.869C152.683 108.502 156.39 108.235 159.876 108.069C163.766 107.879 167.246 106.229 171.116 105.709C171.903 105.602 172.576 105.259 173.136 104.679C173.297 104.512 173.491 104.379 173.705 104.289C173.919 104.2 174.149 104.154 174.381 104.156C174.613 104.158 174.842 104.207 175.054 104.3C175.267 104.394 175.458 104.529 175.616 104.699L182.906 112.439C183.106 112.654 183.244 112.919 183.305 113.205C183.367 113.492 183.35 113.791 183.256 114.069C182.406 116.589 176.786 115.659 174.666 115.629C170.226 115.562 170.113 116.229 174.326 117.629C175.766 118.109 177.763 118.952 180.316 120.159C180.396 120.198 180.464 120.258 180.511 120.334C180.557 120.41 180.582 120.498 180.581 120.587C180.58 120.676 180.553 120.763 180.505 120.837C180.456 120.912 180.387 120.972 180.306 121.009C178.906 121.635 177.613 121.905 176.426 121.819C173.416 121.609 170.346 121.329 167.356 120.819C164.436 120.325 161.5 120.152 158.546 120.299C154.846 120.485 152.093 120.475 150.286 120.269C147.84 119.995 145.156 119.685 142.236 119.339C134.11 118.392 126.013 118.595 117.946 119.949C104.64 122.189 91.5463 125.275 78.6663 129.209C74.673 130.422 70.6829 131.542 66.6962 132.569C62.3362 133.689 58.3529 134.815 54.7463 135.949C50.3263 137.335 46.0162 137.452 41.8162 136.299C38.0062 135.249 34.3862 132.329 31.2162 129.779C30.9204 129.541 30.7085 129.214 30.6114 128.847C30.5142 128.48 30.5369 128.092 30.6762 127.739C30.8828 127.219 30.9429 126.672 30.8562 126.099C30.7829 125.672 30.5896 125.609 30.2763 125.909C29.9896 126.182 29.6329 126.229 29.2062 126.049C29.124 126.015 29.0501 125.963 28.9898 125.897C28.9294 125.832 28.884 125.754 28.8565 125.668C28.829 125.583 28.82 125.492 28.8304 125.403C28.8407 125.313 28.87 125.226 28.9163 125.149L31.9762 120.099C32.0232 120.021 32.0493 119.934 32.0519 119.843C32.0546 119.753 32.0337 119.664 31.9914 119.584C31.949 119.504 31.8865 119.437 31.8102 119.389C31.7339 119.34 31.6464 119.313 31.5562 119.309C22.0162 118.869 10.9262 115.869 3.34623 110.519C1.30623 109.079 0.336289 105.429 0.0362894 102.109C-0.223711 99.3486 0.956211 97.4686 2.20621 95.1386C3.23621 93.1986 4.97626 91.8986 6.37626 90.1586C7.32959 88.9786 8.37961 87.9319 9.52628 87.0186C11.1463 85.7386 12.4062 84.2986 14.1962 83.2786C15.6095 82.4719 16.9895 81.6186 18.3362 80.7186C21.1462 78.8486 23.6762 77.7386 26.5862 76.4986C26.664 76.4653 26.734 76.4162 26.7917 76.3544C26.8493 76.2927 26.8933 76.2198 26.9207 76.1405C26.9481 76.0612 26.9583 75.9772 26.9506 75.8941C26.9429 75.8111 26.9176 75.7308 26.8763 75.6586C25.4963 73.1786 23.7029 70.9586 21.4963 68.9986C21.2429 68.7719 21.0729 68.4986 20.9862 68.1786C20.2462 65.5053 20.6229 62.8619 22.1162 60.2486C23.8362 57.2486 25.4029 55.0586 26.8162 53.6786C34.8229 45.8586 40.6896 40.7253 44.4163 38.2786C49.4096 34.9986 54.2796 31.7086 59.0263 28.4086C60.6929 27.2553 62.8862 26.2653 65.6062 25.4386C65.8996 25.3453 66.1062 25.2186 66.2262 25.0586C66.3729 24.8653 66.4829 24.6286 66.5562 24.3486C66.7429 24.182 66.9829 24.0786 67.2763 24.0386C68.4229 24.4386 69.6529 24.1019 70.9662 23.0286L76.0063 20.6186C76.2972 20.4831 76.6222 20.4513 76.9262 20.5286C79.2862 21.1619 81.0862 20.612 82.3262 18.8786C82.5529 18.5653 82.8395 18.3319 83.1862 18.1786C85.8762 17.0186 88.1362 15.4486 90.8662 14.5586C93.2262 13.7919 95.5596 12.9686 97.8662 12.0886C99.3662 11.5186 100.646 11.9986 102.076 11.5786C104.183 10.9653 106.1 10.3453 107.826 9.71861C108.966 9.31195 110.97 8.78861 113.836 8.14861C115.37 7.80194 116.953 7.2386 118.586 6.4586C120.113 5.72527 121.596 5.3486 123.036 5.3286C125.543 5.29527 128.3 5.06195 131.306 4.62862C132.253 4.48862 133.573 4.00527 135.266 3.17861C135.546 3.04217 135.864 2.99672 136.176 3.0486L139.876 3.67861C140.336 3.75194 140.643 3.57193 140.796 3.1386C141.116 2.2586 140.99 1.49529 140.416 0.848619C140.183 0.588619 140.22 0.371928 140.526 0.198595C140.82 0.0385948 141.236 -0.0247104 141.776 0.00862291ZM141.666 9.9586L118.966 16.6586C111.466 18.952 101.963 22.3519 90.4562 26.8586C88.0829 27.7853 86.0196 28.7386 84.2663 29.7186C80.7729 31.6719 78.7895 32.7586 78.3162 32.9786C74.6362 34.7253 70.9529 36.5619 67.2663 38.4886C67.1793 38.534 67.1063 38.6017 67.0552 38.6845C67.0041 38.7673 66.9768 38.8621 66.9762 38.9586V39.7986C66.9765 39.8742 66.9972 39.9483 67.036 40.0132C67.0749 40.078 67.1305 40.1311 67.1971 40.167C67.2636 40.2028 67.3387 40.22 67.4142 40.2168C67.4898 40.2136 67.563 40.19 67.6263 40.1486C72.8729 36.6953 77.883 34.0853 82.6563 32.3186C83.6963 31.932 84.8029 31.3086 85.9762 30.4486C87.3629 29.4353 88.4862 28.8553 89.3462 28.7086C91.8929 28.2753 94.3496 27.6419 96.7162 26.8086C99.4762 27.3486 101.846 27.1153 103.826 26.1086L111.346 23.9786C111.52 23.9253 111.7 23.9186 111.886 23.9586L112.276 24.0286C112.552 24.0865 112.835 24.0362 113.066 23.8886C114.946 22.7019 116.983 22.0053 119.176 21.7986C121.396 20.8253 123.646 20.4119 125.926 20.5586C126.253 20.5786 126.56 20.5086 126.846 20.3486C129.1 19.0953 131.116 18.7853 132.896 19.4186C133.25 19.5519 133.486 19.4353 133.606 19.0686L133.996 17.8386L138.496 17.8686C138.595 17.8689 138.692 17.8936 138.779 17.9407C138.866 17.9878 138.941 18.0557 138.996 18.1386C139.216 18.4786 139.193 18.7353 138.926 18.9086C138.44 19.222 138.483 19.4253 139.056 19.5186C139.656 19.6119 140.33 19.4853 141.076 19.1386L148.626 19.8186C150.133 20.6053 151.693 21.0486 153.306 21.1486C153.686 21.1753 153.813 21.012 153.686 20.6586C153.58 20.3386 153.34 20.1386 152.966 20.0586C151.72 19.7919 150.446 19.3986 149.146 18.8786C149.28 17.7453 150.41 17.5819 152.536 18.3886C153.41 18.7153 153.723 18.432 153.476 17.5386C153.43 17.372 153.446 17.2153 153.526 17.0686C153.72 16.7086 153.99 16.6386 154.336 16.8586C155.07 17.3119 155.876 17.5586 156.756 17.5986C157.096 17.6186 157.293 17.4586 157.346 17.1186C157.833 13.8253 156.823 11.402 154.316 9.84862C152.586 8.77862 150.376 9.0386 148.386 9.1986L141.666 9.9586ZM137.206 25.3586L128.376 26.4886L117.306 28.6286C113.046 29.402 109.306 30.4386 106.086 31.7386C105.136 32.1186 103.936 32.1586 103.136 32.5186C100.223 33.8386 97.2429 35.002 94.1962 36.0086C92.6962 36.4986 90.8162 38.1686 89.0762 38.8986C86.8162 39.8386 84.5563 40.8053 82.2963 41.7986C80.943 42.3919 79.3796 43.3553 77.6062 44.6886C76.0862 45.8353 74.5062 46.8119 72.8662 47.6186C71.1262 48.9919 69.3595 50.1719 67.5662 51.1586C66.4862 51.7586 65.5829 52.4153 64.8562 53.1286C62.7462 55.1986 61.1263 56.8686 58.5363 58.6986C54.8896 61.2719 51.6796 64.2486 48.9063 67.6286C48.5663 68.0419 48.653 68.1786 49.1663 68.0386L75.6762 60.6086L111.336 51.8386C116.27 51.8119 121.11 50.9419 125.856 49.2286L131.496 45.9586C135.863 43.2853 139.156 40.9686 141.376 39.0086C144.163 36.542 147.486 32.9519 151.346 28.2386C152.206 27.1919 152.973 26.0886 153.646 24.9286C153.78 24.7014 153.852 24.4433 153.856 24.1797C153.86 23.9161 153.795 23.656 153.668 23.425C153.541 23.1941 153.356 23.0001 153.131 22.8622C152.906 22.7244 152.65 22.6473 152.386 22.6386L146.436 22.4286C146.21 22.4219 146.013 22.4986 145.846 22.6586C144.64 23.8253 143.28 24.3586 141.766 24.2586C141.386 24.2386 141.023 24.3086 140.676 24.4686C139.563 24.9753 138.406 25.2719 137.206 25.3586ZM161.386 40.5486C160.306 41.3686 159.213 42.1686 158.106 42.9486C157.713 43.2219 157.606 43.5553 157.786 43.9486C157.859 44.1159 157.992 44.2504 158.158 44.326C158.324 44.4017 158.512 44.4133 158.686 44.3586C160.316 43.8486 161.626 43.2986 163.466 43.2786C165.306 43.2653 167.076 42.9719 168.776 42.3986C171.376 41.5186 173.073 41.0153 173.866 40.8886C177.026 40.3886 180.546 40.2286 183.376 38.6686C185.31 37.6019 187.426 36.7853 189.726 36.2186C191.026 35.8986 192.166 35.2386 193.146 34.2386C193.24 34.1416 193.304 34.0191 193.329 33.8864C193.354 33.7537 193.339 33.6166 193.287 33.4921C193.235 33.3675 193.147 33.261 193.035 33.1857C192.923 33.1104 192.791 33.0697 192.656 33.0686C190.503 33.0886 188.236 33.1119 185.856 33.1386C178.916 33.2119 172.066 34.6553 165.306 37.4686C164.1 37.9686 163.206 38.5853 162.626 39.3186C162.246 39.7986 161.833 40.2086 161.386 40.5486ZM65.1263 41.7686C65.3463 41.7019 65.4662 41.5553 65.4862 41.3286C65.5196 40.8286 65.1862 40.5953 64.4862 40.6286C64.0796 40.6486 63.7963 40.8853 63.6363 41.3386C63.5096 41.6986 63.6396 41.8919 64.0263 41.9186C64.3463 41.9386 64.7129 41.8886 65.1263 41.7686ZM72.2863 41.3986C72.053 41.6919 71.9129 41.9753 71.8662 42.2486C71.7862 42.7086 71.9496 42.8253 72.3562 42.5986C72.7429 42.3853 72.843 42.0053 72.6563 41.4586C72.5696 41.2186 72.4463 41.1986 72.2863 41.3986ZM54.4362 48.8186C54.3829 48.892 54.333 48.9686 54.2863 49.0486C53.9063 49.7286 53.993 49.8086 54.5463 49.2886C54.7063 49.1286 54.7962 48.9019 54.8162 48.6086C54.8495 48.0953 54.9362 47.5853 55.0762 47.0786C55.2095 46.6119 55.1295 46.5719 54.8362 46.9586C54.5162 47.3786 54.4163 47.8453 54.5363 48.3586C54.5763 48.5253 54.5429 48.6786 54.4362 48.8186ZM139.036 62.5986C138.663 63.512 137.653 63.8086 136.006 63.4886C132.42 63.9486 128.92 65.2686 125.506 67.4486L118.316 70.7386C118.016 70.8786 117.82 71.1053 117.726 71.4186C117.526 72.0919 117.496 72.7686 117.636 73.4486C117.79 74.1819 118.26 74.8386 119.046 75.4186C120.28 76.3253 121.7 77.1719 123.306 77.9586C123.68 78.3519 124.173 78.6019 124.786 78.7086C125.126 78.7686 125.65 78.6786 126.356 78.4386C127.59 78.0186 128.59 78.3186 129.356 79.3386C129.563 79.6053 129.743 79.5919 129.896 79.2986C129.97 79.1586 129.93 79.0153 129.776 78.8686C129.616 78.7086 129.646 78.6186 129.866 78.5986L154.106 75.9986L158.896 74.0486L162.256 71.7586L163.206 72.6386C163.446 72.8586 163.686 72.8619 163.926 72.6486C164.473 72.1753 164.91 71.5586 165.236 70.7986L166.846 69.4386C167.044 69.2708 167.196 69.0551 167.287 68.8119C167.379 68.5687 167.406 68.3063 167.367 68.0496C167.328 67.7929 167.223 67.5505 167.064 67.3455C166.905 67.1405 166.695 66.9798 166.456 66.8786L157.596 63.1886C157.303 63.9686 156.58 64.0253 155.426 63.3586C155.06 63.0519 154.673 62.8286 154.266 62.6886C153.88 62.5486 153.493 62.5553 153.106 62.7086C151.56 63.3153 149.913 63.2919 148.166 62.6386C147.797 62.4958 147.389 62.4782 147.006 62.5886C144.64 63.2686 141.983 63.272 139.036 62.5986ZM63.0155 69.4246C62.9745 69.2793 62.6501 69.2157 62.0608 69.2374C61.4716 69.2591 60.6291 69.3657 59.5815 69.5512C58.5338 69.7367 57.3015 69.9974 55.9549 70.3184C54.6083 70.6394 53.1737 71.0144 51.7332 71.422C50.2926 71.8296 48.8743 72.2619 47.5591 72.6941C46.244 73.1263 45.0578 73.55 44.0683 73.941C43.0787 74.332 42.3053 74.6826 41.792 74.9729C41.2788 75.2631 41.0358 75.4873 41.0769 75.6326C41.118 75.7779 41.4424 75.8416 42.0317 75.8198C42.6209 75.7981 43.4633 75.6915 44.511 75.506C45.5587 75.3205 46.791 75.0598 48.1376 74.7388C49.4842 74.4179 50.9187 74.0428 52.3593 73.6352C53.7998 73.2276 55.2182 72.7953 56.5334 72.3631C57.8485 71.9309 59.0347 71.5072 60.0242 71.1162C61.0137 70.7252 61.7872 70.3746 62.3004 70.0843C62.8137 69.7941 63.0567 69.5699 63.0155 69.4246ZM105.126 74.5686C96.7596 79.8753 88.7862 85.4786 81.2062 91.3786L63.0762 105.579C62.2895 106.192 62.3929 106.482 63.3863 106.449C64.8663 106.402 66.3862 106.235 67.9462 105.949C73.1995 104.962 78.3996 103.885 83.5463 102.719L98.9862 98.2486L115.176 93.0086C115.49 92.902 115.783 92.7553 116.056 92.5686C116.93 91.9686 117.593 91.5886 118.046 91.4286C123.706 89.4286 129.153 87.2186 134.386 84.7986C134.551 84.7218 134.693 84.6038 134.8 84.456C134.906 84.3082 134.972 84.1356 134.992 83.9548C135.012 83.774 134.985 83.591 134.914 83.4236C134.843 83.2561 134.73 83.1098 134.586 82.9986C134.246 82.7386 133.833 82.6553 133.346 82.7486C133.026 82.8086 132.746 82.9553 132.506 83.1886C132.26 83.4286 131.966 83.5586 131.626 83.5786C131.313 83.6053 131.083 83.4786 130.936 83.1986L130.706 82.7386C130.54 82.4253 130.276 82.2653 129.916 82.2586C129.703 82.2586 129.51 82.3386 129.336 82.4986C129.096 82.7253 129.136 82.7986 129.456 82.7186C129.616 82.6786 129.763 82.7086 129.896 82.8086C130.17 83.0153 130.143 83.1719 129.816 83.2786C128.923 83.5786 127.983 83.7186 126.996 83.6986C126.67 83.6919 126.486 83.5253 126.446 83.1986C126.333 82.2519 125.886 81.6619 125.106 81.4286C121.486 81.2286 118.72 80.6786 116.806 79.7786C116.1 79.4453 114.663 78.2653 112.496 76.2386L111.436 71.8486C111.407 71.7286 111.35 71.6171 111.27 71.5234C111.19 71.4297 111.088 71.3564 110.974 71.3095C110.86 71.2626 110.736 71.2436 110.613 71.2538C110.49 71.2641 110.371 71.3034 110.266 71.3686L105.126 74.5686ZM81.0063 81.3386L77.6862 83.0286L72.3462 86.3386C71.9996 86.5519 72.0262 86.6886 72.4262 86.7486C74.6262 87.0786 75.9162 84.6286 77.7362 83.9486C78.2429 84.2419 78.4429 84.532 78.3362 84.8186C78.3114 84.8927 78.3116 84.9736 78.3371 85.0481C78.3625 85.1226 78.4116 85.1864 78.4764 85.2292C78.5411 85.272 78.6178 85.2913 78.694 85.2839C78.7702 85.2765 78.8415 85.243 78.8963 85.1886C81.3163 82.9353 83.7696 80.9553 86.2563 79.2486C86.4363 79.1219 86.4662 78.9686 86.3462 78.7886L86.2162 78.5786C86.2016 78.5597 86.1815 78.5463 86.1595 78.5408C86.1374 78.5353 86.115 78.5381 86.0962 78.5486L81.0063 81.3386ZM41.0463 110.939L40.9462 112.269C40.9195 112.675 41.0962 112.809 41.4762 112.669C42.4362 112.309 43.0762 110.959 42.1762 110.069C41.9495 109.842 41.8762 109.572 41.9562 109.259C42.0095 109.059 42.1129 108.892 42.2663 108.759C42.5196 108.525 42.7663 108.535 43.0063 108.789C43.7263 109.529 44.5096 109.602 45.3562 109.009C45.5495 108.875 45.6862 108.673 45.7398 108.444C45.7934 108.215 45.76 107.975 45.6463 107.769C44.7396 106.149 43.6496 104.845 42.3763 103.859C42.1163 103.652 41.9529 103.389 41.8863 103.069C41.3529 100.409 42.1563 98.3353 44.2963 96.8486C44.5896 96.642 44.9063 96.6019 45.2463 96.7286L46.9262 97.3786C46.9783 97.4003 47.0354 97.4079 47.0913 97.4005C47.1473 97.3931 47.2003 97.371 47.245 97.3364C47.2897 97.3019 47.3244 97.2562 47.3457 97.2039C47.367 97.1516 47.3741 97.0945 47.3662 97.0386C46.9462 93.8286 50.2863 91.2186 52.2463 89.0986C53.3196 87.932 54.5929 86.912 56.0662 86.0386C58.8662 84.3786 61.6729 82.5919 64.4862 80.6786C64.7662 80.4853 64.7396 80.3719 64.4063 80.3386C62.7596 80.1519 61.2829 80.2219 59.9762 80.5486C55.5829 81.6419 52.3896 82.3653 50.3963 82.7186C43.4363 83.9653 36.9396 82.8486 30.9063 79.3686C30.6196 79.2019 30.3296 79.2019 30.0363 79.3686C27.0263 81.0686 23.7162 81.9786 20.9862 83.7486C14.4662 87.9786 4.23628 93.6486 4.40628 102.679C4.44628 104.439 5.12618 105.579 6.42618 106.649C14.0562 112.959 24.8162 114.909 34.4862 115.369C34.95 115.391 35.4128 115.3 35.8356 115.105C36.2584 114.911 36.629 114.617 36.9163 114.249C37.563 113.422 38.2929 112.425 39.1062 111.259C39.4729 110.725 39.9329 110.435 40.4862 110.389C40.8929 110.349 41.0796 110.532 41.0463 110.939ZM158.676 85.6386C158.703 84.6919 159.196 84.0053 160.156 83.5786C160.276 83.5253 160.303 83.4386 160.236 83.3186L160.096 83.0586C160.03 82.9453 159.94 82.9219 159.826 82.9886L150.476 88.4786C146.79 89.9586 143.2 91.6419 139.706 93.5286C136.96 95.0153 134.243 96.2286 131.556 97.1686C126.436 98.9686 121.336 101.279 116.396 102.849C110.35 104.769 104.31 106.699 98.2763 108.639C97.1963 108.985 95.8096 109.349 94.1162 109.729C92.7162 110.049 91.3362 110.419 89.9762 110.839C87.4162 110.732 85.2529 111.112 83.4862 111.979C81.0762 113.369 78.9063 113.279 76.5363 113.659C75.183 113.872 74.0596 113.955 73.1663 113.909C71.2463 113.809 69.6462 113.649 67.6062 113.889C63.9862 114.329 60.5629 113.772 57.3362 112.219C57.0347 112.071 56.6944 112.023 56.365 112.083C56.0357 112.142 55.7347 112.305 55.5063 112.549C54.6196 113.502 53.3229 113.962 51.6162 113.929C51.1229 113.922 50.9996 114.132 51.2463 114.559C51.5329 115.052 51.9496 115.339 52.4963 115.419C57.9563 116.209 63.3163 114.749 69.2563 115.109C71.3896 115.242 73.5362 115.152 75.6962 114.839C78.7562 114.399 81.8296 114.115 84.9163 113.989C88.0263 113.869 91.6463 113.079 95.1463 113.259C98.0563 113.409 100.666 112.689 103.586 112.839C107.716 113.039 111.146 112.139 115.246 111.949C115.573 111.929 115.873 111.825 116.146 111.639C117.26 110.879 118.493 110.432 119.846 110.299C120.173 110.265 120.393 110.095 120.506 109.789C122.006 105.759 126.976 102.569 131.886 100.309C136.066 98.3819 140.726 96.3486 145.866 94.2086C147.16 93.6753 151.943 91.9353 160.216 88.9886C165.55 87.0953 170.413 85.0786 174.806 82.9386C176.873 81.9253 176.756 81.3953 174.456 81.3486C172.97 81.322 171.163 81.3686 169.036 81.4886C167.783 81.5619 166.52 81.9686 165.246 82.7086C163.2 83.8819 161.01 84.8586 158.676 85.6386ZM142.817 87.1325C142.733 87.0198 142.443 87.0673 142.013 87.2644C141.582 87.4616 141.045 87.7922 140.52 88.1837C139.994 88.5752 139.524 88.9953 139.212 89.3518C138.9 89.7083 138.772 89.9719 138.856 90.0847C138.94 90.1974 139.229 90.1499 139.66 89.9528C140.091 89.7557 140.628 89.425 141.153 89.0335C141.678 88.642 142.148 88.2219 142.46 87.8654C142.772 87.5089 142.901 87.2452 142.817 87.1325ZM133.426 87.9786C133.273 87.9786 133.14 88.0153 133.026 88.0886C132.978 88.1205 132.94 88.1647 132.915 88.2166C132.89 88.2685 132.88 88.3261 132.885 88.3835C132.89 88.4408 132.91 88.4957 132.944 88.5423C132.978 88.589 133.023 88.6257 133.076 88.6486C133.69 88.9153 134.196 88.8619 134.596 88.4886C134.896 88.2019 134.863 87.9619 134.496 87.7686C134.263 87.6486 134.016 87.6819 133.756 87.8686C133.663 87.9419 133.553 87.9786 133.426 87.9786ZM73.8084 88.684C73.7554 88.6073 73.6624 88.5593 73.5345 88.5429C73.4065 88.5265 73.2463 88.542 73.0629 88.5885C72.8795 88.6349 72.6764 88.7114 72.4654 88.8136C72.2544 88.9159 72.0395 89.0418 71.833 89.1842C71.4161 89.4719 71.0586 89.8093 70.8394 90.1223C70.6202 90.4353 70.5572 90.6982 70.6641 90.8532C70.7171 90.9299 70.8101 90.9779 70.938 90.9943C71.066 91.0107 71.2262 90.9952 71.4096 90.9488C71.593 90.9023 71.7961 90.8258 72.0071 90.7236C72.2181 90.6214 72.433 90.4954 72.6394 90.353C73.0564 90.0654 73.4139 89.7279 73.6331 89.4149C73.8523 89.1019 73.9153 88.839 73.8084 88.684ZM68.8144 88.8336C68.6756 88.6987 68.4425 88.672 68.1665 88.7594C67.8906 88.8468 67.5944 89.0411 67.3429 89.2997C67.0915 89.5583 66.9055 89.8599 66.8258 90.1382C66.7462 90.4165 66.7793 90.6486 66.9181 90.7836C67.0569 90.9185 67.2899 90.9452 67.5658 90.8578C67.8418 90.7704 68.1381 90.5761 68.3896 90.3175C68.641 90.0589 68.827 89.7573 68.9067 89.479C68.9863 89.2008 68.9532 88.9686 68.8144 88.8336ZM135.426 90.4986L134.976 90.1386C134.736 89.9386 134.53 89.9686 134.356 90.2286L134.136 90.5586C134.01 90.7653 134.046 90.9353 134.246 91.0686C134.993 91.582 135.743 91.7053 136.496 91.4386C137.05 91.2386 137.06 91.0153 136.526 90.7686C136.426 90.7219 136.283 90.7053 136.096 90.7186C135.843 90.7319 135.62 90.6586 135.426 90.4986ZM64.6363 91.7386C64.6034 91.6891 64.5589 91.6485 64.5065 91.6204C64.4542 91.5923 64.3956 91.5776 64.3362 91.5776C64.2768 91.5776 64.2184 91.5923 64.1661 91.6204C64.1137 91.6485 64.0691 91.6891 64.0363 91.7386C62.703 93.7986 61.0796 95.6453 59.1663 97.2786C58.8796 97.5186 58.5662 97.7286 58.2262 97.9086C57.7796 98.1486 57.5396 98.4686 57.5063 98.8686C57.4196 100.029 57.2396 101.015 56.9662 101.829C56.6462 102.775 56.8229 102.879 57.4963 102.139C57.7229 101.892 57.7828 101.499 57.6762 100.959C57.6162 100.632 57.6396 100.312 57.7463 99.9986C58.5163 97.7086 60.7862 97.0886 62.5562 95.8786C62.8295 95.6919 63.1329 95.5886 63.4662 95.5686C64.6962 95.4786 65.9163 95.7186 66.7863 94.5786C66.953 94.3653 66.9296 94.1753 66.7162 94.0086C65.9296 93.3953 65.2363 92.6386 64.6363 91.7386ZM132.145 93.1953C132.111 93.0948 131.869 93.0694 131.472 93.1246C131.075 93.1798 130.556 93.3111 130.028 93.4897C129.767 93.5781 129.511 93.6755 129.277 93.7762C129.042 93.877 128.832 93.9791 128.659 94.0768C128.486 94.1745 128.354 94.2659 128.269 94.3457C128.185 94.4255 128.15 94.4922 128.167 94.5419C128.201 94.6424 128.443 94.6678 128.84 94.6126C129.238 94.5574 129.757 94.4261 130.284 94.2475C130.546 94.1591 130.801 94.0617 131.036 93.961C131.271 93.8603 131.481 93.7581 131.653 93.6604C131.826 93.5627 131.959 93.4714 132.043 93.3916C132.127 93.3118 132.162 93.245 132.145 93.1953ZM116.926 95.8186C117.12 95.492 117.12 95.1953 116.926 94.9286C116.706 94.6353 116.473 94.6219 116.226 94.8886C115.973 95.1553 115.636 95.3986 115.216 95.6186C114.156 96.1719 114.22 96.5286 115.406 96.6886C116.026 96.7753 116.533 96.4853 116.926 95.8186ZM118.344 98.817C118.334 98.7641 118.278 98.7205 118.178 98.6888C118.077 98.6571 117.936 98.6378 117.761 98.6322C117.586 98.6265 117.381 98.6344 117.158 98.6556C116.935 98.6768 116.698 98.7108 116.46 98.7557C116.223 98.8006 115.99 98.8554 115.774 98.9171C115.559 98.9788 115.365 99.0461 115.204 99.1153C115.043 99.1844 114.918 99.254 114.837 99.32C114.755 99.3861 114.718 99.4473 114.728 99.5002C114.738 99.5531 114.795 99.5967 114.895 99.6284C114.995 99.6601 115.137 99.6794 115.312 99.6851C115.487 99.6908 115.691 99.6828 115.915 99.6616C116.138 99.6404 116.375 99.6064 116.612 99.5615C116.85 99.5166 117.083 99.4618 117.299 99.4001C117.514 99.3384 117.708 99.2711 117.869 99.202C118.029 99.1328 118.154 99.0632 118.236 98.9972C118.317 98.9311 118.354 98.8699 118.344 98.817ZM110.986 101.509C111.706 101.475 112.336 101.209 112.876 100.709C113.163 100.435 113.11 100.279 112.716 100.239C111.976 100.165 111.31 100.462 110.716 101.129C110.216 101.689 109.6 101.825 108.866 101.539C108.653 101.452 108.46 101.485 108.286 101.639L108.086 101.809C108.039 101.853 108.006 101.91 107.991 101.973C107.976 102.036 107.98 102.102 108.003 102.163C108.025 102.224 108.065 102.277 108.117 102.315C108.169 102.353 108.232 102.375 108.296 102.379C108.95 102.392 109.55 102.202 110.096 101.809C110.363 101.622 110.66 101.522 110.986 101.509ZM44.3662 131.299C46.5262 130.759 48.9162 130.749 50.8662 130.179C53.7662 129.329 56.6763 128.049 59.3963 127.309C63.6363 126.139 67.9462 125.209 71.9862 123.429C73.4062 122.802 74.7463 122.375 76.0063 122.149C77.3463 121.909 78.6096 121.492 79.7963 120.899C81.0096 120.299 82.3363 119.832 83.7763 119.499C83.9429 119.459 84.0129 119.355 83.9862 119.189L83.9362 118.899C83.9162 118.732 83.823 118.652 83.6563 118.659C76.3763 119.059 67.3196 119.262 56.4862 119.269C53.1862 119.269 49.4396 119.809 45.2463 120.889C44.9396 120.969 44.7729 121.169 44.7463 121.489C44.6263 123.209 43.8329 124.675 42.3662 125.889C42.1062 126.102 41.9295 126.372 41.8362 126.699L40.7563 130.629C40.6764 130.915 40.7059 131.221 40.8389 131.487C40.9719 131.753 41.1991 131.961 41.4762 132.069C42.2496 132.362 42.9263 132.255 43.5063 131.749C43.7529 131.529 44.0396 131.379 44.3662 131.299ZM86.1862 120.399C86.6129 119.885 86.7263 119.485 86.5263 119.199C86.4516 119.091 86.3472 119.008 86.226 118.958C86.1048 118.908 85.9722 118.895 85.8445 118.92C85.7168 118.944 85.5997 119.005 85.5076 119.096C85.4155 119.186 85.3524 119.302 85.3262 119.429C85.2329 119.829 85.3063 120.159 85.5463 120.419C85.7663 120.652 85.9795 120.645 86.1862 120.399Z" fill="#FED440"/>
</svg>
