<svg width="243" height="100" viewBox="0 0 243 100" fill="none" xmlns="http://www.w3.org/2000/svg">
<path d="M73.0246 91.4946C70.1979 91.6546 67.3246 91.9547 64.4046 92.3947C60.2846 93.0147 56.6379 93.378 53.4646 93.4847C53.1579 93.4913 53.0046 93.3447 53.0046 93.0447C53.0046 92.8713 53.0913 92.758 53.2646 92.7047C55.6979 91.918 58.8079 91.1347 62.5946 90.3547C62.7546 90.3213 62.8246 90.2213 62.8046 90.0546L62.7646 89.7047C62.7513 89.638 62.7113 89.608 62.6446 89.6147L53.9846 90.7647C53.9257 90.7723 53.8658 90.7639 53.8113 90.7403C53.7567 90.7168 53.7096 90.6789 53.6748 90.6308C53.6399 90.5827 53.6187 90.526 53.6134 90.4669C53.6081 90.4077 53.6189 90.3482 53.6446 90.2947L53.7946 89.9847C53.8873 89.7925 54.0236 89.6252 54.1922 89.4965C54.3609 89.3679 54.557 89.2816 54.7646 89.2446C56.7446 88.8913 58.7013 88.388 60.6346 87.7347C61.2213 87.5347 61.2113 87.388 60.6046 87.2947C59.3579 87.0947 58.1679 87.238 57.0346 87.7247C56.7546 87.8513 56.4713 87.868 56.1846 87.7746C55.1446 87.4346 54.1313 87.2113 53.1446 87.1047C52.4113 87.0247 52.3513 86.7813 52.9646 86.3746C53.9713 85.708 55.0546 85.248 56.2146 84.9946C57.0013 84.8213 57.0613 84.508 56.3946 84.0546C55.8213 83.668 55.5579 83.0947 55.6046 82.3347C55.6446 81.7347 55.4246 81.6113 54.9446 81.9646C54.5446 82.258 54.2546 82.6446 54.0746 83.1246C53.9279 83.5046 53.6513 83.688 53.2446 83.6747L51.0546 83.5747C50.5279 83.548 50.5013 83.418 50.9746 83.1846C51.6346 82.858 52.2846 82.5513 52.9246 82.2647C53.3046 82.098 53.4713 81.818 53.4246 81.4247C53.3846 81.0713 53.1879 80.8713 52.8346 80.8247C51.8879 80.6913 51.1513 81.0147 50.6246 81.7947C50.5833 81.8568 50.5292 81.9094 50.4659 81.9487C50.4025 81.9881 50.3314 82.0134 50.2574 82.0229C50.1835 82.0324 50.1083 82.0258 50.0371 82.0037C49.9658 81.9816 49.9002 81.9444 49.8446 81.8947C49.5446 81.628 49.1946 81.5447 48.7946 81.6447C48.647 81.6837 48.5129 81.7631 48.4071 81.8743C48.3012 81.9854 48.2277 82.1239 48.1946 82.2746C48.1013 82.7346 47.9646 83.188 47.7846 83.6347C47.6779 83.908 47.4913 84.1047 47.2246 84.2247C47.0379 84.3047 46.8579 84.3047 46.6846 84.2247C46.4313 84.118 46.3046 83.928 46.3046 83.6546C46.2979 81.0413 47.4213 79.858 49.6746 80.1047C50.0363 80.1433 50.4014 80.0511 50.7046 79.8447L51.4846 79.2947C51.6017 79.2119 51.7378 79.1594 51.8809 79.142C52.0239 79.1245 52.1695 79.1426 52.3046 79.1947C53.3179 79.5747 54.4446 79.7413 55.6846 79.6947C56.1579 79.6747 56.4513 79.4347 56.5646 78.9747C56.8046 78.048 57.4046 77.708 58.3646 77.9547C58.7713 78.0613 59.1779 78.0613 59.5846 77.9547C62.0713 77.2813 64.5113 76.5113 66.9046 75.6447C68.8646 74.9447 70.5146 74.9946 72.5546 74.8746C72.6413 74.868 72.6846 74.8213 72.6846 74.7347V74.4747C72.6859 74.4266 72.6773 74.3787 72.6593 74.3339C72.6414 74.2891 72.6143 74.2482 72.5798 74.2137C72.5453 74.1792 72.5041 74.1518 72.4585 74.1331C72.413 74.1143 72.364 74.1047 72.3146 74.1047C71.0346 74.1113 69.7879 73.9113 68.5746 73.5047C67.4746 73.1313 66.2313 72.968 64.8446 73.0147C56.4746 73.2947 47.9346 73.0446 39.2346 73.7146C34.3846 74.0846 29.4746 74.0447 24.6746 74.5747C17.5413 75.3547 10.3013 75.8113 2.95459 75.9447C2.06793 75.9647 1.64126 75.528 1.67459 74.6347L1.79459 71.4547C1.80126 71.1147 1.72793 70.798 1.57459 70.5047C1.31459 70.0247 0.994593 69.5946 0.904593 69.0546C-0.162074 62.6346 -0.285406 56.2747 0.534594 49.9747C0.555441 49.8105 0.622214 49.6561 0.726882 49.5301C0.83155 49.4042 0.969657 49.312 1.12459 49.2647C4.97793 48.0913 9.02459 47.0513 13.2646 46.1447C26.0646 43.4047 38.8846 40.7447 51.7246 38.1647C51.7979 38.1513 51.8313 38.1046 51.8246 38.0246C51.8113 37.938 51.7646 37.898 51.6846 37.9046C47.1179 38.0846 42.0546 38.7647 36.4946 39.9447C32.1346 40.8647 27.8379 41.4713 23.6046 41.7647C22.4846 41.838 21.7346 41.3513 21.3546 40.3046C20.4646 37.8846 22.9046 37.0047 24.5846 36.2347C26.0513 35.5613 25.9779 35.228 24.3646 35.2347C23.6513 35.2413 22.9379 35.308 22.2246 35.4346C22.0844 35.4602 21.9403 35.4556 21.8019 35.4209C21.6634 35.3863 21.5337 35.3225 21.4213 35.2337C21.3089 35.145 21.2163 35.0332 21.1497 34.9058C21.083 34.7784 21.0438 34.6383 21.0346 34.4946C20.7813 30.3213 19.8679 26.198 18.2946 22.1246C17.6846 20.5546 17.6346 19.2346 17.6646 17.6546C17.667 17.5445 17.7012 17.4372 17.7632 17.3451C17.8252 17.253 17.9124 17.18 18.0146 17.1347C24.4879 14.428 31.0613 12.428 37.7346 11.1347C48.1213 9.11466 61.2779 7.19799 77.2046 5.38466C97.0513 3.11799 119.641 1.43133 144.975 0.32466C163.608 -0.49534 186.558 0.237975 213.825 2.52464C216.305 2.73131 218.928 3.07133 221.695 3.54466C224.221 3.97133 226.825 4.40465 229.505 4.84465C231.785 5.21132 234.891 6.25465 238.825 7.97465C239.131 8.10799 239.311 8.34133 239.365 8.67467C239.798 11.2947 239.638 13.4846 238.885 15.2446C238.465 16.2313 238.268 17.2813 238.295 18.3947C238.335 20.088 238.398 21.708 238.485 23.2547C238.511 23.6747 238.318 23.9113 237.905 23.9646C236.565 24.1446 236.178 24.9713 236.745 26.4447C236.835 26.6756 236.872 26.9233 236.853 27.1693C236.834 27.4153 236.759 27.6531 236.635 27.8647L235.245 30.2847C235.174 30.4069 235.073 30.5095 234.95 30.5829C234.828 30.6563 234.689 30.6982 234.545 30.7047C231.265 30.7847 228.018 31.318 224.805 32.3046C224.158 32.5046 224.168 32.6713 224.835 32.8046C228.735 33.558 232.418 34.2213 235.885 34.7947C237.038 34.9813 237.985 35.398 238.725 36.0447C238.978 36.2713 239.065 36.5513 238.985 36.8847C237.855 41.4047 233.925 39.1046 231.035 40.1846C227.288 41.5846 223.401 42.678 219.375 43.4646C211.681 44.9646 203.565 46.2046 195.025 47.1846C190.858 47.6646 190.848 48.2413 194.995 48.9147C200.908 49.868 207.071 50.918 213.485 52.0647C215.525 52.4313 217.531 52.9547 219.505 53.6347C221.191 54.2147 223.048 54.688 225.075 55.0546C229.505 55.8546 242.695 59.3047 242.075 64.9147C241.755 67.808 241.278 70.5946 240.645 73.2746C240.62 73.3781 240.569 73.4734 240.497 73.5519C240.425 73.6303 240.334 73.6892 240.233 73.7232C240.132 73.7571 240.025 73.765 239.92 73.746C239.815 73.727 239.717 73.6819 239.635 73.6147C238.208 72.468 236.581 72.3313 234.755 73.2047C234.135 73.5047 234.151 73.7713 234.805 74.0047C235.591 74.2847 236.128 74.7647 236.415 75.4447C236.555 75.7847 236.521 76.1046 236.315 76.4046C235.281 77.918 234.258 78.938 233.245 79.4646C230.878 80.678 230.971 81.658 233.525 82.4046C234.671 82.738 235.981 83.0113 237.455 83.2247C237.507 83.2331 237.558 83.252 237.604 83.2804C237.649 83.3088 237.688 83.346 237.719 83.3898C237.75 83.4337 237.771 83.4832 237.783 83.5356C237.794 83.588 237.795 83.642 237.785 83.6947L237.735 83.9547C237.699 84.1364 237.597 84.2986 237.45 84.411C237.303 84.5233 237.119 84.578 236.935 84.5647C233.485 84.3247 230.125 84.2047 226.705 83.8947C222.958 83.5547 219.188 83.5046 215.395 83.7446C215.288 83.7513 215.231 83.808 215.225 83.9147L215.215 84.1747C215.215 84.2147 215.235 84.238 215.275 84.2446C219.715 84.7846 224.131 85.2646 228.525 85.6846C229.918 85.818 231.245 86.0813 232.505 86.4747C232.663 86.5227 232.803 86.6164 232.908 86.7439C233.014 86.8714 233.079 87.0271 233.096 87.1915C233.113 87.3559 233.081 87.5218 233.004 87.6682C232.928 87.8146 232.809 87.9351 232.665 88.0147C229.745 89.6147 226.485 88.8347 224.195 89.0147C218.875 89.4247 213.835 88.7047 208.615 88.6747C206.261 88.668 203.815 88.6113 201.275 88.5047C197.905 88.3647 194.335 88.8946 190.925 88.9046C180.511 88.938 173.281 89.0813 169.235 89.3347C162.481 89.7547 155.591 90.1913 148.565 90.6447C143.265 90.9847 137.695 90.8446 132.365 90.8746C131.038 90.8813 128.658 91.1313 125.225 91.6246C121.965 92.0946 118.795 91.8047 115.555 92.1047C108.095 92.7947 101.195 92.9147 93.7746 93.7947C92.1646 93.9947 90.7246 93.6646 89.1046 93.8046C82.2913 94.3846 75.4946 95.1213 68.7146 96.0147C62.3446 96.8647 56.0246 97.3647 49.6746 98.0847C49.5379 98.104 49.4093 98.1631 49.3046 98.2547L48.9246 98.6147C48.8313 98.7013 48.7213 98.7546 48.5946 98.7746L39.4146 99.8046C39.3897 99.81 39.3647 99.8051 39.3452 99.791C39.3256 99.7769 39.3132 99.7549 39.3105 99.7297C39.3079 99.7045 39.3153 99.6782 39.331 99.6566C39.3468 99.6351 39.3697 99.62 39.3946 99.6147C41.9679 99.148 44.5079 98.5313 47.0146 97.7647C50.2479 96.778 52.8346 96.1046 54.7746 95.7446C61.5946 94.478 67.7113 93.3347 73.1246 92.3147C77.4379 91.508 77.4046 91.2346 73.0246 91.4946ZM174.165 43.1347C171.545 43.5847 167.385 43.8947 164.105 44.7647C164.045 44.778 164.021 44.8146 164.035 44.8746L164.085 45.1147C164.125 45.3347 164.251 45.4313 164.465 45.4046C168.191 45.0313 171.835 44.6847 175.395 44.3647C179.495 43.9947 184.535 42.9747 189.075 42.7847C192.305 42.6447 195.225 41.6347 198.335 41.2947C207.375 40.3013 214.035 39.4613 218.315 38.7746C218.968 38.668 219.565 38.378 220.105 37.9046C220.385 37.6713 220.351 37.4913 220.005 37.3647C218.071 36.678 216.408 36.3913 215.015 36.5047C209.348 36.9913 203.415 37.908 197.215 39.2547C192.841 40.2013 189.015 40.9013 185.735 41.3547C181.935 41.8747 178.078 42.468 174.165 43.1347ZM61.6046 79.8647C61.2946 80.1747 60.8346 80.4247 60.5846 80.7047C60.3379 80.9913 60.4046 81.1513 60.7846 81.1846C62.6379 81.3713 64.2313 81.1113 65.5646 80.4046C66.4313 79.9446 66.4279 79.4913 65.5546 79.0447C64.1746 78.3247 62.8579 78.598 61.6046 79.8647ZM68.5046 79.7947C68.9246 79.6947 69.2346 79.448 69.4346 79.0546C69.459 79.0114 69.4723 78.9629 69.4733 78.9132C69.4743 78.8634 69.4631 78.8139 69.4406 78.7689C69.4181 78.7238 69.3849 78.6845 69.3438 78.6542C69.3027 78.6238 69.255 78.6034 69.2046 78.5947C68.7846 78.5347 68.4046 78.608 68.0646 78.8147C67.8846 78.9213 67.7913 79.0813 67.7846 79.2947C67.7779 79.4347 67.8279 79.5513 67.9346 79.6447C68.1013 79.798 68.2913 79.848 68.5046 79.7947Z" fill="#FED440"/>
</svg>
